<?xml version="1.0" encoding="utf-8"?>
<!-- Generator: Adobe Illustrator 24.2.0, SVG Export Plug-In . SVG Version: 6.00 Build 0)  -->
<svg version="1.1" id="Layer_1" xmlns="http://www.w3.org/2000/svg" xmlns:xlink="http://www.w3.org/1999/xlink" x="0px" y="0px"
	 viewBox="0 0 1000 102.5" style="enable-background:new 0 0 1000 102.5;" xml:space="preserve">
<g>
	<g>
		<path d="M0,2.2h12.3v34.4L43.2,2.2h15.5l-31.9,35v1.7l33.7,39.6h-16l-32-38.4v38.4H0V2.2z"/>
		<path d="M113.6,43.7v34.8h-12.1V74h-1.7c-3.3,3.3-9.2,5.8-15.5,5.8c-11.8,0-18.7-6.4-18.7-16c0-9.9,6.9-16.5,19.6-16.5h16.4v-2.9
			c0-5.2-3.2-8.7-10.1-8.7c-6.3,0-10,2.7-10.8,7.2H67.7c1.2-10.8,10-18.2,23.8-18.2C104.2,24.6,113.6,30.4,113.6,43.7z M101.5,62.3
			V56H86.3c-5.5,0-8.5,2.3-8.5,6.8c0,4.7,3.8,6.9,9.2,6.9C92.4,69.6,97.4,67.5,101.5,62.3z"/>
		<path d="M122.4,61.9h12.2c0.8,4.1,4.8,7.4,11.6,7.4c7.5,0,10.5-2.9,10.5-6.8c0-4.1-2.9-5.2-7.4-5.7l-9-0.9
			c-10.9-1.1-16.1-6.1-16.1-14.5c0-10,8.4-16.9,21.6-16.9c13.3,0,20.5,6.2,21.3,16h-11.7c-0.5-3.5-4.1-5.9-9.7-5.9
			c-5.4,0-9.4,2.1-9.4,6.2c0,3.5,2.8,5.1,8.9,5.6l7.8,0.8c9.8,0.9,15.8,4.7,15.8,14.8c0,10.6-8.2,17.7-22.8,17.7
			C131.1,79.8,123.1,71.9,122.4,61.9z"/>
		<path d="M179,25.9h12.1v6.9h1.7c3.6-5.8,9.9-8.2,16.1-8.2c12.1,0,23.7,9.2,23.7,27.2c0,19-12.3,27.9-24.4,27.9
			c-5.9,0-12.6-2.1-17.1-7.7v30.4H179V25.9z M220.4,52.2c0-11.4-7.4-16.2-14.7-16.2c-7.4,0-14.6,4.9-14.6,16.2
			c0,11.3,7.2,16.2,14.6,16.2C213,68.4,220.4,63.7,220.4,52.2z"/>
		<path d="M241.1,52.3c0-15.7,10.2-27.7,26.4-27.7c14.9,0,25.2,10.2,25.2,24.6v6.2h-39.5c1.1,9,6.8,13.4,14.3,13.4
			c6.5,0,10.5-3.2,12.1-7.4h12.1c-2.8,10.7-11.4,18.3-24.1,18.3C251.6,79.8,241.1,68.1,241.1,52.3z M280.9,46.5
			c-0.3-6.3-5-11.7-13.3-11.7c-7,0-12.4,4.1-14.1,11.7H280.9z"/>
		<path d="M302.6,25.9h12.1v6.8h1.7c1.9-4.4,5.7-7.5,12.2-7.5h7.2v12h-8.1c-9,0-13.1,5.6-13.1,14.8v26.5h-12.1V25.9z"/>
		<path d="M341.6,61.9h12.2c0.8,4.1,4.8,7.4,11.6,7.4c7.5,0,10.5-2.9,10.5-6.8c0-4.1-2.9-5.2-7.4-5.7l-9-0.9
			c-10.9-1.1-16.1-6.1-16.1-14.5c0-10,8.4-16.9,21.6-16.9c13.3,0,20.5,6.2,21.3,16h-11.7c-0.5-3.5-4.1-5.9-9.7-5.9
			c-5.4,0-9.4,2.1-9.4,6.2c0,3.5,2.8,5.1,8.9,5.6l7.8,0.8c9.8,0.9,15.8,4.7,15.8,14.8c0,10.6-8.2,17.7-22.8,17.7
			C350.3,79.8,342.2,71.9,341.6,61.9z"/>
		<path d="M430.7,78.5l-20.5-25.4v25.4h-12.1V0h12.1v49L430,25.9h14.5l-21,24.3v1.6l22.2,26.6H430.7z"/>
		<path d="M470.5,72.9l-21.8-47h13.7l10.8,23.8c1.1,2.1,2,4.3,3.1,7.5h1.6c1-3.3,2-5.4,2.9-7.5l11-23.8h13.5l-35,76.5h-13.7
			L470.5,72.9z"/>
		<path d="M511.9,65.4H525v13.1h-13.1V65.4z"/>
		<path d="M589.4,60.9h-32l-6,17.5h-13.3l27.5-76.3h15.7l27.4,76.3h-13.2L589.4,60.9z M585.6,49.7l-11.3-33.6h-1.7l-11.3,33.6H585.6
			z"/>
		<path d="M616.2,52.2c0-15.9,10.7-27.6,26.4-27.6c12.6,0,22.3,7.6,24.2,19.5h-12c-1.5-5.4-5.8-8.6-12.2-8.6
			c-8.3,0-14.6,5.9-14.6,16.7c0,11.1,6.6,16.7,14.5,16.7c6.5,0,10.8-3.2,12.3-8.6h12c-1.9,11.9-11.6,19.5-24.2,19.5
			C626.9,79.8,616.2,68.1,616.2,52.2z"/>
		<path d="M723.2,43.7v34.8h-12.1V74h-1.7c-3.3,3.3-9.2,5.8-15.5,5.8c-11.8,0-18.7-6.4-18.7-16c0-9.9,6.9-16.5,19.6-16.5h16.3v-2.9
			c0-5.2-3.2-8.7-10.1-8.7c-6.3,0-10,2.7-10.8,7.2h-12.9c1.2-10.8,10-18.2,23.8-18.2C713.8,24.6,723.2,30.4,723.2,43.7z M711.1,62.3
			V56h-15.2c-5.4,0-8.5,2.3-8.5,6.8c0,4.7,3.8,6.9,9.2,6.9C702,69.6,707,67.5,711.1,62.3z"/>
		<path d="M732.7,52.5c0-19,12.3-27.9,24.5-27.9c5.8,0,12.5,2.1,17,7.6V0h12.1v78.5h-12.1v-6.9h-1.6c-3.7,5.8-10,8.2-16.2,8.2
			C744.3,79.8,732.7,70.6,732.7,52.5z M774.3,52.2c0-11.3-7.2-16.2-14.6-16.2c-7.3,0-14.7,4.8-14.7,16.2c0,11.4,7.4,16.2,14.7,16.2
			C767.1,68.4,774.3,63.5,774.3,52.2z"/>
		<path d="M796.6,52.3c0-15.7,10.2-27.7,26.4-27.7c14.9,0,25.2,10.2,25.2,24.6v6.2h-39.5c1.1,9,6.8,13.4,14.3,13.4
			c6.5,0,10.5-3.2,12.1-7.4h12.1c-2.8,10.7-11.4,18.3-24.1,18.3C807.1,79.8,796.6,68.1,796.6,52.3z M836.4,46.5
			c-0.3-6.3-5-11.7-13.3-11.7c-7,0-12.4,4.1-14.1,11.7H836.4z"/>
		<path d="M858.1,25.9h12.1v6.2h1.7c2.2-3.7,7-7.5,14.2-7.5c6,0,11.4,2.6,14.4,7.8h1.7c2.3-4,8.1-7.8,16.1-7.8
			c9.7,0,18.2,6.2,18.2,20.3v33.6h-12.1V47.3c0-7.2-3.9-10.7-9.7-10.7c-7.3,0-11.3,5.7-11.3,13.6v28.2h-12.1V47.3
			c0-7.2-3.9-10.7-9.7-10.7c-7.4,0-11.4,5.7-11.4,13.6v28.2h-12.1V25.9z"/>
		<path d="M965.1,72.9l-21.8-47h13.7l10.8,23.8c1.1,2.1,2,4.3,3.1,7.5h1.6c1-3.3,2-5.4,2.9-7.5l11-23.8h13.5l-35,76.5h-13.7
			L965.1,72.9z"/>
	</g>
</g>
</svg>
