<svg xmlns="http://www.w3.org/2000/svg" xmlns:xlink="http://www.w3.org/1999/xlink" width="654" height="642.338" viewBox="0 0 654 642.338"><defs><style>.a,.n{fill:none;}.b{fill:#ffefd8;}.c{clip-path:url(#a);}.d{fill:#f2b69c;}.e{fill:#bcc9d0;}.f{fill:#fc9f25;}.g{fill:#233447;}.h{fill:#dc176b;}.i{fill:#86ccf4;}.j{fill:#edb89c;}.k{fill:#563483;}.l{fill:#213547;}.m{fill:#161615;}.n{stroke:#fff;stroke-linecap:round;stroke-miterlimit:10;stroke-width:0.25px;}.o{fill:#fe2c25;}.p{fill:#2785fc;}.q{fill:#ffba00;}.r{fill:#00a050;}</style><clipPath id="a"><rect class="a" width="619.667" height="401.33"/></clipPath></defs><g transform="translate(-1241 -1479.662)"><g transform="translate(1137 -32)"><ellipse class="b" cx="327" cy="29" rx="327" ry="29" transform="translate(104 2096)"/><g transform="translate(112 1729)"><g class="c"><path class="d" d="M40.533,53.818V48.192H34.505L23.654,22.873l39.784-6.831-2.37,10.646s1.971,21.1-6.872,21.1v4.42s-3.214,17.55-13.662,1.609" transform="translate(50.808 34.458)"/><path class="e" d="M18.8,232.819,28.848,151.24,21.214,84.531s23.308-21.7,89.216-11.657l-1.609,57.066L93.951,235.23H80.692l-5.629-86.4-6.025-41.8-4.423,43.4-32.15,84.8-2.008,2.008Z" transform="translate(40.388 150.829)"/><path class="f" d="M1.314,18.453C7.868,47.348,15.023,74.267,24.622,93.2c11.647,4.879,23.046,6.009,34.159,2.811,0,0-15.362,87.838-6.431,107.3,1.272,2.433,23.619-19.533,95.648-14.065,0,0,34.159-8.839,15.671-30.139s-20.9-56.663-20.9-56.663c3.239,5.166,8.216,8.122,15.271,8.44l25.722-51.441-10.854-1.605-15.271,24.11-23.71-23.71-31.747-6.028S99.77,64.266,88.519,53.818L48.332,66.677,14.573,16.042Z" transform="translate(2.822 34.458)"/><path class="g" d="M44.18,68.2S29.712,50.114,46.592,49.311a243.811,243.811,0,0,1,27.327,0S87.581,42.48,86.376,24.395s.076-2.008.076-2.008S99.235,10.33,85.17,6.31s-23.71,10.451-23.71,10.451H48.2C36.839,18.083,28.648,22.9,23.284,30.826c0,0-16.879,35.364,20.9,37.373" transform="translate(41.939 12.04)"/><path class="h" d="M75.1,49.7l10.448-4.823c1.86,11.081,14.975,24.645,20.9,32.021,9.173,11.421,48.22,5.613,48.22,5.613s15.655-5.994,16.077-9.5c0,0-.806,13.407,10.448,3.891,4.417,3.041,9.9,3.888,17.682,0l19.291-9.113L244.688,5.8h10.448A409.234,409.234,0,0,1,243.082,76.9s-25.722,27.453-36.973,24.242c0,0,32.953,125.38,10.448,124.174l-4.017-4.42s-60.28,17.682-77.16,11.251-11.254-37.776-11.254-37.776S128.95,114,136.184,109.181c-25.927,3.919-36.041-4.546-39.381-8.037-3.359-3.513-4.681-7.029-9.438-19.473C81.416,66.1,77.021,54.69,75.1,49.7" transform="translate(161.314 12.45)"/><path class="i" d="M99.364,233.269h11.251s27.327-119.758,22.5-123.775c0,0,20.9,61.886,22.5,123.775l11.254-4.42S178.931,88.6,173.306,74.127c0,0-64.3,17.682-77.157,11.254,0,0-8.04,13.662,3.214,147.888" transform="translate(200.549 159.222)"/><path class="j" d="M101.144,18.893s1.07,25.184,13.662,21.97v4.017s-.535,13.942,10.451,3.891V41.4s10.716-5.893,8.3-9.378c0,0-20.629,16.344-32.418-13.127" transform="translate(217.253 40.581)"/><path class="g" d="M98.51,15.726S96.634,39.3,107.082,43.589c0,0,8.3,30.006,32.418,13.127,0,0,20.361-8.037,13.933-29.736-5.216-10.6-13.713-17.4-26.9-18.756-17.178-2.471-25.391.746-28.023,7.5" transform="translate(211.315 15.886)"/><path class="k" d="M182.1,28.581S151.56,83.538,147.272,82.956c0,0,12.324,18.7,17.414,18.167,0,0-2.95,68.053-6.161,66.979l-11.254,47.688s10.413,2.03,25.291,4c32.245,4.265,85.451,8.245,99.019-9.356L244.79,82.956c-.214,1.53,3.286,2.773,10.716,3.7,12.932-8.849,24.894-24.387,36.441-42.837L280.689,37.9,263.01,54.508l-5.358,3.818L246.4,49.15l-13.93-2.144L219.606,35.752V22.893s-8.037,12.859-25.184,0Z" transform="translate(316.335 49.173)"/><path class="l" d="M163.034,200.129l-7.728-114.69,37.269,2.367L173.938,200.129Z" transform="translate(333.59 183.52)"/><path class="l" d="M168.8,87.065s6.028,77.157,25.517,108.907h7.637s-4.656-105.044,2.8-110.188Z" transform="translate(362.582 184.261)"/><path class="g" d="M156.165,56.8s7.744,7.1,15.929,0H200.5s-1.993,30.3,24.255,25.864c0,0,18.211-72.749-28.807-75.561,0,0-7.391.4-9.123,5.625,0,0-17.8-3.349-22.221,31.48,0,0-2.012,16.476-8.443,12.592" transform="translate(335.436 15.263)"/><path class="j" d="M172.5,11.924s-13.958,9.645-11,33.356c0,0,12.472,19.423,28.41,5.49l1.476-21.135s-6.028-14.093-16.879-17.71" transform="translate(346.024 25.612)"/><path class="m" d="M19.52,122.144v8.789l9.664,5.893c5.537,1.25,8.323-.154,8.843-3.749l-7.769-7.366Z" transform="translate(41.928 262.361)"/><path class="m" d="M38.463,123.7v5.786l4.955,2.254,8.037,5.087c5.581-.579,8.528-2.389,6.431-6.564l-5.358-4.552-.586-3.567Z" transform="translate(82.617 262.361)"/><path class="m" d="M100.065,124.681s-11.789,3.482-4.823,8.843h16.612l-.538-8.843Z" transform="translate(199.847 267.81)"/><path class="m" d="M113.144,127.7l11.254-4.42,7.923,6.3c3.526,2.462,2.493,3.818,0,4.82l-17.569,2.147-1.609-6.633Z" transform="translate(243.029 264.794)"/><path class="m" d="M166.566,120.705l11.506,3.749v6.831s-17.134,8.707-22.489,4.423,10.983-15,10.983-15" transform="translate(331.869 259.27)"/><path class="m" d="M185.182,120.246h12.107l1.826,8.843s-14.736,14.736-24.916,8.839,10.983-17.682,10.983-17.682" transform="translate(368.223 258.284)"/><path class="d" d="M5.623,31.521S-.953,20.673.117,13.706,9.763,11.3,9.763,11.3l5.26,18.516Z" transform="translate(-0.001 21.119)"/><path class="d" d="M56.45,43.128,58.9,31.956H61.31l4.02-8.679c2.556-.623,4.5-.123,5.625,1.879L63.7,43.537Z" transform="translate(121.252 49.457)"/><path class="d" d="M83.634,37.046,72.383,25.615c-1.033-1.735.551-2.333,3.214-2.462l2.411,2.462L74.392,14.21c3.069-3.746,6.151-4.306,9.242-1.9l6.45,22.618Z" transform="translate(154.792 23.326)"/><path class="d" d="M129.612,18.249V3.485q6.025-6.97,12.057,0L135.64,18.249Z" transform="translate(278.402 0)"/><path class="d" d="M190.221,39.645l5.012-10.319q2.951-2.97,3.286,0l3.756-6c5.8-1.914,8.005,1.083,8.8,6L196.781,43.1l-4.322-2.276Z" transform="translate(408.587 48.85)"/><path class="d" d="M156.932,48.914V42.486c1.9-2.109,3.072-1.467,4.014,0l3.617-8.843c2.065-3.211,3.881-2.581,5.468,1.609l-4.259,17.682H163.48Z" transform="translate(337.084 67.894)"/><path class="n" d="M169.735,39.36s-4.785,25.067-15.526,24.847" transform="translate(331.235 84.544)"/></g></g></g><g transform="matrix(0.966, 0.259, -0.259, 0.966, 1525.369, 1479.662)"><path class="o" d="M141.763,65.792,86.2,96.866a16.33,16.33,0,0,1-21.91-5.68A15.273,15.273,0,0,1,69.642,70.2l.512-.3,55.56-31.074a16.313,16.313,0,0,1,21.91,5.68,15.256,15.256,0,0,1-5.35,20.92A4.092,4.092,0,0,1,141.763,65.792Z" transform="translate(-62.131 -36.727)"/><path class="p" d="M125.7,115.709,70.159,84.586A15.273,15.273,0,0,1,63.984,63.9l.3-.528a16.33,16.33,0,0,1,21.894-5.7l55.577,31.074a15.289,15.289,0,0,1,6.159,20.705l-.3.528A16.33,16.33,0,0,1,125.7,115.709Z" transform="translate(-62.12 -24.446)"/><path class="q" d="M148.9,115.69l55.577-31.074a15.256,15.256,0,0,0,6.159-20.689l-.3-.528a16.313,16.313,0,0,0-21.91-5.68l-55.56,31.008a15.289,15.289,0,0,0-6.142,20.705l.3.528A16.33,16.33,0,0,0,148.9,115.69Z" transform="translate(-21.272 -24.427)"/><path class="r" d="M132.88,65.792l55.56,31.074a16.33,16.33,0,0,0,21.91-5.68A15.273,15.273,0,0,0,205,70.2l-.512-.3L148.912,38.829A16.313,16.313,0,0,0,127,44.509a15.273,15.273,0,0,0,5.35,20.92,4.259,4.259,0,0,0,.528.363Z" transform="translate(-21.282 -36.727)"/></g></g></svg>