<svg xmlns="http://www.w3.org/2000/svg" xmlns:xlink="http://www.w3.org/1999/xlink" width="841.333" height="659.163" viewBox="0 0 841.333 659.163"><defs><style>.a,.v,.w{fill:none;}.b{clip-path:url(#a);}.c{fill:#161615;}.d{fill:#292929;}.e{fill:#dc002f;}.f{fill:#92bc5a;}.g{fill:#89cfe7;}.h{fill:#fff;}.i{fill:#dc176b;}.j{fill:#563483;}.k{fill:#f89106;}.l{fill:#d5d5d5;}.m{fill:#2d2d2d;}.n{fill:#a48ce8;}.o{fill:#ffd9b8;}.p{fill:#fbc59c;}.q{fill:#424242;}.r{fill:#cfcfcf;}.s{fill:#6d6d6d;}.t{fill:#77b7e6;}.u{fill:#93d5f8;}.v{stroke:#090a0a;stroke-miterlimit:10;stroke-width:0.1px;}.w{stroke:#000;stroke-width:2px;}</style><clipPath id="a"><rect class="a" width="706.986" height="446.622"/></clipPath></defs><g transform="translate(-74 -2337.939)"><g transform="translate(74 2550.48)"><g class="b"><path class="c" d="M682.074,444.83H23.622A23.123,23.123,0,0,1,.5,421.708V23.622A23.122,23.122,0,0,1,23.622.5H682.074A23.122,23.122,0,0,1,705.2,23.622V421.708a23.123,23.123,0,0,1-23.122,23.122" transform="translate(0.646 0.646)"/><rect class="a" width="704.696" height="444.33" rx="10.088" transform="translate(1.145 1.147)"/><path class="d" d="M656.67,413.262H25.479A16.644,16.644,0,0,1,8.834,396.617V26.794A16.645,16.645,0,0,1,25.479,10.149H656.67a16.646,16.646,0,0,1,16.647,16.645V396.617a16.644,16.644,0,0,1-16.647,16.645" transform="translate(11.414 13.113)"/><rect class="a" width="664.483" height="403.113" rx="7.262" transform="translate(20.247 23.263)"/><path class="e" d="M300.12,19.723a6.381,6.381,0,1,1-6.381-6.381,6.382,6.382,0,0,1,6.381,6.381" transform="translate(371.271 17.238)"/><path class="f" d="M285.124,19.586a6.14,6.14,0,1,1-6.143-6.138,6.14,6.14,0,0,1,6.143,6.138" transform="translate(352.518 17.375)"/><path class="g" d="M292.38,19.589a6.14,6.14,0,1,1-6.143-6.143,6.142,6.142,0,0,1,6.143,6.143" transform="translate(361.892 17.372)"/><rect class="h" width="35.111" height="5.852" transform="translate(43.993 61.678)"/><rect class="i" width="63.2" height="8.778" transform="translate(43.995 76.308)"/><rect class="j" width="36.867" height="8.778" transform="translate(115.387 76.308)"/><rect class="k" width="46.23" height="8.778" transform="translate(160.741 76.308)"/><rect class="i" width="89.826" height="8.778" transform="translate(52.334 91.522)"/><rect class="j" width="56.326" height="8.778" transform="translate(150.645 91.522)"/><rect class="k" width="66.274" height="8.778" transform="translate(215.31 91.522)"/><rect class="i" width="20.919" height="8.778" transform="translate(289.337 91.522)"/><rect class="i" width="63.2" height="8.778" transform="translate(43.995 109.664)"/><rect class="j" width="36.867" height="8.778" transform="translate(115.387 109.664)"/><rect class="k" width="46.23" height="8.778" transform="translate(160.741 109.664)"/><rect class="i" width="89.826" height="8.778" transform="translate(52.334 124.878)"/><rect class="j" width="56.326" height="8.778" transform="translate(150.645 124.878)"/><rect class="k" width="66.274" height="8.778" transform="translate(215.31 124.878)"/><rect class="i" width="20.919" height="8.778" transform="translate(289.337 124.878)"/><rect class="i" width="109.066" height="8.778" transform="translate(43.188 177.837)"/><rect class="j" width="56.324" height="8.778" transform="translate(43.995 195.394)"/><rect class="k" width="66.274" height="8.778" transform="translate(109.829 195.394)"/><rect class="i" width="34.014" height="8.778" transform="translate(182.101 195.394)"/><rect class="h" width="37.525" height="8.778" transform="translate(160.778 177.837)"/><rect class="i" width="63.2" height="8.778" transform="translate(44.8 214.12)"/><rect class="j" width="36.867" height="8.778" transform="translate(116.191 214.12)"/><rect class="k" width="46.23" height="8.778" transform="translate(161.546 214.12)"/><rect class="i" width="89.826" height="8.778" transform="translate(53.138 229.337)"/><rect class="j" width="56.326" height="8.778" transform="translate(151.45 229.337)"/><rect class="k" width="66.274" height="8.778" transform="translate(216.114 229.337)"/><rect class="i" width="63.2" height="8.778" transform="translate(44.8 247.478)"/><rect class="j" width="36.867" height="8.778" transform="translate(116.191 247.478)"/><rect class="k" width="46.23" height="8.778" transform="translate(161.546 247.478)"/><rect class="i" width="89.826" height="8.776" transform="translate(53.138 262.692)"/><rect class="j" width="56.326" height="8.776" transform="translate(151.45 262.692)"/><rect class="k" width="66.274" height="8.776" transform="translate(216.114 262.692)"/><rect class="i" width="109.066" height="8.776" transform="translate(101.928 278.494)"/><rect class="j" width="56.326" height="8.778" transform="translate(102.733 296.048)"/><rect class="k" width="66.274" height="8.778" transform="translate(168.566 296.048)"/><rect class="i" width="34.014" height="8.778" transform="translate(240.84 296.048)"/><rect class="h" width="37.527" height="8.776" transform="translate(219.516 278.494)"/><rect class="i" width="89.826" height="8.776" transform="translate(101.928 315.654)"/><rect class="j" width="56.326" height="8.776" transform="translate(200.166 315.654)"/><rect class="k" width="66.274" height="8.776" transform="translate(264.904 315.654)"/><rect class="i" width="20.919" height="8.776" transform="translate(338.932 315.654)"/><rect class="l" width="10.241" height="10.243" transform="translate(43.849 347.545)"/><rect class="l" width="10.241" height="10.243" transform="translate(43.849 364.515)"/><rect class="l" width="16.97" height="11.121" transform="translate(43.849 382.657)"/><rect class="l" width="16.97" height="10.534" transform="translate(43.849 399.627)"/><rect class="j" width="41.55" height="10.243" transform="translate(97.246 347.545)"/><rect class="h" width="103.434" height="10.243" transform="translate(153.059 347.545)"/><rect class="k" width="105.336" height="10.534" transform="translate(122.994 374.758)"/><rect class="i" width="95.57" height="10.534" transform="translate(198.301 399.627)"/><rect class="j" width="57.204" height="10.534" transform="translate(84.956 399.627)"/><rect class="i" width="68.907" height="10.243" transform="translate(262.271 364.515)"/><rect class="l" width="16.97" height="10.534" transform="translate(43.849 41.627)"/></g></g><g transform="matrix(1, 0.017, -0.017, 1, 647.954, 2338)"><path class="m" d="M83.681,81.452c-3.7-8.882-17.395-11.1-17.395-11.1l1.48-15.914C83.228,52,82.94,32.969,82.94,32.969,86.271,11.5,67.766,12.243,67.766,12.243c-1.48,5.922-12.954,16.284-12.954,16.284l-3.546-.37C42.912,34.449,52.961,40,52.961,40s1.85,1.48,1.85,5.181S49.63,66.428,49.63,66.428H41.118c-17.765,4.594-12.953,22.053-11.1,23.533s2.591,32.569,2.591,32.569C-27.351,96.624,13.73,63.685,13.73,63.685,9.659,36.3,33.716,30.746,33.716,30.746,50.74-22.179,83.679,9.28,83.679,9.28c20.726,4.811,15.914,35.16,15.914,35.16,11.843,25.167-15.914,37.01-15.914,37.01" transform="translate(0 0)"/><path class="j" d="M58.492,44.333l-.37,25.907.37,30.718L0,106.518C9.238,83.941,4.087,56.184,4.087,56.184L1.5,23.615C-6.646-2.66,21.112.082,21.112.082,42.578,29.47,37.766,4,37.766,4L49.609,8.68l20.726,25.3-4.071,3.331Z" transform="translate(28.518 66.347)"/><path class="d" d="M191.814,136.937c1.11,12.213,11.473,20.355,11.473,20.355l21.836,11.1v3.331l-41.081-1.85s-5.922-6.661-1.85-10.733-3.331-12.954-3.331-12.954L133.338,89.934,126.676,75.5,86.335,129.535C72.272,139.159,71.9,156.922,71.9,156.922l3.679,13.324-16.261,1.48c3.331-7.772-6.662-31.088-6.662-31.088s0-3.7,7.4-6.292,9.253-12.213,9.253-12.213l36.588-75.5c-7.772,3.7-18.825-2.222-18.825-2.222l-71.429.741c-22.575,1.109-14.08-39.6-14.08-39.6L60.055,0c85.123,14.064,84.383,21.466,84.383,21.466,12.954,5.551,0,25.168,0,25.168l47.373,90.3" transform="translate(26.946 167.297)"/><path class="n" d="M20.726,25.29,8.882,35.653,0,0Z" transform="translate(78.128 75.025)"/><path class="n" d="M12.909,0c-19.524,6.443-11.1,23.531-11.1,23.531L24.935,49.9,39.665,34.4l2.2-2.313Z" transform="translate(28.212 66.428)"/><path class="o" d="M78.185,35.01,33.311,34.1c-10.733,3.051-15.355-2.5-15.355-2.5L0,13.361,12.7,0S27.943,16.88,29.054,18.77s53.294,6.168,53.294,6.168Z" transform="translate(55.177 100.827)"/><path class="p" d="M.137,8.172,0,17.9l50.654,5.353,1.982-1.11L15.658,10.486C14.249,11.321,9.477,0,9.477,0Z" transform="translate(86.875 102.513)"/><path class="q" d="M191.959,136.247,179.006,145.5,133.483,89.245l-6.662-14.434L118.215,56.2,107.9,52.118c-4.626-1.85-6.308-2.191-9.253-3.7a69.41,69.41,0,0,0-11.423-4.688s-48.392,2.034-71.429.739S1.715,4.868,1.715,4.868L53.015,0l78.52,28.832c8.047.83,13.044,17.115,13.044,17.115Z" transform="translate(26.808 167.988)"/><path class="o" d="M12.954,0c-1.48,5.553,7.575,16.5,7.575,16.5,4.43,11.78-17.2,5.707-17.2,5.707C8.05,18.041,0,9.252,0,9.252L12.954,0" transform="translate(205.803 304.234)"/><path class="o" d="M26.277,7.4A34.511,34.511,0,0,0,11.843,34.789C6.756,33.955,0,12.213,0,12.213,8.048,9.624,9.252,0,9.252,0Z" transform="translate(87.01 289.43)"/><path class="r" d="M0,60.787H80s18.54-38.22,23.229-50.024S97.24.083,97.24.083,41.779-.1,32.412.083s-9.929,7.495-9.929,7.495l-20.19,48.7L1.124,59.1Z" transform="translate(130.68 80.435)"/><path class="s" d="M41.989,0,39.724,4.451,1.974,5.19c-4.441-2.036,0-5.19,0-5.19Z" transform="translate(91.513 136.396)"/><path class="t" d="M.049,4.4v0A3.8,3.8,0,0,1,3.205.047h0A3.8,3.8,0,1,1,.049,4.392" transform="translate(181.278 108.737)"/><path class="o" d="M18.343,58.106l1.48-15.914C34.628,41.082,35,20.726,35,20.726,38.511-.37,19.824,0,19.824,0,18.526,5.368,6.87,16.285,6.87,16.285l-3.546-.37c-7.244,6.662-.753,10.021,1.694,11.843s1.851,5.181,1.851,5.181L1.687,54.188C22.227,81.912,18.6,59.927,18.6,59.927Z" transform="translate(47.945 12.238)"/><path class="u" d="M18.547,0C17.288,11.226,1.35,5.707,1.35,5.707-2.536,9.869,3.2,16.44,3.2,16.44s37.983,2.592,41.08,1.85,0-3.331,0-3.331L22.445,3.856,18.549,0" transform="translate(207.783 320.732)"/><path class="u" d="M7.395,0c.556,9.723,11.843,24.971,11.843,24.971l5.033,19.44-5.564,6.4-4.242,1.432-2.738-1.31-1.585-1.912-1-1.534L5.537,39.978C9.376,33.942,0,6.96,0,6.96.1,2.763,7.4,0,7.4,0" transform="translate(79.607 301.643)"/><path class="v" d="M66.286,70.349l1.48-15.914C83.228,52,82.94,32.969,82.94,32.969,86.271,11.5,67.766,12.243,67.766,12.243c-1.48,5.922-12.954,16.284-12.954,16.284l-3.546-.37C42.912,34.449,52.961,40,52.961,40s1.85,1.48,1.85,5.181S49.63,66.428,49.63,66.428H41.118c-17.765,4.594-12.953,22.053-11.1,23.533s2.591,32.569,2.591,32.569C-27.351,96.624,13.73,63.685,13.73,63.685,9.659,36.3,33.716,30.746,33.716,30.746,50.74-22.179,83.679,9.28,83.679,9.28c20.726,4.811,15.914,35.16,15.914,35.16,11.843,25.167-15.914,37.01-15.914,37.01C79.98,72.568,66.286,70.349,66.286,70.349Z" transform="translate(0 0)"/></g><path class="w" d="M0,0H287.667" transform="translate(627.667 2480.5)"/></g></svg>