<svg xmlns="http://www.w3.org/2000/svg" xmlns:xlink="http://www.w3.org/1999/xlink" width="1483.193" height="1147" viewBox="0 0 1483.193 1147"><defs><style>.a,.ad,.af,.f,.w{fill:none;}.b{clip-path:url(#a);}.c{clip-path:url(#b);}.d{fill:#fae4f1;}.e{fill:#f78d1d;}.f{stroke:#080909;stroke-width:0.1px;}.ad,.f,.w{stroke-miterlimit:10;}.g{fill:#ffae60;}.h{fill:#fc257e;}.i{fill:#fc7b22;}.j{fill:#ffe1c4;}.k{fill:#fad0ac;}.l{fill:#ff6aa8;}.m{fill:#ffcd9c;}.n{fill:#d8d8d8;}.o{fill:gray;}.p{fill:#fff;}.q{fill:#6e36de;}.r{fill:#af96c7;}.s{fill:#2a1c54;}.t{fill:#cfa386;}.u{fill:#80604e;}.v{fill:#5e5e5e;}.w{stroke:#297426;stroke-width:0.25px;}.x{fill:#c3ddbc;}.y{fill:#a6e695;}.z{fill:#9dcf90;}.aa{fill:#585858;}.ab{opacity:0.17;}.ac{clip-path:url(#d);}.ad{stroke:#e67015;stroke-linecap:round;}.ae{fill:#563383;}.af{stroke:#000;stroke-width:3px;}</style><clipPath id="a"><rect class="a" width="1483.193" height="1147"/></clipPath><clipPath id="b"><rect class="a" width="1483.193" height="980.814"/></clipPath><clipPath id="d"><rect class="a" width="115.633" height="115.486"/></clipPath></defs><g transform="translate(-23 91)"><g class="b" transform="translate(23 -91)"><g transform="translate(2 45)"><g class="c" transform="translate(50 -4)"><path class="d" d="M2.045,760.079C-24.145,657.241,207.358,495.51,341.8,425.634c107.511-55.878,128.779-40.459,237.038-101.345C770.606,216.431,768.206,131.857,910.688,62.476c112.532-54.8,299.516-92.367,417.533-30.4,204,107.111,209.24,515.508,0,737.084C975.016,1143.169,48.971,944.335,2.045,760.079" transform="translate(-0.001 0.001)"/></g></g><g class="b"><path class="e" d="M246.658,218.021s-42.03-17.933-24.093-56.039c0,0-7.286-45.954,24.093-53.24,0,0,49.875-47.633,75.654,32.505,0,0,36.426,8.405,30.263,49.875,0,0,62.2,49.875-28.584,89.1,0,0,1.123-47.074,3.928-49.319S338,202.231,311.106,195.274H298.216s-7.846-26.569-7.846-32.173,2.8-7.846,2.8-7.846,15.217-8.405,2.565-17.933l-5.366.56S273,122.191,270.755,113.226c0,0-28.018-1.119-22.974,31.382,0,0-.431,28.811,22.974,32.5l2.242,24.1s-20.735,3.365-26.339,16.814" transform="translate(499.982 217.063)"/><path class="f" d="M246.658,218.021s-42.03-17.933-24.093-56.039c0,0-7.286-45.954,24.093-53.24,0,0,49.875-47.633,75.654,32.505,0,0,36.426,8.405,30.263,49.875,0,0,62.2,49.875-28.584,89.1,0,0,1.123-47.074,3.928-49.319S338,202.231,311.106,195.274H298.216s-7.846-26.569-7.846-32.173,2.8-7.846,2.8-7.846,15.217-8.405,2.565-17.933l-5.366.56S273,122.191,270.755,113.226c0,0-28.018-1.119-22.974,31.382,0,0-.431,28.811,22.974,32.5l2.242,24.1S252.262,204.572,246.658,218.021Z" transform="translate(499.982 217.063)"/><path class="g" d="M225.966,181.7l-6.163-5.041,32-39,7-4,10.309-2.4s-7.283,38.57,25.223-5.933a41.1,41.1,0,0,1,13.469,0c11.06,2.077,24.071,10.33,16.231,35.633l-3.924,49.319s-7.8,42.027,6.19,76.211l-88.567-8.405.56-46.514-.56-39.228Z" transform="translate(503.86 287.009)"/><path class="h" d="M199.77,378.987,271.5,242.251s-19.616-29.7,0-38.105c0,0-1.123-11.21,127.769-32.505l88.567,8.405s12.866,61.646-21.321,59.963l-108.156-1.123s-21.295,24.1-33.062,18.493l59.96,99.191s2.805,14.572,14.012,18.5,11.207,9.525,11.207,9.525-15.128,35.307-10.088,47.074l-24.623-2.242,5.571-20.175s-.56-26.9-21.854-41.467L298.4,285.959l-10.088,21.858L219.386,393s-11.21,13.453-5.044,19.616-2.8,16.248-2.8,16.248l-62.205,2.805v-5.044L182.4,409.807s15.688-12.326,17.37-30.819" transform="translate(342.324 393.455)"/><path class="i" d="M251.192,129.2l-13.456,54L219.8,167.505l25.669-33.331Z" transform="translate(503.861 296.159)"/><path class="i" d="M233.038,173.916l3.428,3.509,22.975,23.5,36.081-39.995s13.127-25.917-17.318-35.691Z" transform="translate(534.199 286.972)"/><path class="j" d="M202.016,178.822s79.016-6.479,80.7-9.334,24.765-28.423,24.765-28.423L326.71,161.3l-27.185,27.609s-7,8.409-23.254,3.786l-67.95,1.386Z" transform="translate(463.086 323.369)"/><path class="k" d="M266.457,141.838s-7.23,17.143-9.36,15.882L201.1,175.374l3,1.679,76.7-8.106-.2-14.73Z" transform="translate(460.996 325.139)"/><path class="l" d="M236.387,241.531s7.566-24.656,19.754-25.917l118.9-43.66,77.682,7.371s15.722,60.246-19.163,62.205-110.311-3.362-110.311-3.362-16.672,22.134-33.065,18.493l-13.871.4L263.285,285.24,253.2,307.1,184.27,392.276l-19.616-14.009Z" transform="translate(377.441 394.174)"/><path class="m" d="M174.725,234.619l21.92,14.009s-13.623,13.311-5.636,19.616c0,0-36.6,9.2-29.1-8.642,0,0,15.323-16.577,12.818-24.982" transform="translate(366.605 537.823)"/><path class="m" d="M240.227,227.81s1.911,15.785,14.71,20.033c0,0-10.742,35.665-18.829,37.031a57.377,57.377,0,0,0-22.942-44.923Z" transform="translate(483.724 526.671) rotate(-1)"/><path class="n" d="M313.56,221.182l-1.771-4.27-30.573-73.751s-.853-11.065-15.036-11.352-98.167,0-98.167,0-16.172-1.7-9.077,16.175,35.179,75.75,35.179,75.75H315.262Z" transform="translate(360.208 301.863)"/><path class="o" d="M264.457,157.423s6.726,4.777,0,7.862L207.3,164.159l-3.431-6.736Z" transform="translate(467.332 360.865)"/><path class="p" d="M194.753,154.218a8.229,8.229,0,1,1-6.84-9.415,8.223,8.223,0,0,1,6.84,9.415" transform="translate(407.94 326.7)"/><path class="q" d="M219.66,307.741H353.875l48.331-153.61s20.6-26.977,32.364-1.758c0,0,3.786,13.729,0,20.314L383.717,344.869,300.075,343.7l-66.828-.932s-41.888-4.906-13.587-35.027" transform="translate(481.029 324.599)"/><path class="r" d="M243.4,350.388l0-147.4,14.615.224V350.388l8.359,8.3h-31.8Z" transform="translate(537.707 465.313)"/><path class="s" d="M354.63,174.193l-84.5,2.663s-51.7,5.6-52.539,56.177l7.286.81s4.484-44.377,45.253-48.163,81.748-2.742,81.748-2.742l2.752-6.921Z" transform="translate(498.787 399.307)"/><path class="t" d="M122.843,159.555H462.351s13.917,5.6,0,13.449H122.843s-10.647-6.726,0-13.449" transform="translate(270.748 365.752)"/><path class="u" d="M121.42,447.2l.56-283.558h10.088V265.073l302.614,1.679V163.64h10.647V448.268H435.8l-1.119-173.11H131.508l-1.123,173.11Z" transform="translate(278.335 375.117)"/><path class="m" d="M252.407,191.06s-5.485,33.289,25.614-8.692L270.179,150.2s-.909-5.087,2.8-7.842,13.532-7.849,2.565-17.937l-5.366.563s-17.653-16.534-19.619-24.66c0,0-28.3-.56-22.974,31.382,0,0,.56,30.823,22.974,32.505l2.242,24.1Z" transform="translate(520.173 229.966)"/><path class="v" d="M191.873,242.207l-6.205,5.837L150.9,264.858s-4.938,3.921,0,5.044,65.419-2.8,65.419-2.8,9.134-9.946,2.947-16.251c0,0-25.385,8.356-27.389-8.642" transform="translate(337.298 555.217)"/><path class="v" d="M238.319,233.427s11.425,3.78,11.571,9.528c0,0-16.419,38.807-10.415,47.07L219.8,288.294V267.611s17.646-20.877,18.516-34.184" transform="translate(503.86 535.091)"/><path class="w" d="M337.879,274.228s9.913-101.285,32.4-109.6" transform="translate(774.529 377.369)"/><path class="w" d="M338.837,314.622s-12.415-141.889,0-158.14" transform="translate(764.076 358.708)"/><path class="w" d="M347.405,292.828s-17.581-117.661-26.6-123.462" transform="translate(735.401 388.242)"/><path class="x" d="M358.03,349.847s-32.212-52.983-14.763-86.532S312.4,163.33,312.4,163.33s40.262-7.385,45.632,47.64c2.13,21.864,8.925,39.9,13.811,57.03,7.418,25.983,10.453,49.875-13.811,81.847" transform="translate(716.118 373.648)"/><path class="y" d="M344.5,307.654s-16.488-119.218-2.084-130.7c0,0,47.959-62.021,37.22-9.189-3.928,19.333-9.65,47.37-14.631,76.77-1.429,8.415-2.8,16.942-4.04,25.4-5.614,38.115-8.807,75-4.171,94.928a39.194,39.194,0,0,0,2.064,6.525c14.068,32.963-28.877,19.181-28.877,19.181l-6.71-19.181Z" transform="translate(741.054 335.709)"/><path class="z" d="M389.772,162.215s-46.57,51.666-51.275,81.5-17.7,77.475-2.3,88.916-.7,16.807-.7,16.807l35.192,18.789s27.5-83.279,2.937-128.69c0,0,73.432-108.857,16.155-77.32" transform="translate(753.919 358.707)"/><path class="aa" d="M422.718,329.717l52.252-113.444-167.428.023,52.282,113.43Z" transform="translate(704.988 495.768)"/><g class="ab" transform="translate(1064.326 712.041)"><g class="ac"><path class="p" d="M436.519,216.273c1.4,10.763-92.827,132.579-113.243,113.454l63.154-.01,52.476-113.444Z" transform="translate(-323.273 -216.273)"/></g></g><path class="ad" d="M231.421,121.537s10.6.04,10.641-7.948" transform="translate(530.492 260.383)"/><path class="ae" d="M90.309,251.268l939.821-1.689" transform="translate(207.018 572.116)"/><path class="af" d="M0,0H921.5" transform="translate(335.5 825.5)"/></g></g></g></svg>