<svg xmlns="http://www.w3.org/2000/svg" xmlns:xlink="http://www.w3.org/1999/xlink" width="1832.479" height="473.378" viewBox="0 0 1832.479 473.378"><defs><style>.a,.aw{fill:none;}.b{fill:#fc257e;}.ap,.c{fill:#a41be4;}.d{fill:#f78d1d;}.e{fill:#a3a3a3;}.f{fill:#848484;}.g{fill:#7a0e9a;}.h{fill:#cecece;}.i{fill:#030303;}.j{fill:#9c9c9c;}.k{font-size:22px;}.ax,.k,.x{font-family:Poppins-ExtraBold, Poppins;font-weight:800;}.an,.ay,.l,.o{fill:#292929;}.l{font-size:18px;}.an,.ay,.l{font-family:Bahnschrift;font-weight:300;}.m{clip-path:url(#a);}.n{fill:#161615;}.p{fill:#dc002f;}.q{fill:#92bc5a;}.r{fill:#89cfe7;}.s{fill:#fff;}.t{fill:#dc176b;}.u{fill:#563483;}.v{fill:#f89106;}.w{fill:#d5d5d5;}.x{font-size:23px;}.y{fill:#ffdbbb;}.z{fill:#fdb797;}.aa{fill:#d8d8d8;}.ab{fill:#ffce7a;}.ac{fill:#ff9113;}.ad{fill:#ffce9e;}.ae{fill:#ffe1c4;}.af{fill:#ff8000;}.ag{fill:#070707;}.ah{opacity:0.11;}.ai{fill:#ffabcf;}.aj{fill:#de0b5f;}.ak{fill:#ff70a9;}.al{fill:#fd3585;}.am{fill:#0e0d15;}.an{font-size:19px;}.ao{fill:#ffd8b1;}.ap{stroke:#a41be4;}.aq{fill:#d5abff;}.ar{fill:url(#b);}.as{fill:#ffabce;}.at{fill:#ff6daa;}.au{fill:#383838;}.av{fill:#fbfbfb;opacity:0.45;}.aw{stroke:#707070;stroke-dasharray:3;}.ax{font-size:24px;}.ay{font-size:20px;}.az{stroke:none;}</style><clipPath id="a"><rect class="a" width="231.097" height="145.99"/></clipPath><radialGradient id="b" cx="0.5" cy="0.5" r="0.5" gradientUnits="objectBoundingBox"><stop offset="0" stop-color="#fff2f9"/><stop offset="1" stop-color="#ffdff1"/></radialGradient></defs><g transform="translate(3.628 -4720.621)"><rect class="b" width="310" height="48" transform="translate(295.85 4927.621)"/><path class="c" d="M24.276,0,48.552,42.419H0Z" transform="translate(338.009 4926.914) rotate(90)"/><rect class="d" width="307" height="48" transform="translate(601.85 4927.621)"/><path class="b" d="M24,0,48,42.419H0Z" transform="translate(644.27 4927.621) rotate(90)"/><rect class="c" width="307" height="48" transform="translate(908.85 4927.621)"/><path class="c" d="M306,48h0Z" transform="translate(1522.85 4927.621)"/><path class="d" d="M24,0,48,42.419H0Z" transform="translate(951.269 4927.621) rotate(90)"/><rect class="b" width="307" height="48" transform="translate(1215.85 4927.621)"/><path class="c" d="M23.917,0,47.833,42.419H0Z" transform="translate(1258.005 4927.621) rotate(90)"/><path class="b" d="M23.917,0,47.833,42.419H0Z" transform="translate(1565.269 4927.621) rotate(90)"/><path class="c" d="M0,0H299.218V48.707H0L38.146,25.4Z" transform="translate(-3.628 4926.914)"/><g transform="translate(0.299 4751.678)"><g transform="translate(95.1 14.236)"><path class="a" d="M303.652,113.715a1.931,1.931,0,0,0-.114,2.609,1.69,1.69,0,0,0,1.284.6,1.669,1.669,0,0,0,1.169-.484c12.267-11.9,26.347-29.241,26.347-58.035a1.846,1.846,0,0,0-1.1-1.718,1.685,1.685,0,0,0-1.906.454l-37.9,43.025a1.926,1.926,0,0,0,.08,2.608,1.664,1.664,0,0,0,2.454-.081l34.752-39.456C327.247,87.732,314.684,103.013,303.652,113.715Z" transform="translate(-232.043 -56.564)"/><path class="e" d="M308.553,62.367s-.823,27.467-19.134,44.668-28.757,26.61-28.757,26.61-6.043,4.866-6.7,12.739-.638,30.486-25.178,26.041c0,0-19.481-6.111-14.124-27.038,0,0,3.97-12.693,19.139-13.169s19.5-6.3,19.5-6.3Z" transform="translate(-210.77 -58.162)"/><path class="f" d="M224.014,181.656c0,7.13,5.449,12.93,12.146,12.93s12.146-5.8,12.146-12.93-5.448-12.93-12.146-12.93S224.014,174.526,224.014,181.656Zm20.823,0a8.979,8.979,0,0,1-8.676,9.236c-4.782,0-8.676-4.141-8.676-9.236s3.893-9.236,8.676-9.236S244.837,176.562,244.837,181.656Z" transform="translate(-213.603 -87.454)"/><path class="a" d="M247.512,151.544a1.888,1.888,0,0,0,.992-2.387,1.7,1.7,0,0,0-2.245-1.053c-.733.3-1.524.676-2.374,1.079-2.93,1.385-6.576,3.114-10.988,3.114-13.472,0-23.252,9.631-23.252,22.905,0,13.647,10.432,24.752,23.252,24.752,9.8,0,16.492-4.662,19.847-13.75,1.756-4.008,2.017-12.783,2.017-17.652,0-.994,2.644-3.114,4.227-4.382A28.54,28.54,0,0,0,263,160.543a1.936,1.936,0,0,0-.146-2.609,1.663,1.663,0,0,0-2.45.155,26.019,26.019,0,0,1-3.506,3.133c-2.884,2.313-5.608,4.492-5.608,7.33,0,7.655-.631,13.672-1.732,16.2-2.863,7.743-8.315,11.512-16.661,11.512-10.907,0-19.781-9.447-19.781-21.058,0-11.135,8.319-19.21,19.781-19.21,5.15,0,9.339-1.988,12.4-3.44C246.089,152.176,246.828,151.828,247.512,151.544Z" transform="translate(-209.646 -81.739)"/></g><g transform="translate(0 34.731)"><path class="g" d="M104.8,182.646l19.816,10.72v-10.72Z" transform="translate(-66.626 -138.358)"/><path class="c" d="M68.716,167.433V141.892H43.886l21.385,18.469L43.886,178.828H89.01Z" transform="translate(-43.886 -123.145)"/><path class="g" d="M428.431,182.646v10.593l19.58-10.593Z" transform="translate(-187.433 -138.358)"/><path class="c" d="M493.949,141.892H468.884v25.541l-20.294,11.4h45.359l-21.385-18.468Z" transform="translate(-194.958 -123.145)"/><rect class="c" width="234.354" height="37.216" transform="translate(31.903)"/></g><g transform="translate(113.188 0)"><path class="a" d="M271.414,133.087a39.473,39.473,0,0,0,2.509,13.743c2.942,7.947,8.729,11.979,17.205,11.979,11.088,0,20.111-9.6,20.111-21.408,0-11.481-8.459-19.811-20.111-19.811-13.246,0-17.568-7.576-17.74-7.889a1.672,1.672,0,0,0-.21-.3L227.089,57.064a1.448,1.448,0,0,0-1.648-.393,1.6,1.6,0,0,0-.949,1.486c0,30.838,19.318,47.019,33.423,58.829C265.459,123.3,271.414,128.287,271.414,133.087ZM227.627,62.345l43.259,49.118c.8,1.355,6.135,9.321,20.243,9.321,9.915,0,17.109,6.988,17.109,16.615,0,10.046-7.675,18.213-17.109,18.213-7.218,0-11.934-3.26-14.446-10.046a36.048,36.048,0,0,1-2.267-12.481c0-6.349-6.462-11.762-14.641-18.613C246.816,103.622,229.3,88.959,227.627,62.345Z" transform="translate(-224.493 -56.561)"/></g><g transform="translate(108.377 19.794)"><path class="h" d="M227.97,64.234s1.085,27.276,19.528,44.188,28.958,26.159,28.958,26.159,6.079,4.776,6.811,12.591.929,30.275,25.381,25.627c0,0,19.387-6.255,13.838-26.99,0,0-4.084-12.571-19.23-12.9s-19.52-6.076-19.52-6.076Z" transform="translate(-227.97 -64.234)"/><path class="i" d="M2.8,0a2.892,2.892,0,0,1,2.8,2.978A2.892,2.892,0,0,1,2.8,5.955,2.892,2.892,0,0,1,0,2.978,2.892,2.892,0,0,1,2.8,0Z" transform="translate(39.452 54.205)"/><path class="j" d="M327.16,194.587c6.7,0,12.146-5.8,12.146-12.93s-5.448-12.93-12.146-12.93-12.146,5.8-12.146,12.93S320.462,194.587,327.16,194.587Zm0-22.167c4.782,0,8.676,4.142,8.676,9.236a8.693,8.693,0,1,1-17.353,0C318.484,176.562,322.378,172.42,327.16,172.42Z" transform="translate(-251.943 -93.012)"/></g></g><text class="k" transform="translate(145.529 5046.424)"><tspan x="-111.298" y="0">Opening Ceremony</tspan></text><text class="l" transform="translate(150.932 5078.889)"><tspan x="-60.86" y="0">11:00 - 12:00 pm</tspan></text><g class="m" transform="translate(356.512 5012.042)"><path class="n" d="M223.291,145.741H8.058A7.558,7.558,0,0,1,.5,138.183V8.058A7.558,7.558,0,0,1,8.058.5H223.291a7.558,7.558,0,0,1,7.558,7.558V138.183a7.558,7.558,0,0,1-7.558,7.558" transform="translate(-0.125 -0.125)"/><rect class="a" width="230.349" height="145.241" rx="10.088" transform="translate(0.374 0.375)"/><path class="o" d="M220.6,141.917H14.275a5.44,5.44,0,0,1-5.441-5.441V15.59a5.441,5.441,0,0,1,5.441-5.441H220.6a5.441,5.441,0,0,1,5.441,5.441V136.476a5.441,5.441,0,0,1-5.441,5.441" transform="translate(-2.216 -2.545)"/><rect class="a" width="217.204" height="131.768" rx="7.262" transform="translate(6.618 7.604)"/><path class="p" d="M291.529,15.428a2.086,2.086,0,1,1-2.086-2.086,2.086,2.086,0,0,1,2.086,2.086" transform="translate(-72.068 -3.346)"/><path class="q" d="M276.857,15.454a2.007,2.007,0,1,1-2.008-2.006,2.007,2.007,0,0,1,2.008,2.006" transform="translate(-68.427 -3.373)"/><path class="r" d="M284.113,15.454a2.007,2.007,0,1,1-2.008-2.008,2.008,2.008,0,0,1,2.008,2.008" transform="translate(-70.247 -3.372)"/><rect class="s" width="11.477" height="1.913" transform="translate(14.38 20.161)"/><rect class="t" width="20.659" height="2.869" transform="translate(14.381 24.943)"/><rect class="u" width="12.051" height="2.869" transform="translate(37.717 24.943)"/><rect class="v" width="15.111" height="2.869" transform="translate(52.543 24.943)"/><rect class="t" width="29.362" height="2.869" transform="translate(17.107 29.917)"/><rect class="u" width="18.412" height="2.869" transform="translate(49.242 29.917)"/><rect class="v" width="21.663" height="2.869" transform="translate(70.38 29.917)"/><rect class="t" width="6.838" height="2.869" transform="translate(94.578 29.917)"/><rect class="t" width="20.659" height="2.869" transform="translate(14.381 35.847)"/><rect class="u" width="12.051" height="2.869" transform="translate(37.717 35.847)"/><rect class="v" width="15.111" height="2.869" transform="translate(52.543 35.847)"/><rect class="t" width="29.362" height="2.869" transform="translate(17.107 40.82)"/><rect class="u" width="18.412" height="2.869" transform="translate(49.242 40.82)"/><rect class="v" width="21.663" height="2.869" transform="translate(70.38 40.82)"/><rect class="t" width="6.838" height="2.869" transform="translate(94.578 40.82)"/><rect class="t" width="35.651" height="2.869" transform="translate(14.117 58.131)"/><rect class="u" width="18.411" height="2.869" transform="translate(14.381 63.87)"/><rect class="v" width="21.663" height="2.869" transform="translate(35.9 63.87)"/><rect class="t" width="11.118" height="2.869" transform="translate(59.524 63.87)"/><rect class="s" width="12.266" height="2.869" transform="translate(52.555 58.131)"/><rect class="t" width="20.659" height="2.869" transform="translate(14.644 69.991)"/><rect class="u" width="12.051" height="2.869" transform="translate(37.98 69.991)"/><rect class="v" width="15.111" height="2.869" transform="translate(52.806 69.991)"/><rect class="t" width="29.362" height="2.869" transform="translate(17.37 74.965)"/><rect class="u" width="18.412" height="2.869" transform="translate(49.505 74.965)"/><rect class="v" width="21.663" height="2.869" transform="translate(70.643 74.965)"/><rect class="t" width="20.659" height="2.869" transform="translate(14.644 80.895)"/><rect class="u" width="12.051" height="2.869" transform="translate(37.98 80.895)"/><rect class="v" width="15.111" height="2.869" transform="translate(52.806 80.895)"/><rect class="t" width="29.362" height="2.869" transform="translate(17.37 85.868)"/><rect class="u" width="18.412" height="2.869" transform="translate(49.505 85.868)"/><rect class="v" width="21.663" height="2.869" transform="translate(70.643 85.868)"/><rect class="t" width="35.651" height="2.869" transform="translate(33.318 91.033)"/><rect class="u" width="18.412" height="2.869" transform="translate(33.581 96.771)"/><rect class="v" width="21.663" height="2.869" transform="translate(55.1 96.771)"/><rect class="t" width="11.118" height="2.869" transform="translate(78.725 96.771)"/><rect class="s" width="12.267" height="2.869" transform="translate(71.754 91.033)"/><rect class="t" width="29.362" height="2.869" transform="translate(33.318 103.18)"/><rect class="u" width="18.412" height="2.869" transform="translate(65.43 103.18)"/><rect class="v" width="21.663" height="2.869" transform="translate(86.591 103.18)"/><rect class="t" width="6.838" height="2.869" transform="translate(110.789 103.18)"/><rect class="w" width="3.347" height="3.348" transform="translate(14.333 113.604)"/><rect class="w" width="3.347" height="3.348" transform="translate(14.333 119.151)"/><rect class="w" width="5.547" height="3.635" transform="translate(14.333 125.081)"/><rect class="w" width="5.547" height="3.443" transform="translate(14.333 130.629)"/><rect class="u" width="13.582" height="3.348" transform="translate(31.787 113.604)"/><rect class="s" width="33.81" height="3.348" transform="translate(50.031 113.604)"/><rect class="v" width="34.432" height="3.443" transform="translate(40.204 122.5)"/><rect class="t" width="31.24" height="3.443" transform="translate(64.82 130.629)"/><rect class="u" width="18.699" height="3.443" transform="translate(27.77 130.629)"/><rect class="t" width="22.524" height="3.348" transform="translate(85.73 119.151)"/><rect class="w" width="5.547" height="3.443" transform="translate(14.333 13.607)"/></g><text class="x" transform="translate(458.85 4822.621)"><tspan x="-73.416" y="0">Hack Begins</tspan></text><text class="l" transform="translate(453.814 4858.555)"><tspan x="-72.264" y="0">12:00 PM Onwards</tspan></text><g transform="translate(638.642 4720.621)"><ellipse class="y" cx="136.5" cy="84.5" rx="136.5" ry="84.5" transform="translate(0.208 0)"/><g transform="translate(17.397 5.629)"><path class="z" d="M221.454,214.767s5.88,26.7,5.145,27.328-5.684.126-5.684.126Z" transform="translate(-178.724 -142.184)"/><path class="aa" d="M232.745,196.91l2.7,32.219,19.737-7.254-2.7-32.726Z" transform="translate(-184.692 -129.261)"/><path class="ab" d="M140.04,312.5s2.447-8.369,14.719-7.231,36.816-.885,36.816-.885l1.9,9.489S173.946,322.242,140.04,312.5Z" transform="translate(-137.871 -187.394)"/><path class="ac" d="M139.721,319.959l-.253,28.593s2.024,7.591,9.489,7.717,17.965,0,17.965,0l21.129-.632s8.35-5.694,7.338-8.477l.253-13.284-2.4-12.146S161.862,328.182,139.721,319.959Z" transform="translate(-137.636 -195.251)"/><path class="ad" d="M191.6,104.176s2.868,14.676-11.977,20.243l2.193,8.435-8.1,6.241-7.928-8.1-.843-6.242-5.735-11.133,16.7-13.664,15.266,4.259Z" transform="translate(-147.597 -84.266)"/><path class="d" d="M155.551,161.392s-9.615,4.611-9.615,12.98v40.817l37.955-.342V170.956s-1.687-11.272-11.133-10.76c0,0-2.7,9.735-10.627.512A24.813,24.813,0,0,0,155.551,161.392Z" transform="translate(-140.899 -114.646)"/><path class="ae" d="M156.611,188.8s4.386-5.4,16.025,8.772c0,0,2.53,10.628,18.724,14.338l6.41,1.181s10.627-8.434,10.627-2.362-7.928,6.917-7.928,6.917l-.168,1.687s-16.869,2.193-24.966-4.048S151.887,196.563,156.611,188.8Z" transform="translate(-145.838 -128.577)"/><path class="af" d="M156.833,108.273s1.349,13.158,3.374,13.327c0,0-39.3-15.688-18.218-40.823s37.449-4.555,37.449-4.555,5.735,9.447,2.868,10.965-11.133,3.711-19.568-.337c0,0-7.928,5.4-7.928,7.422,0,0-6.916.506-3.205,6.41C151.6,100.683,151.941,108.442,156.833,108.273Z" transform="translate(-135.771 -68.29)"/><path class="a" d="M200.232,136.268s8.266-.674,11.977-12.82l-.168,17.206s-3.542,3.542-6.242,2.362a18.945,18.945,0,0,0-5.735-1.349Z" transform="translate(-168.205 -96.116)"/><path class="ag" d="M145.936,269.831h51.45s16.025,1.856,13.158,18.218l-20.918,36.268s14.845,0,13.664,9.278l-32.388.169-.506-9.278,22.1-36.268H158.588S145.936,284,145.936,269.831Z" transform="translate(-140.899 -169.963)"/><path class="ah" d="M178.277,148.98l.253,1.286s10.29-.021,10.712-1.118C189.241,149.148,179.1,149.845,178.277,148.98Z" transform="translate(-157.214 -108.996)"/><path d="M257.681,148.384" transform="translate(-197.272 -108.695)"/></g><g transform="translate(185.498 5.63)"><path class="z" d="M226.124,214.767s-5.88,26.7-5.145,27.328,5.684.126,5.684.126Z" transform="translate(-198.365 -142.184)"/><path class="aa" d="M255.18,196.91l-2.7,32.219-19.737-7.254,2.7-32.726Z" transform="translate(-232.745 -129.261)"/><path class="ai" d="M193.5,312.1s-2.53-7.97-14.8-6.832-36.816-.885-36.816-.885l-1.9,9.489S159.589,321.843,193.5,312.1Z" transform="translate(-125.092 -187.394)"/><path class="aj" d="M195.388,319.959l.253,28.593s-2.024,7.591-9.489,7.717-17.965,0-17.965,0l-21.129-.632s-8.35-5.694-7.338-8.477l-.253-13.284,2.4-12.146S173.248,328.182,195.388,319.959Z" transform="translate(-126.985 -195.251)"/><path class="z" d="M159.436,104.176s-2.868,14.676,11.977,20.243l-2.193,8.435,8.1,6.241,7.928-8.1.843-6.242,5.735-11.133-16.7-13.664-15.266,4.259Z" transform="translate(-132.951 -84.266)"/><path class="ak" d="M174.276,161.392s9.615,4.611,9.615,12.98v40.817l-37.955-.342V170.956s1.687-11.272,11.133-10.76c0,0,2.7,9.735,10.627.512A24.813,24.813,0,0,1,174.276,161.392Z" transform="translate(-118.44 -114.646)"/><path class="z" d="M207.513,188.8s-4.386-5.4-16.025,8.772c0,0-2.53,10.628-18.724,14.338l-6.41,1.181s-10.628-8.434-10.628-2.362,7.928,6.917,7.928,6.917l.169,1.687s16.869,2.193,24.966-4.048S212.236,196.563,207.513,188.8Z" transform="translate(-147.798 -128.577)"/><path class="al" d="M162.045,108.273s-1.349,13.158-3.374,13.327c0,0,39.3-15.688,18.218-40.823s-37.449-4.555-37.449-4.555-5.735,9.447-2.868,10.965,11.133,3.711,19.568-.337c0,0,7.928,5.4,7.928,7.422,0,0,6.916.506,3.205,6.41C167.275,100.683,166.938,108.442,162.045,108.273Z" transform="translate(-112.62 -68.29)"/><path class="a" d="M212.041,136.268s-8.266-.674-11.977-12.82l.168,17.206s3.542,3.542,6.242,2.362a18.945,18.945,0,0,1,5.735-1.349Z" transform="translate(-173.58 -96.116)"/><path class="am" d="M210.887,269.831h-51.45s-16.025,1.856-13.158,18.218L167.2,324.317s-14.845,0-13.664,9.278l32.388.169.506-9.278-22.1-36.268h33.907S210.887,284,210.887,269.831Z" transform="translate(-145.436 -169.963)"/><path class="ah" d="M189.241,148.98l-.253,1.286s-10.29-.021-10.712-1.118C178.277,149.148,188.419,149.845,189.241,148.98Z" transform="translate(-139.816 -108.996)"/><path d="M257.681,148.384" transform="translate(-247.602 -108.695)"/></g></g><text class="x" transform="translate(763.051 5047.424)"><tspan x="-117.449" y="0" xml:space="preserve">Ice Breaker  Session</tspan></text><text class="an" transform="translate(764.85 5084.621)"><tspan x="-66.259" y="0">6:00 PM Around</tspan></text><g transform="translate(975.579 5012.042)"><path class="c" d="M350.365,157.577H324.747v7.278h25.618Zm-47.576-14.557h47.576v-7.278h10.979v85.884l-18.3-16.74c-.732-.728,1.1,0,0,0H312.378c-1.1-2.911-36.523-1.637-38.718-3.456.706-.562-.458-1.273,0-2.033.785-.969,0-.717,0-4.829,0-9.1,39.186-12.157,31.258-17.985h-48.6V143.021l-35.556,42.526,6.134-72.3,24.663,4.066,43.916,25.708Z" transform="translate(-150.429 -95.712)"/><g transform="translate(115.62 18.48)"><rect class="s" width="25.588" height="7.108" transform="translate(58.799 44.068)"/><rect class="s" width="48.332" height="8.529" transform="translate(36.055 21.323)"/><rect class="s" width="58.283" height="7.108"/><rect class="s" width="29.142" height="8.529" transform="translate(0 21.323)"/><rect class="s" width="14.215" height="7.108" transform="translate(70.172)"/></g><path class="ao" d="M215.716,146.329c5.095,0,9.1,3.427,9.1,7.789s-4,7.789-9.1,7.789H184.783v6.231h30.933c5.095,0,9.1,3.427,9.1,7.789s-4,7.789-9.1,7.789H184.783v6.231h30.933c5.095,0,9.1,3.427,9.1,7.789s-4,7.789-9.1,7.789H184.783v6.231h30.933c5.095,0,9.1,3.427,9.1,7.789s-4,7.789-9.1,7.789H135.291l-9.826-8.412a3.584,3.584,0,0,0-2.547-.935H112v-59.2h14.557a3.834,3.834,0,0,0,2.911-1.558l14.557-18.693c.364-.623.728-.935.728-1.558V111.435a9.407,9.407,0,0,1,4.731-7.789,12.762,12.762,0,0,1,10.19-1.246c4.367,1.246,7.278,4.985,7.278,8.724v32.09c0,1.558,1.82,3.116,3.639,3.116Z" transform="translate(-60.308 -66.112)"/><path class="ap" d="M279.037,66.917H264.481V74.2h14.557Zm-25.474,0H195.337V74.2h58.226ZM231.728,88.752v7.278H224.45V88.752H195.337v7.278H191.7V88.025a18.236,18.236,0,0,0-11.645-17.1,17.29,17.29,0,0,0-16.74,2.183c-5.095,3.275-7.642,9.1-7.642,14.921v28.749l-5.823,22.418-1.94,2.4h-3.155V61.095c-.364-2.547,1.82-5.095,5.095-5.095H284.86a5.479,5.479,0,0,1,5.095,5.095V88.752H231.728Z" transform="translate(-79.831 -48.722)"/><rect class="aq" width="36.96" height="86.714" transform="translate(17.781 78.398)"/><path class="a" d="M43.481,211.04V123.7H7.247v87.34Zm110.513-98.257A16.273,16.273,0,0,1,170.3,129.159a16.623,16.623,0,0,1-6.16,12.737,17.58,17.58,0,0,1,5.073,7.278h22.827a3.283,3.283,0,0,1,2.536,1.092l15.581,15.648V52.373a5.531,5.531,0,0,0-5.435-5.095H70.656a5.278,5.278,0,0,0-5.435,5.095v72.055l10.87-16.376V79.3A18.47,18.47,0,0,1,83.7,64.382,19.427,19.427,0,0,1,100.368,62.2a18.235,18.235,0,0,1,11.595,17.1v33.48Zm16.305,92.8a16.273,16.273,0,0,1-16.305,16.376H72.468a3.283,3.283,0,0,1-2.536-1.092l-9.783-9.826H50.727v3.639a3.639,3.639,0,0,1-3.623,3.639H3.623A3.905,3.905,0,0,1,0,214.679V120.061a3.905,3.905,0,0,1,3.623-3.639H47.1a3.639,3.639,0,0,1,3.623,3.639v7.278h7.247V52.373A12.556,12.556,0,0,1,70.656,40H205.083A12.477,12.477,0,0,1,217.4,52.373V174.649a3.183,3.183,0,0,1-2.174,3.275,2.171,2.171,0,0,1-1.449.364,3.283,3.283,0,0,1-2.536-1.092L190.59,156.453H170.3a15.961,15.961,0,0,1-6.16,10.917,16.249,16.249,0,0,1,0,25.474A16.623,16.623,0,0,1,170.3,205.581Zm-16.305-67.324a9.1,9.1,0,0,0,0-18.2H108.7a3.905,3.905,0,0,1-3.623-3.639V79.3a10.943,10.943,0,0,0-7.247-10.19c-3.261-1.456-6.884-.728-10.145,1.456a11.4,11.4,0,0,0-4.71,9.1v29.477a2.786,2.786,0,0,1-.725,1.82L67.757,132.8a2.726,2.726,0,0,1-2.536,1.82H50.727v69.144H61.6a3.283,3.283,0,0,1,2.536,1.092l9.783,9.826h80.077a9.1,9.1,0,0,0,0-18.2h-30.8v-7.278h30.8a9.1,9.1,0,0,0,0-18.2h-30.8v-7.278h30.8a9.1,9.1,0,0,0,0-18.2h-30.8v-7.278h30.8Z" transform="translate(0 -40)"/></g><text class="x" transform="translate(1071.85 4818.621)"><tspan x="-49.45" y="0">Review 1</tspan></text><text class="an" transform="translate(1068.85 4855.621)"><tspan x="-82.295" y="0">09:00 pm : 11:00 pm </tspan></text><g transform="translate(1247.792 4726.759)"><ellipse class="ar" cx="134.558" cy="20.841" rx="134.558" ry="20.841" transform="translate(0 126.042)"/><g transform="translate(18.221 0)"><path class="as" d="M462.637,301.348s-11.792,1.371-17,20.02-22.488,77.884-22.488,77.884c-.447,2.5-2.779,16.852,6.342,27.181,13.075,14.806,36.9,6.886,39.73,5.9,20.844-7.274,28.091-27.943,29.069-30.887,0,0,37.3-19.471,78.433-.274,18.96,25.1,42.213,37.734,59.41,31.871,7.923-2.7,12.657-8.826,14.909-11.852C668.593,397.606,629.1,311.769,629.1,311.769s-7.4-9.6-14.26-8.776l-2.468-9.873s-.274-3.931-5.394-4.845l-23.4-6.947c.007-.593-4.745-1.154-6.033,1.646-1,2.165-6.947,6.4-6.947,6.4l-62.162.183L496.917,280.6l-30.349,8.959Z" transform="translate(-422.552 -280.094)"/><path class="at" d="M497.191,301.348l45.8-11.792L531.471,280.6l-30.349,8.958Z" transform="translate(-457.106 -280.094)"/><path class="at" d="M698.213,288.939l9.964-9.279,31.812,10.147,2.468,12.752Z" transform="translate(-550.168 -279.661)"/><circle class="at" cx="35.377" cy="35.377" r="35.377" transform="translate(27.333 26.19)"/><circle class="o" cx="27.15" cy="27.15" r="27.15" transform="translate(35.561 34.417)"/><circle class="h" cx="8.296" cy="8.296" r="8.296" transform="translate(54.415 53.271)"/><circle class="at" cx="35.377" cy="35.377" r="35.377" transform="translate(135.145 26.647)"/><rect class="o" width="20.477" height="60.333" transform="translate(159.837 31.858)"/><rect class="o" width="60.333" height="19.837" transform="translate(139.909 51.877)"/><path class="h" d="M733.151,345.278l-5.33,9.232h10.66Z" transform="translate(-562.77 -305.132)"/><path class="h" d="M777.141,388.235l-9.232-5.33v10.66Z" transform="translate(-585.409 -326.38)"/><path class="h" d="M733.151,433.823l5.33-9.232h-10.66Z" transform="translate(-562.77 -349.921)"/><path class="h" d="M688.754,388.235l9.232,5.33v-10.66Z" transform="translate(-540.709 -326.38)"/><rect class="au" width="11.743" height="11.743" rx="4" transform="translate(110.621 86.319)"/><path class="au" d="M638.638,294.725" transform="translate(-522.588 -286.635)"/><path class="av" d="M423.45,369.928s-6.254,49.68,46.228,33.383S423.45,369.928,423.45,369.928Z" transform="translate(-423.218 -251.359)"/><path class="av" d="M482.972,369.928s6.066,49.68-44.841,33.383S482.972,369.928,482.972,369.928Z" transform="translate(-250.212 -252.674)"/></g><g class="aw" transform="translate(63.428 43.586)"><circle class="az" cx="17.669" cy="17.669" r="17.669"/><circle class="a" cx="17.669" cy="17.669" r="17.169"/></g></g><text class="ax" transform="translate(1381.85 5048.621)"><tspan x="-73.98" y="0">Game Night</tspan></text><text class="ay" transform="translate(1381.85 5085.621)"><tspan x="-71.348" y="0">11:00 pm Around</tspan></text><path class="c" d="M19.5,0,39,35H0Z" transform="translate(177.85 4999.621) rotate(180)"/><path class="d" d="M20,0,40,35H0Z" transform="translate(789.85 4999.621) rotate(180)"/><path class="b" d="M20.5,0,41,35H0Z" transform="translate(1402.85 4999.621) rotate(180)"/><path class="b" d="M20.5,0,41,35H0Z" transform="translate(443.85 4900.621)"/><path class="c" d="M20.5,0,41,35H0Z" transform="translate(1054.85 4900.621)"/></g></svg>