<svg xmlns="http://www.w3.org/2000/svg" xmlns:xlink="http://www.w3.org/1999/xlink" width="2020" height="683" viewBox="0 0 2020 683">
  <defs>
    <style>
      .cls-1, .cls-46 {
        fill: none;
      }

      .cls-2 {
        clip-path: url(#clip-Artboard_1);
      }

      .cls-3 {
        fill: #fc257e;
      }

      .cls-38, .cls-4 {
        fill: #a41be4;
      }

      .cls-5 {
        fill: #f78d1d;
      }

      .cls-6 {
        fill: #a3a3a3;
      }

      .cls-7 {
        fill: #848484;
      }

      .cls-8 {
        fill: #7a0e9a;
      }

      .cls-9 {
        fill: #cecece;
      }

      .cls-10 {
        fill: #030303;
      }

      .cls-11 {
        fill: #9c9c9c;
      }

      .cls-12 {
        clip-path: url(#clip-path);
      }

      .cls-13 {
        fill: #161615;
      }

      .cls-14 {
        fill: #292929;
      }

      .cls-15 {
        fill: #dc002f;
      }

      .cls-16 {
        fill: #92bc5a;
      }

      .cls-17 {
        fill: #89cfe7;
      }

      .cls-18 {
        fill: #fff;
      }

      .cls-19 {
        fill: #dc176b;
      }

      .cls-20 {
        fill: #563483;
      }

      .cls-21 {
        fill: #f89106;
      }

      .cls-22 {
        fill: #d5d5d5;
      }

      .cls-23 {
        fill: #ffdbbb;
      }

      .cls-24 {
        fill: #fdb797;
      }

      .cls-25 {
        fill: #d8d8d8;
      }

      .cls-26 {
        fill: #ffce7a;
      }

      .cls-27 {
        fill: #ff9113;
      }

      .cls-28 {
        fill: #ffce9e;
      }

      .cls-29 {
        fill: #ffe1c4;
      }

      .cls-30 {
        fill: #ff8000;
      }

      .cls-31 {
        fill: #070707;
      }

      .cls-32 {
        opacity: 0.11;
      }

      .cls-33 {
        fill: #ffabcf;
      }

      .cls-34 {
        fill: #de0b5f;
      }

      .cls-35 {
        fill: #ff70a9;
      }

      .cls-36 {
        fill: #fd3585;
      }

      .cls-37 {
        fill: #0e0d15;
      }

      .cls-38 {
        stroke: #a41be4;
      }

      .cls-39 {
        fill: #d5abff;
      }

      .cls-40 {
        fill: #ffd8b1;
      }

      .cls-41 {
        fill: url(#radial-gradient);
      }

      .cls-42 {
        fill: #ffabce;
      }

      .cls-43 {
        fill: #ff6daa;
      }

      .cls-44 {
        fill: #383838;
      }

      .cls-45 {
        fill: #fbfbfb;
        opacity: 0.45;
      }

      .cls-46 {
        stroke: #707070;
        stroke-dasharray: 3;
      }

      .cls-47 {
        stroke: none;
      }
    </style>
    <clipPath id="clip-path">
      <rect id="Rectangle_138" data-name="Rectangle 138" class="cls-1" width="284.239" height="179.561"/>
    </clipPath>
    <radialGradient id="radial-gradient" cx="0.5" cy="0.5" r="0.5" gradientUnits="objectBoundingBox">
      <stop offset="0" stop-color="#fff2f9"/>
      <stop offset="1" stop-color="#ffdff1"/>
    </radialGradient>
    <clipPath id="clip-Artboard_1">
      <rect width="2020" height="683"/>
    </clipPath>
  </defs>
  <g id="Artboard_1" data-name="Artboard – 1" class="cls-2">
    <path id="Path_361" data-name="Path 361" class="cls-3" d="M0,0H381V60H0Z" transform="translate(414.413 313.958)"/>
    <path id="Path_362" data-name="Path 362" class="cls-4" d="M30,0,60,52.174H0Z" transform="translate(466.587 313.958) rotate(90)"/>
    <path id="Path_353" data-name="Path 353" class="cls-5" d="M0,0H377V60H0Z" transform="translate(791.413 313.958)"/>
    <path id="Path_363" data-name="Path 363" class="cls-3" d="M30,0,60,52.174H0Z" transform="translate(843.587 313.958) rotate(90)"/>
    <path id="Path_354" data-name="Path 354" class="cls-4" d="M0,0H377V60H0Z" transform="translate(1168.413 313.958)"/>
    <path id="Path_355" data-name="Path 355" class="cls-5" d="M30,0,60,52.174H0Z" transform="translate(1220.587 313.958) rotate(90)"/>
    <path id="Path_356" data-name="Path 356" class="cls-3" d="M0,0H377V60H0Z" transform="translate(1545.413 313.958)"/>
    <path id="Path_357" data-name="Path 357" class="cls-4" d="M30,0,60,52.174H0Z" transform="translate(1597.587 313.958) rotate(90)"/>
    <path id="Path_364" data-name="Path 364" class="cls-4" d="M0,0H369V60H0Z" transform="translate(45.413 313.958)"/>
    <g id="Group_30" data-name="Group 30" transform="translate(16.282 43.518)">
      <g id="Group_63" data-name="Group 63" transform="translate(0 31)">
        <path id="Path_178" data-name="Path 178" class="cls-1" d="M304.461,117.361a2.054,2.054,0,0,0-.122,2.775,1.8,1.8,0,0,0,1.366.641,1.775,1.775,0,0,0,1.244-.515c13.05-12.655,28.028-31.107,28.028-61.737a1.964,1.964,0,0,0-1.166-1.828,1.793,1.793,0,0,0-2.027.483l-40.315,45.77a2.048,2.048,0,0,0,.086,2.774,1.77,1.77,0,0,0,2.61-.086l36.969-41.974C329.561,89.721,316.2,105.976,304.461,117.361Z" transform="translate(-56.626 -0.001)"/>
        <path id="Path_179" data-name="Path 179" class="cls-6" d="M314.6,62.367s-.875,29.22-20.355,47.518-30.592,28.308-30.592,28.308-6.429,5.176-7.128,13.552-.679,32.431-26.784,27.7c0,0-20.724-6.5-15.025-28.762,0,0,4.223-13.5,20.361-14.01s20.739-6.707,20.739-6.707Z" transform="translate(-38.924 -1.331)"/>
        <path id="Path_180" data-name="Path 180" class="cls-7" d="M224.014,182.481c0,7.585,5.8,13.755,12.921,13.755s12.921-6.17,12.921-13.755-5.8-13.755-12.921-13.755S224.014,174.9,224.014,182.481Zm22.151,0c0,5.42-4.142,9.825-9.23,9.825s-9.229-4.405-9.229-9.825,4.142-9.826,9.229-9.826S246.165,177.062,246.165,182.481Z" transform="translate(-41.281 -25.706)"/>
        <path id="Path_181" data-name="Path 181" class="cls-1" d="M249.928,151.771a2.009,2.009,0,0,0,1.055-2.539,1.806,1.806,0,0,0-2.388-1.12c-.779.322-1.621.719-2.525,1.148-3.116,1.474-7,3.313-11.689,3.313-14.331,0-24.735,10.246-24.735,24.366,0,14.518,11.1,26.331,24.735,26.331,10.426,0,17.544-4.959,21.114-14.627,1.868-4.264,2.145-13.6,2.145-18.778,0-1.058,2.813-3.313,4.5-4.661a30.362,30.362,0,0,0,4.268-3.859,2.06,2.06,0,0,0-.155-2.775,1.769,1.769,0,0,0-2.606.165,27.682,27.682,0,0,1-3.729,3.333c-3.068,2.46-5.966,4.779-5.966,7.8,0,8.143-.671,14.545-1.842,17.229-3.046,8.237-8.845,12.246-17.724,12.246-11.6,0-21.043-10.049-21.043-22.4,0-11.845,8.85-20.436,21.043-20.436,5.479,0,9.935-2.115,13.191-3.659C248.414,152.444,249.2,152.074,249.928,151.771Z" transform="translate(-37.989 -20.95)"/>
      </g>
      <g id="Group_28" data-name="Group 28" transform="translate(43.886 99.278)">
        <path id="Path_182" data-name="Path 182" class="cls-8" d="M104.8,182.646l24.373,13.186V182.646Z" transform="translate(-57.847 -128.174)"/>
        <path id="Path_183" data-name="Path 183" class="cls-4" d="M74.425,173.306V141.892H43.886l26.3,22.715-26.3,22.715h55.5Z" transform="translate(-43.886 -118.834)"/>
        <path id="Path_184" data-name="Path 184" class="cls-8" d="M428.431,182.646v13.029l24.082-13.029Z" transform="translate(-132.015 -128.174)"/>
        <path id="Path_185" data-name="Path 185" class="cls-4" d="M504.38,141.892H473.551v31.414L448.59,187.322h55.79l-26.3-22.715Z" transform="translate(-136.635 -118.834)"/>
        <rect id="Rectangle_82" data-name="Rectangle 82" class="cls-4" width="288.245" height="45.773" transform="translate(39.239)"/>
      </g>
      <g id="Group_29" data-name="Group 29" transform="translate(183.102 56.561)">
        <path id="Path_186" data-name="Path 186" class="cls-1" d="M282.2,150.684c0,5.7,1.318,12.855,3.086,16.9,3.618,9.774,10.736,14.734,21.161,14.734,13.637,0,24.736-11.814,24.736-26.331,0-14.121-10.4-24.366-24.736-24.366-16.292,0-21.608-9.319-21.819-9.7a2.055,2.055,0,0,0-.258-.374L227.687,57.179a1.781,1.781,0,0,0-2.027-.483,1.971,1.971,0,0,0-1.167,1.828c0,37.929,23.761,57.831,41.109,72.356C274.879,138.65,282.2,144.781,282.2,150.684ZM228.347,63.676l53.207,60.413c.99,1.667,7.546,11.464,24.9,11.464,12.194,0,21.043,8.595,21.043,20.436,0,12.356-9.44,22.4-21.043,22.4-8.878,0-14.679-4.009-17.768-12.356a44.336,44.336,0,0,1-2.788-15.351c0-7.809-7.948-14.467-18.008-22.893C251.949,114.444,230.408,96.409,228.347,63.676Z" transform="translate(-224.493 -56.561)"/>
      </g>
      <g id="Group_62" data-name="Group 62" transform="translate(0 31)">
        <path id="Path_187" data-name="Path 187" class="cls-9" d="M227.97,64.234s1.154,29.016,20.774,47.007,30.806,27.827,30.806,27.827,6.466,5.081,7.245,13.394.988,32.207,27,27.262c0,0,20.623-6.654,14.721-28.712,0,0-4.344-13.373-20.457-13.723s-20.765-6.464-20.765-6.464Z" transform="translate(-42.188 -1.759)"/>
        <path id="Path_191" data-name="Path 191" class="cls-10" d="M2.976,0A3.076,3.076,0,0,1,5.951,3.168,3.076,3.076,0,0,1,2.976,6.335,3.076,3.076,0,0,1,0,3.168,3.076,3.076,0,0,1,2.976,0Z" transform="translate(227.751 120.139)"/>
        <path id="Path_188" data-name="Path 188" class="cls-11" d="M327.935,196.237c7.125,0,12.921-6.17,12.921-13.755s-5.8-13.755-12.921-13.755-12.921,6.17-12.921,13.755S320.81,196.237,327.935,196.237Zm0-23.581c5.087,0,9.23,4.406,9.23,9.826s-4.142,9.825-9.23,9.825-9.23-4.405-9.23-9.825S322.848,172.656,327.935,172.656Z" transform="translate(-62.136 -25.706)"/>
      </g>
    </g>
    <path id="Path_341" data-name="Path 341" d="M12.58,10.43a10.957,10.957,0,0,1,5.475,1.4,10.179,10.179,0,0,1,3.9,3.885,11.091,11.091,0,0,1,1.425,5.61,11,11,0,0,1-1.44,5.61,10.286,10.286,0,0,1-3.915,3.885A10.9,10.9,0,0,1,12.58,32.21a10.982,10.982,0,0,1-5.46-1.395A10.256,10.256,0,0,1,3.19,26.93a11,11,0,0,1-1.44-5.61,11,11,0,0,1,1.44-5.61,10.256,10.256,0,0,1,3.93-3.885A10.982,10.982,0,0,1,12.58,10.43Zm0,5.46a4.488,4.488,0,0,0-3.54,1.455A5.779,5.779,0,0,0,7.75,21.32a5.745,5.745,0,0,0,1.29,3.93,4.466,4.466,0,0,0,3.54,1.47,4.43,4.43,0,0,0,3.51-1.47,5.745,5.745,0,0,0,1.29-3.93,5.823,5.823,0,0,0-1.275-3.975A4.442,4.442,0,0,0,12.58,15.89Zm24.33-.93a6.6,6.6,0,0,1,3.63,1.035,7.02,7.02,0,0,1,2.55,2.985,10.562,10.562,0,0,1,.93,4.59,10.662,10.662,0,0,1-.93,4.6,7.005,7.005,0,0,1-2.55,3,6.6,6.6,0,0,1-3.63,1.035,5.89,5.89,0,0,1-3.06-.765,4.736,4.736,0,0,1-1.92-2.115V40.04H26.02V15.17h5.91v2.67a4.737,4.737,0,0,1,1.92-2.115A5.89,5.89,0,0,1,36.91,14.96Zm-1.95,5.16a2.872,2.872,0,0,0-2.19.93,3.541,3.541,0,0,0-.87,2.52,3.585,3.585,0,0,0,.87,2.55,2.872,2.872,0,0,0,2.19.93,2.917,2.917,0,0,0,2.235-.915,3.613,3.613,0,0,0,.855-2.565,3.568,3.568,0,0,0-.855-2.535A2.917,2.917,0,0,0,34.96,20.12Zm27.6,3.15a7.076,7.076,0,0,1-.15,1.38H51.28q.15,2.85,2.49,2.85a2.363,2.363,0,0,0,1.44-.42,2.1,2.1,0,0,0,.78-1.11h6.24a7.137,7.137,0,0,1-1.47,3.2A7.889,7.889,0,0,1,57.88,31.4a8.916,8.916,0,0,1-3.81.81,9.3,9.3,0,0,1-4.455-1.035,7.323,7.323,0,0,1-3.015-3,9.412,9.412,0,0,1-1.08-4.6,9.326,9.326,0,0,1,1.08-4.59,7.323,7.323,0,0,1,3.03-2.985,10.107,10.107,0,0,1,8.88-.015A7.276,7.276,0,0,1,61.5,18.89,8.77,8.77,0,0,1,62.56,23.27Zm-6-1.08a2.433,2.433,0,0,0-.69-1.95,2.563,2.563,0,0,0-1.8-.66,2.743,2.743,0,0,0-1.9.66,2.864,2.864,0,0,0-.855,1.95Zm19.62-7.17a5.673,5.673,0,0,1,4.56,1.935,7.85,7.85,0,0,1,1.65,5.265V32H76.54V22.97a3.246,3.246,0,0,0-.765-2.3,2.667,2.667,0,0,0-2.055-.825,2.7,2.7,0,0,0-2.1.855,3.364,3.364,0,0,0-.78,2.355V32H64.93V15.17h5.91v2.82a5.446,5.446,0,0,1,2.1-2.16A6.284,6.284,0,0,1,76.18,15.02Zm8.88-4.5a2.784,2.784,0,0,1,.96-2.175,3.647,3.647,0,0,1,2.52-.855,3.535,3.535,0,0,1,2.49.855,2.825,2.825,0,0,1,.93,2.175,2.693,2.693,0,0,1-.945,2.1,3.586,3.586,0,0,1-2.475.84,3.688,3.688,0,0,1-2.52-.84A2.675,2.675,0,0,1,85.06,10.52Zm6.39,4.65V32H85.54V15.17Zm14.52-.15a5.673,5.673,0,0,1,4.56,1.935,7.85,7.85,0,0,1,1.65,5.265V32h-5.85V22.97a3.246,3.246,0,0,0-.765-2.3,2.667,2.667,0,0,0-2.055-.825,2.7,2.7,0,0,0-2.1.855,3.364,3.364,0,0,0-.78,2.355V32H94.72V15.17h5.91v2.82a5.446,5.446,0,0,1,2.1-2.16A6.284,6.284,0,0,1,105.97,15.02Zm15.6-.06a5.971,5.971,0,0,1,3.075.765,4.713,4.713,0,0,1,1.935,2.115V15.17h5.88V31.82a9.814,9.814,0,0,1-.9,4.245,7,7,0,0,1-2.79,3.045A9.106,9.106,0,0,1,124,40.25a9.842,9.842,0,0,1-6.255-1.83,7.215,7.215,0,0,1-2.715-5.01h5.79a2.082,2.082,0,0,0,.9,1.29,3.368,3.368,0,0,0,1.86.45q3,0,3-3.33V29.33a4.713,4.713,0,0,1-1.935,2.115,5.971,5.971,0,0,1-3.075.765,6.6,6.6,0,0,1-3.63-1.035,7.005,7.005,0,0,1-2.55-3,10.662,10.662,0,0,1-.93-4.6,10.562,10.562,0,0,1,.93-4.59,7.02,7.02,0,0,1,2.55-2.985A6.6,6.6,0,0,1,121.57,14.96Zm1.95,5.16a2.917,2.917,0,0,0-2.235.915,3.568,3.568,0,0,0-.855,2.535,3.613,3.613,0,0,0,.855,2.565,2.917,2.917,0,0,0,2.235.915,2.872,2.872,0,0,0,2.19-.93,3.585,3.585,0,0,0,.87-2.55,3.541,3.541,0,0,0-.87-2.52A2.872,2.872,0,0,0,123.52,20.12Zm27.54-9.57a11.36,11.36,0,0,1,4.875,1.005,8.96,8.96,0,0,1,3.5,2.85,10.622,10.622,0,0,1,1.83,4.275h-6.21a4.131,4.131,0,0,0-1.59-1.965,4.452,4.452,0,0,0-2.49-.705,3.885,3.885,0,0,0-3.15,1.455,5.916,5.916,0,0,0-1.2,3.885,5.977,5.977,0,0,0,1.2,3.9,3.869,3.869,0,0,0,3.15,1.47,4.384,4.384,0,0,0,2.49-.72,4.217,4.217,0,0,0,1.59-1.98h6.21a9.8,9.8,0,0,1-3.4,5.925,10.353,10.353,0,0,1-6.8,2.205,10.782,10.782,0,0,1-5.5-1.365,9.237,9.237,0,0,1-3.63-3.825,12.014,12.014,0,0,1-1.275-5.61,12.014,12.014,0,0,1,1.275-5.61,9.237,9.237,0,0,1,3.63-3.825A10.782,10.782,0,0,1,151.06,10.55Zm29.01,12.72a7.076,7.076,0,0,1-.15,1.38H168.79q.15,2.85,2.49,2.85a2.363,2.363,0,0,0,1.44-.42,2.1,2.1,0,0,0,.78-1.11h6.24a7.137,7.137,0,0,1-1.47,3.2,7.889,7.889,0,0,1-2.88,2.235,8.916,8.916,0,0,1-3.81.81,9.3,9.3,0,0,1-4.455-1.035,7.323,7.323,0,0,1-3.015-3,9.412,9.412,0,0,1-1.08-4.6,9.326,9.326,0,0,1,1.08-4.59,7.323,7.323,0,0,1,3.03-2.985,10.107,10.107,0,0,1,8.88-.015,7.276,7.276,0,0,1,2.985,2.91A8.77,8.77,0,0,1,180.07,23.27Zm-6-1.08a2.432,2.432,0,0,0-.69-1.95,2.563,2.563,0,0,0-1.8-.66,2.743,2.743,0,0,0-1.9.66,2.864,2.864,0,0,0-.855,1.95Zm14.28-3.87a7.707,7.707,0,0,1,2.49-2.4,6.082,6.082,0,0,1,3.18-.9v6.3h-1.71a4.814,4.814,0,0,0-2.97.765,3.162,3.162,0,0,0-.99,2.655V32h-5.91V15.17h5.91Zm23.79,4.95a7.077,7.077,0,0,1-.15,1.38H200.86q.15,2.85,2.49,2.85a2.363,2.363,0,0,0,1.44-.42,2.1,2.1,0,0,0,.78-1.11h6.24a7.137,7.137,0,0,1-1.47,3.2,7.889,7.889,0,0,1-2.88,2.235,8.916,8.916,0,0,1-3.81.81,9.3,9.3,0,0,1-4.455-1.035,7.323,7.323,0,0,1-3.015-3,9.412,9.412,0,0,1-1.08-4.6,9.326,9.326,0,0,1,1.08-4.59,7.323,7.323,0,0,1,3.03-2.985,10.107,10.107,0,0,1,8.88-.015,7.276,7.276,0,0,1,2.985,2.91A8.77,8.77,0,0,1,212.14,23.27Zm-6-1.08a2.432,2.432,0,0,0-.69-1.95,2.563,2.563,0,0,0-1.8-.66,2.743,2.743,0,0,0-1.9.66,2.864,2.864,0,0,0-.855,1.95Zm30.51-7.17a6.445,6.445,0,0,1,4.965,1.92,7.452,7.452,0,0,1,1.785,5.28V32h-5.88V22.97a2.839,2.839,0,0,0-.75-2.1,2.716,2.716,0,0,0-2.01-.75,2.817,2.817,0,0,0-2.085.765,2.942,2.942,0,0,0-.765,2.175V32h-5.88V22.97a2.839,2.839,0,0,0-.75-2.1,2.716,2.716,0,0,0-2.01-.75,2.817,2.817,0,0,0-2.085.765,2.942,2.942,0,0,0-.765,2.175V32h-5.91V15.17h5.91v2.58a5.276,5.276,0,0,1,2.01-2,6.017,6.017,0,0,1,3.03-.735,6.487,6.487,0,0,1,3.33.84,5.8,5.8,0,0,1,2.25,2.4,6.681,6.681,0,0,1,2.34-2.355A6.218,6.218,0,0,1,236.65,15.02Zm17.82-.06a9.659,9.659,0,0,1,4.515,1.035,7.611,7.611,0,0,1,3.135,3,8.953,8.953,0,0,1,1.14,4.575,8.932,8.932,0,0,1-1.14,4.59,7.739,7.739,0,0,1-3.135,3,10.265,10.265,0,0,1-9.045,0,7.715,7.715,0,0,1-3.15-3,8.932,8.932,0,0,1-1.14-4.59,8.932,8.932,0,0,1,1.14-4.59,7.616,7.616,0,0,1,3.15-2.985A9.75,9.75,0,0,1,254.47,14.96Zm0,5.1a2.627,2.627,0,0,0-2.04.9,3.778,3.778,0,0,0-.81,2.61,3.826,3.826,0,0,0,.81,2.64,2.627,2.627,0,0,0,2.04.9,2.577,2.577,0,0,0,2.01-.915,3.837,3.837,0,0,0,.81-2.625,3.778,3.778,0,0,0-.81-2.61A2.6,2.6,0,0,0,254.47,20.06Zm22.41-5.04a5.673,5.673,0,0,1,4.56,1.935,7.85,7.85,0,0,1,1.65,5.265V32h-5.85V22.97a3.246,3.246,0,0,0-.765-2.3,2.667,2.667,0,0,0-2.055-.825,2.7,2.7,0,0,0-2.1.855,3.364,3.364,0,0,0-.78,2.355V32h-5.91V15.17h5.91v2.82a5.446,5.446,0,0,1,2.1-2.16A6.284,6.284,0,0,1,276.88,15.02Zm14.13.15,3.6,9.42,3.33-9.42h6.54L293.83,40.04h-6.48l4.11-8.76-7.02-16.11Z" transform="translate(93.413 432.958)"/>
    <g id="Group_33" data-name="Group 33" class="cls-12" transform="translate(488.794 425.178)">
      <path id="Path_227" data-name="Path 227" class="cls-13" d="M274.522,179.14H9.8a9.3,9.3,0,0,1-9.3-9.3V9.8A9.3,9.3,0,0,1,9.8.5H274.522a9.3,9.3,0,0,1,9.3,9.3V169.844a9.3,9.3,0,0,1-9.3,9.3" transform="translate(-0.039 -0.039)"/>
      <rect id="Rectangle_84" data-name="Rectangle 84" class="cls-1" width="283.318" height="178.64" rx="10.088" transform="translate(0.46 0.461)"/>
      <path id="Path_228" data-name="Path 228" class="cls-14" d="M269.292,172.218H15.526a6.691,6.691,0,0,1-6.692-6.692V16.841a6.692,6.692,0,0,1,6.692-6.692H269.292a6.692,6.692,0,0,1,6.693,6.692V165.526a6.692,6.692,0,0,1-6.693,6.692" transform="translate(-0.694 -0.797)"/>
      <rect id="Rectangle_85" data-name="Rectangle 85" class="cls-1" width="267.15" height="162.069" rx="7.262" transform="translate(8.14 9.353)"/>
      <path id="Path_229" data-name="Path 229" class="cls-15" d="M292.489,15.907a2.565,2.565,0,1,1-2.565-2.565,2.566,2.566,0,0,1,2.565,2.565" transform="translate(-22.561 -1.048)"/>
      <path id="Path_230" data-name="Path 230" class="cls-16" d="M277.78,15.916a2.469,2.469,0,1,1-2.47-2.468,2.468,2.468,0,0,1,2.47,2.468" transform="translate(-21.421 -1.056)"/>
      <path id="Path_231" data-name="Path 231" class="cls-17" d="M285.036,15.916a2.469,2.469,0,1,1-2.47-2.47,2.469,2.469,0,0,1,2.47,2.47" transform="translate(-21.991 -1.056)"/>
      <rect id="Rectangle_86" data-name="Rectangle 86" class="cls-18" width="14.116" height="2.353" transform="translate(17.687 24.797)"/>
      <rect id="Rectangle_87" data-name="Rectangle 87" class="cls-19" width="25.409" height="3.529" transform="translate(17.688 30.679)"/>
      <rect id="Rectangle_88" data-name="Rectangle 88" class="cls-20" width="14.822" height="3.529" transform="translate(46.391 30.679)"/>
      <rect id="Rectangle_89" data-name="Rectangle 89" class="cls-21" width="18.586" height="3.529" transform="translate(64.625 30.679)"/>
      <rect id="Rectangle_90" data-name="Rectangle 90" class="cls-19" width="36.114" height="3.529" transform="translate(21.04 36.796)"/>
      <rect id="Rectangle_91" data-name="Rectangle 91" class="cls-20" width="22.646" height="3.529" transform="translate(60.566 36.796)"/>
      <rect id="Rectangle_92" data-name="Rectangle 92" class="cls-21" width="26.645" height="3.529" transform="translate(86.564 36.796)"/>
      <rect id="Rectangle_93" data-name="Rectangle 93" class="cls-19" width="8.41" height="3.529" transform="translate(116.326 36.796)"/>
      <rect id="Rectangle_94" data-name="Rectangle 94" class="cls-19" width="25.409" height="3.529" transform="translate(17.688 44.09)"/>
      <rect id="Rectangle_95" data-name="Rectangle 95" class="cls-20" width="14.822" height="3.529" transform="translate(46.391 44.09)"/>
      <rect id="Rectangle_96" data-name="Rectangle 96" class="cls-21" width="18.586" height="3.529" transform="translate(64.625 44.09)"/>
      <rect id="Rectangle_97" data-name="Rectangle 97" class="cls-19" width="36.114" height="3.529" transform="translate(21.04 50.206)"/>
      <rect id="Rectangle_98" data-name="Rectangle 98" class="cls-20" width="22.646" height="3.529" transform="translate(60.566 50.206)"/>
      <rect id="Rectangle_99" data-name="Rectangle 99" class="cls-21" width="26.645" height="3.529" transform="translate(86.564 50.206)"/>
      <rect id="Rectangle_100" data-name="Rectangle 100" class="cls-19" width="8.41" height="3.529" transform="translate(116.326 50.206)"/>
      <rect id="Rectangle_101" data-name="Rectangle 101" class="cls-19" width="43.849" height="3.529" transform="translate(17.364 71.498)"/>
      <rect id="Rectangle_102" data-name="Rectangle 102" class="cls-20" width="22.645" height="3.529" transform="translate(17.688 78.557)"/>
      <rect id="Rectangle_103" data-name="Rectangle 103" class="cls-21" width="26.645" height="3.529" transform="translate(44.156 78.557)"/>
      <rect id="Rectangle_104" data-name="Rectangle 104" class="cls-19" width="13.675" height="3.529" transform="translate(73.212 78.557)"/>
      <rect id="Rectangle_105" data-name="Rectangle 105" class="cls-18" width="15.087" height="3.529" transform="translate(64.64 71.498)"/>
      <rect id="Rectangle_106" data-name="Rectangle 106" class="cls-19" width="25.409" height="3.529" transform="translate(18.011 86.085)"/>
      <rect id="Rectangle_107" data-name="Rectangle 107" class="cls-20" width="14.822" height="3.529" transform="translate(46.714 86.085)"/>
      <rect id="Rectangle_108" data-name="Rectangle 108" class="cls-21" width="18.586" height="3.529" transform="translate(64.948 86.085)"/>
      <rect id="Rectangle_109" data-name="Rectangle 109" class="cls-19" width="36.114" height="3.529" transform="translate(21.364 92.203)"/>
      <rect id="Rectangle_110" data-name="Rectangle 110" class="cls-20" width="22.646" height="3.529" transform="translate(60.889 92.203)"/>
      <rect id="Rectangle_111" data-name="Rectangle 111" class="cls-21" width="26.645" height="3.529" transform="translate(86.887 92.203)"/>
      <rect id="Rectangle_112" data-name="Rectangle 112" class="cls-19" width="25.409" height="3.529" transform="translate(18.011 99.497)"/>
      <rect id="Rectangle_113" data-name="Rectangle 113" class="cls-20" width="14.822" height="3.529" transform="translate(46.714 99.497)"/>
      <rect id="Rectangle_114" data-name="Rectangle 114" class="cls-21" width="18.586" height="3.529" transform="translate(64.948 99.497)"/>
      <rect id="Rectangle_115" data-name="Rectangle 115" class="cls-19" width="36.114" height="3.528" transform="translate(21.364 105.614)"/>
      <rect id="Rectangle_116" data-name="Rectangle 116" class="cls-20" width="22.646" height="3.528" transform="translate(60.889 105.614)"/>
      <rect id="Rectangle_117" data-name="Rectangle 117" class="cls-21" width="26.645" height="3.528" transform="translate(86.887 105.614)"/>
      <rect id="Rectangle_118" data-name="Rectangle 118" class="cls-19" width="43.849" height="3.528" transform="translate(40.98 111.966)"/>
      <rect id="Rectangle_119" data-name="Rectangle 119" class="cls-20" width="22.646" height="3.529" transform="translate(41.303 119.024)"/>
      <rect id="Rectangle_120" data-name="Rectangle 120" class="cls-21" width="26.645" height="3.529" transform="translate(67.771 119.024)"/>
      <rect id="Rectangle_121" data-name="Rectangle 121" class="cls-19" width="13.675" height="3.529" transform="translate(96.828 119.024)"/>
      <rect id="Rectangle_122" data-name="Rectangle 122" class="cls-18" width="15.088" height="3.528" transform="translate(88.255 111.966)"/>
      <rect id="Rectangle_123" data-name="Rectangle 123" class="cls-19" width="36.114" height="3.528" transform="translate(40.98 126.906)"/>
      <rect id="Rectangle_124" data-name="Rectangle 124" class="cls-20" width="22.646" height="3.528" transform="translate(80.475 126.906)"/>
      <rect id="Rectangle_125" data-name="Rectangle 125" class="cls-21" width="26.645" height="3.528" transform="translate(106.503 126.906)"/>
      <rect id="Rectangle_126" data-name="Rectangle 126" class="cls-19" width="8.41" height="3.528" transform="translate(136.265 126.906)"/>
      <rect id="Rectangle_127" data-name="Rectangle 127" class="cls-22" width="4.117" height="4.118" transform="translate(17.629 139.728)"/>
      <rect id="Rectangle_128" data-name="Rectangle 128" class="cls-22" width="4.117" height="4.118" transform="translate(17.629 146.551)"/>
      <rect id="Rectangle_129" data-name="Rectangle 129" class="cls-22" width="6.823" height="4.471" transform="translate(17.629 153.844)"/>
      <rect id="Rectangle_130" data-name="Rectangle 130" class="cls-22" width="6.823" height="4.235" transform="translate(17.629 160.667)"/>
      <rect id="Rectangle_131" data-name="Rectangle 131" class="cls-20" width="16.705" height="4.118" transform="translate(39.097 139.728)"/>
      <rect id="Rectangle_132" data-name="Rectangle 132" class="cls-18" width="41.585" height="4.118" transform="translate(61.536 139.728)"/>
      <rect id="Rectangle_133" data-name="Rectangle 133" class="cls-21" width="42.35" height="4.235" transform="translate(49.449 150.669)"/>
      <rect id="Rectangle_134" data-name="Rectangle 134" class="cls-19" width="38.423" height="4.235" transform="translate(79.725 160.667)"/>
      <rect id="Rectangle_135" data-name="Rectangle 135" class="cls-20" width="22.999" height="4.235" transform="translate(34.156 160.667)"/>
      <rect id="Rectangle_136" data-name="Rectangle 136" class="cls-19" width="27.704" height="4.118" transform="translate(105.444 146.551)"/>
      <rect id="Rectangle_137" data-name="Rectangle 137" class="cls-22" width="6.823" height="4.235" transform="translate(17.629 16.736)"/>
    </g>
    <path id="Path_343" data-name="Path 343" d="M-75.15-21.24V0h-5.88V-8.58h-7.2V0h-5.91V-21.24h5.91v7.95h7.2v-7.95Zm9.51,4.2a5.971,5.971,0,0,1,3.075.765A4.713,4.713,0,0,1-60.63-14.16v-2.67h5.88V0h-5.88V-2.67A4.713,4.713,0,0,1-62.565-.555,5.971,5.971,0,0,1-65.64.21,6.6,6.6,0,0,1-69.27-.825a7.005,7.005,0,0,1-2.55-3,10.662,10.662,0,0,1-.93-4.605,10.562,10.562,0,0,1,.93-4.59,7.02,7.02,0,0,1,2.55-2.985A6.6,6.6,0,0,1-65.64-17.04Zm1.95,5.16a2.917,2.917,0,0,0-2.235.915A3.568,3.568,0,0,0-66.78-8.43a3.613,3.613,0,0,0,.855,2.565,2.917,2.917,0,0,0,2.235.915,2.872,2.872,0,0,0,2.19-.93,3.585,3.585,0,0,0,.87-2.55,3.541,3.541,0,0,0-.87-2.52A2.872,2.872,0,0,0-63.69-11.88Zm19.86-5.16a8.39,8.39,0,0,1,5.49,1.815A8.048,8.048,0,0,1-35.55-10.2h-6.24a2.419,2.419,0,0,0-.765-1.335A2.144,2.144,0,0,0-43.98-12a2.086,2.086,0,0,0-1.755.915A4.428,4.428,0,0,0-46.41-8.43a4.416,4.416,0,0,0,.675,2.67,2.1,2.1,0,0,0,1.755.9,2.144,2.144,0,0,0,1.425-.465A2.419,2.419,0,0,0-41.79-6.66h6.24a8.112,8.112,0,0,1-2.79,5.04A8.345,8.345,0,0,1-43.83.21,9.3,9.3,0,0,1-48.285-.825a7.323,7.323,0,0,1-3.015-3A9.412,9.412,0,0,1-52.38-8.43a9.326,9.326,0,0,1,1.08-4.59,7.323,7.323,0,0,1,3.03-2.985A9.324,9.324,0,0,1-43.83-17.04ZM-22.68,0l-4.59-6.96V0h-5.91V-22.2h5.91v11.91l4.62-6.54h6.87L-22.32-8.4-15.6,0ZM5.1-10.92A5.159,5.159,0,0,1,8.085-9.06a5.181,5.181,0,0,1,1.1,3.27A5.24,5.24,0,0,1,7.35-1.515,8.033,8.033,0,0,1,2.1,0H-8.4V-21.24H1.86a8.006,8.006,0,0,1,5.025,1.41A4.856,4.856,0,0,1,8.7-15.75a5,5,0,0,1-.99,3.165A4.552,4.552,0,0,1,5.1-10.92Zm-7.59-1.83H.48q2.22,0,2.22-1.86,0-1.92-2.25-1.92H-2.49ZM.84-4.74q2.31,0,2.31-1.92,0-1.98-2.31-1.98H-2.49v3.9Zm27-3.99a7.076,7.076,0,0,1-.15,1.38H16.56q.15,2.85,2.49,2.85a2.363,2.363,0,0,0,1.44-.42,2.1,2.1,0,0,0,.78-1.11h6.24a7.137,7.137,0,0,1-1.47,3.2A7.889,7.889,0,0,1,23.16-.6a8.916,8.916,0,0,1-3.81.81A9.3,9.3,0,0,1,14.9-.825a7.323,7.323,0,0,1-3.015-3A9.412,9.412,0,0,1,10.8-8.43a9.326,9.326,0,0,1,1.08-4.59,7.323,7.323,0,0,1,3.03-2.985,9.324,9.324,0,0,1,4.44-1.035,9.323,9.323,0,0,1,4.44,1.02,7.276,7.276,0,0,1,2.985,2.91A8.77,8.77,0,0,1,27.84-8.73Zm-6-1.08a2.433,2.433,0,0,0-.69-1.95,2.563,2.563,0,0,0-1.8-.66,2.743,2.743,0,0,0-1.9.66,2.864,2.864,0,0,0-.855,1.95Zm14.61-7.23a5.971,5.971,0,0,1,3.075.765A4.713,4.713,0,0,1,41.46-14.16v-2.67h5.88V-.18a9.814,9.814,0,0,1-.9,4.245A7,7,0,0,1,43.65,7.11a9.106,9.106,0,0,1-4.77,1.14,9.842,9.842,0,0,1-6.255-1.83A7.215,7.215,0,0,1,29.91,1.41H35.7a2.082,2.082,0,0,0,.9,1.29,3.368,3.368,0,0,0,1.86.45q3,0,3-3.33V-2.67A4.713,4.713,0,0,1,39.525-.555,5.971,5.971,0,0,1,36.45.21,6.6,6.6,0,0,1,32.82-.825a7.005,7.005,0,0,1-2.55-3,10.662,10.662,0,0,1-.93-4.605,10.562,10.562,0,0,1,.93-4.59,7.02,7.02,0,0,1,2.55-2.985A6.6,6.6,0,0,1,36.45-17.04Zm1.95,5.16a2.917,2.917,0,0,0-2.235.915A3.568,3.568,0,0,0,35.31-8.43a3.613,3.613,0,0,0,.855,2.565A2.917,2.917,0,0,0,38.4-4.95a2.872,2.872,0,0,0,2.19-.93,3.585,3.585,0,0,0,.87-2.55,3.541,3.541,0,0,0-.87-2.52A2.872,2.872,0,0,0,38.4-11.88Zm11.7-9.6a2.784,2.784,0,0,1,.96-2.175,3.647,3.647,0,0,1,2.52-.855,3.535,3.535,0,0,1,2.49.855A2.825,2.825,0,0,1,57-21.48a2.693,2.693,0,0,1-.945,2.1,3.586,3.586,0,0,1-2.475.84,3.688,3.688,0,0,1-2.52-.84A2.675,2.675,0,0,1,50.1-21.48Zm6.39,4.65V0H50.58V-16.83Zm14.52-.15a5.673,5.673,0,0,1,4.56,1.935A7.85,7.85,0,0,1,77.22-9.78V0H71.37V-9.03a3.246,3.246,0,0,0-.765-2.3,2.667,2.667,0,0,0-2.055-.825,2.7,2.7,0,0,0-2.1.855,3.364,3.364,0,0,0-.78,2.355V0H59.76V-16.83h5.91v2.82a5.446,5.446,0,0,1,2.1-2.16A6.284,6.284,0,0,1,71.01-16.98Zm15.75-.06a8.132,8.132,0,0,1,5.31,1.62,7.063,7.063,0,0,1,2.49,4.29H89.04a2.171,2.171,0,0,0-.855-1.35,2.684,2.684,0,0,0-1.575-.45,1.543,1.543,0,0,0-1,.285.974.974,0,0,0-.345.8,1.018,1.018,0,0,0,.735.945,15.879,15.879,0,0,0,2.415.705,23.251,23.251,0,0,1,3.225.9,5.492,5.492,0,0,1,2.22,1.56A4.263,4.263,0,0,1,94.8-4.83a4.393,4.393,0,0,1-.81,2.61A5.3,5.3,0,0,1,91.635-.435,9.421,9.421,0,0,1,87.99.21a9.381,9.381,0,0,1-5.64-1.53A6.4,6.4,0,0,1,79.8-5.7h5.67a1.847,1.847,0,0,0,.795,1.38,2.992,2.992,0,0,0,1.695.45,1.6,1.6,0,0,0,1.05-.3.968.968,0,0,0,.36-.78A1.1,1.1,0,0,0,88.605-6a13.071,13.071,0,0,0-2.445-.66,20.87,20.87,0,0,1-3.15-.855,5.369,5.369,0,0,1-2.145-1.5,4.177,4.177,0,0,1-.915-2.865,4.576,4.576,0,0,1,1.77-3.72A7.8,7.8,0,0,1,86.76-17.04Z" transform="translate(620.413 188.958)"/>
    <path id="Path_344" data-name="Path 344" class="cls-14" d="M9.3.183A6.908,6.908,0,0,1,5.92-.586,5.074,5.074,0,0,1,3.79-2.82a7.846,7.846,0,0,1-.732-3.54v-5.029a7.846,7.846,0,0,1,.732-3.54,5.074,5.074,0,0,1,2.13-2.234A6.908,6.908,0,0,1,9.3-17.932a6.908,6.908,0,0,1,3.375.769,5.074,5.074,0,0,1,2.13,2.234,7.846,7.846,0,0,1,.732,3.54V-6.36A7.846,7.846,0,0,1,14.8-2.82a5.074,5.074,0,0,1-2.13,2.234A6.908,6.908,0,0,1,9.3.183Zm0-1.636a4.862,4.862,0,0,0,2.423-.568,3.692,3.692,0,0,0,1.532-1.648,5.918,5.918,0,0,0,.525-2.606v-5.2a5.918,5.918,0,0,0-.525-2.606,3.692,3.692,0,0,0-1.532-1.648A4.862,4.862,0,0,0,9.3-16.3a4.862,4.862,0,0,0-2.423.568,3.692,3.692,0,0,0-1.532,1.648,5.918,5.918,0,0,0-.525,2.606v5.2a5.918,5.918,0,0,0,.525,2.606A3.692,3.692,0,0,0,6.873-2.02,4.862,4.862,0,0,0,9.3-1.453ZM19.318-12.671h1.758V0H19.318ZM27.74-7.678a3.634,3.634,0,0,0-.885-2.612,3.286,3.286,0,0,0-2.5-.928,3.363,3.363,0,0,0-2.423.824,3.084,3.084,0,0,0-.861,2.338L20.819-10.5A4.119,4.119,0,0,1,22.6-12.3a5.688,5.688,0,0,1,2.576-.555,3.932,3.932,0,0,1,3.192,1.349A5.781,5.781,0,0,1,29.5-7.69V0H27.74Zm4.077-4.993h1.868L36.664-2.4l3.528-10.266h1L44.72-2.4,47.7-12.671h1.868L45.538,0H44.025L40.692-9.485,37.36,0H35.846Zm28.2,4.639a3.283,3.283,0,0,0-.824-2.386,3.109,3.109,0,0,0-2.338-.848,5.492,5.492,0,0,0-1.77.293,5,5,0,0,0-1.538.83l-1.282-.879a4.754,4.754,0,0,1,1.9-1.349,6.852,6.852,0,0,1,2.618-.482,6.031,6.031,0,0,1,2.7.555,3.856,3.856,0,0,1,1.709,1.611,5.172,5.172,0,0,1,.586,2.545V0H60.016ZM56.3.183A5.2,5.2,0,0,1,52.863-.842a3.569,3.569,0,0,1-1.221-2.893,3.5,3.5,0,0,1,1.117-2.777A4.623,4.623,0,0,1,55.914-7.5h4.211L60.3-5.859h-4.37a2.864,2.864,0,0,0-1.886.555,1.93,1.93,0,0,0-.665,1.569,1.924,1.924,0,0,0,.836,1.666,4.044,4.044,0,0,0,2.362.592,7.7,7.7,0,0,0,2.539-.33q.9-.33.9-.928l.256,1.66A3.4,3.4,0,0,1,59.3-.4a5.461,5.461,0,0,1-1.355.433A8.708,8.708,0,0,1,56.3.183Zm9.253-12.854h1.758V0H65.558ZM73.016-10.4a2.49,2.49,0,0,0-.983-.61,4.148,4.148,0,0,0-1.373-.208,3.4,3.4,0,0,0-2.466.848,3.113,3.113,0,0,0-.879,2.35l-.256-2.441a4.923,4.923,0,0,1,1.825-1.764,5,5,0,0,1,2.472-.629,4.647,4.647,0,0,1,1.569.25,3.509,3.509,0,0,1,1.227.739Zm10.9-7.349h1.758V0H83.917ZM80,.183a4.455,4.455,0,0,1-2.368-.6,3.81,3.81,0,0,1-1.5-1.752,6.732,6.732,0,0,1-.513-2.759V-7.69a7.035,7.035,0,0,1,.5-2.8,3.792,3.792,0,0,1,1.459-1.764,4.226,4.226,0,0,1,2.3-.6,5.649,5.649,0,0,1,2.545.543,4.018,4.018,0,0,1,1.752,1.776l-.256,2.441a3.385,3.385,0,0,0-.385-1.575,3.091,3.091,0,0,0-1.117-1.208,3.148,3.148,0,0,0-1.721-.464,3.139,3.139,0,0,0-2.454.958,3.89,3.89,0,0,0-.867,2.7v2.747a3.787,3.787,0,0,0,.867,2.655,3.16,3.16,0,0,0,2.454.946A3.065,3.065,0,0,0,82.4-1.807a3.191,3.191,0,0,0,1.123-1.239,3.451,3.451,0,0,0,.391-1.593l.171,2.649A3.07,3.07,0,0,1,82.574-.323,5.846,5.846,0,0,1,80,.183Zm13.818,0a9.707,9.707,0,0,1-1.99-.2,8.2,8.2,0,0,1-1.8-.592,6.577,6.577,0,0,1-1.483-.94h0l1.013-1.233h0A9.334,9.334,0,0,0,91.705-1.7a6.458,6.458,0,0,0,2.112.385,5.313,5.313,0,0,0,2.814-.623A1.964,1.964,0,0,0,97.626-3.7a1.553,1.553,0,0,0-.482-1.245,2.606,2.606,0,0,0-1.215-.562A17.735,17.735,0,0,0,93.89-5.75q-.122-.012-.25-.018t-.25-.018a.786.786,0,0,1-.1-.006.787.787,0,0,0-.1-.006,11.782,11.782,0,0,1-2.1-.366,2.846,2.846,0,0,1-1.41-.916,2.93,2.93,0,0,1-.568-1.941,3.554,3.554,0,0,1,.592-2.075A3.685,3.685,0,0,1,91.443-12.4a7.447,7.447,0,0,1,2.74-.452,8.506,8.506,0,0,1,1.66.165,8.681,8.681,0,0,1,1.593.476,7.271,7.271,0,0,1,1.4.751h0l-1.013,1.208h0a8.5,8.5,0,0,0-1.88-.812,6.513,6.513,0,0,0-1.831-.287,4.374,4.374,0,0,0-2.478.6,1.922,1.922,0,0,0-.879,1.685,1.345,1.345,0,0,0,.476,1.129,2.621,2.621,0,0,0,1.2.494,19.47,19.47,0,0,0,2,.2.942.942,0,0,1,.1.006.941.941,0,0,0,.1.006h.073a.23.23,0,0,1,.073.012,10.944,10.944,0,0,1,2.264.33,3.065,3.065,0,0,1,1.569,1.013A3.316,3.316,0,0,1,99.249-3.7a3.456,3.456,0,0,1-.635,2.1A3.934,3.934,0,0,1,96.759-.275,8.4,8.4,0,0,1,93.817.183Z" transform="translate(619.913 232.958)"/>
    <g id="Group_52" data-name="Group 52" transform="translate(-240.587 -220.375)">
      <ellipse id="Ellipse_2" data-name="Ellipse 2" class="cls-23" cx="168.5" cy="104" rx="168.5" ry="104" transform="translate(1076 281.333)"/>
      <g id="Group_50" data-name="Group 50" transform="translate(1097.785 287.824)">
        <path id="Path_240" data-name="Path 240" class="cls-24" d="M221.578,214.767s7.233,32.834,6.328,33.612-6.991.155-6.991.155Z" transform="translate(-169.022 -125.494)"/>
        <path id="Path_241" data-name="Path 241" class="cls-25" d="M232.745,198.694l3.32,39.628,24.275-8.922-3.32-40.251Z" transform="translate(-173.642 -115.489)"/>
        <path id="Path_242" data-name="Path 242" class="cls-26" d="M140.04,314.367s3.009-10.294,18.1-8.894,45.282-1.089,45.282-1.089l2.334,11.671S181.742,326.349,140.04,314.367Z" transform="translate(-137.372 -160.492)"/>
        <path id="Path_243" data-name="Path 243" class="cls-27" d="M139.779,319.959l-.311,35.168s2.49,9.336,11.671,9.492,22.1,0,22.1,0l25.987-.778s10.27-7,9.025-10.426l.311-16.339L205.6,322.137S167.011,330.073,139.779,319.959Z" transform="translate(-137.214 -166.574)"/>
        <path id="Path_244" data-name="Path 244" class="cls-28" d="M199.048,105.146s3.528,18.051-14.731,24.9l2.7,10.374-9.959,7.676-9.752-9.959-1.037-7.677-7.054-13.694,20.54-16.805L198.53,105.2Z" transform="translate(-144.926 -80.657)"/>
        <path id="Path_245" data-name="Path 245" class="cls-5" d="M157.762,161.671s-11.826,5.672-11.826,15.964v50.2l46.683-.421V173.435s-2.075-13.864-13.694-13.234c0,0-3.32,11.974-13.071.63A30.519,30.519,0,0,0,157.762,161.671Z" transform="translate(-139.74 -104.176)"/>
        <path id="Path_246" data-name="Path 246" class="cls-29" d="M156.814,189.035s5.394-6.64,19.71,10.789c0,0,3.112,13.071,23.03,17.636l7.884,1.452s13.071-10.374,13.071-2.9-9.751,8.507-9.751,8.507l-.207,2.075s-20.748,2.7-30.707-4.979S151,198.58,156.814,189.035Z" transform="translate(-143.564 -114.96)"/>
        <path id="Path_247" data-name="Path 247" class="cls-30" d="M161.677,117.468s1.66,16.183,4.149,16.391c0,0-48.342-19.3-22.408-50.21s46.061-5.6,46.061-5.6,7.054,11.619,3.527,13.486-13.694,4.564-24.068-.415c0,0-9.751,6.64-9.751,9.129,0,0-8.506.622-3.942,7.884C155.245,108.131,155.66,117.675,161.677,117.468Z" transform="translate(-135.77 -68.29)"/>
        <path id="Path_248" data-name="Path 248" class="cls-1" d="M200.271,139.216s10.167-.83,14.731-15.768l-.207,21.163s-4.357,4.357-7.677,2.9a23.3,23.3,0,0,0-7.054-1.66Z" transform="translate(-160.879 -89.831)"/>
        <path id="Path_249" data-name="Path 249" class="cls-31" d="M145.936,269.831h63.281s19.71,2.282,16.183,22.408l-25.728,44.608s18.258,0,16.806,11.412l-39.836.207-.622-11.411,27.18-44.608H161.5S145.936,287.259,145.936,269.831Z" transform="translate(-139.74 -146.998)"/>
        <path id="Path_250" data-name="Path 250" class="cls-32" d="M178.277,148.98l.311,1.582s12.656-.026,13.175-1.375C191.763,149.187,179.288,150.044,178.277,148.98Z" transform="translate(-152.371 -99.802)"/>
        <path id="Path_251" data-name="Path 251" d="M257.681,148.384" transform="translate(-183.38 -99.569)"/>
      </g>
      <g id="Group_51" data-name="Group 51" transform="translate(1304.54 287.825)">
        <path id="Path_240-2" data-name="Path 240" class="cls-24" d="M227.321,214.767s-7.233,32.834-6.328,33.612,6.991.155,6.991.155Z" transform="translate(-193.18 -125.494)"/>
        <path id="Path_241-2" data-name="Path 241" class="cls-25" d="M260.339,198.694l-3.32,39.628L232.745,229.4l3.32-40.251Z" transform="translate(-232.745 -115.489)"/>
        <path id="Path_242-2" data-name="Path 242" class="cls-33" d="M205.8,313.876s-3.112-9.8-18.206-8.4-45.282-1.089-45.282-1.089l-2.334,11.671S164.1,325.858,205.8,313.876Z" transform="translate(-121.669 -160.492)"/>
        <path id="Path_243-2" data-name="Path 243" class="cls-34" d="M208.247,319.959l.311,35.168s-2.49,9.336-11.671,9.492-22.1,0-22.1,0l-25.987-.778s-10.27-7-9.025-10.426l-.311-16.339,2.957-14.939S181.015,330.073,208.247,319.959Z" transform="translate(-124.115 -166.574)"/>
        <path id="Path_244-2" data-name="Path 244" class="cls-24" d="M159.487,105.146s-3.528,18.051,14.731,24.9l-2.7,10.374,9.959,7.676,9.752-9.959,1.037-7.677,7.054-13.694-20.54-16.805L160.006,105.2Z" transform="translate(-126.913 -80.657)"/>
        <path id="Path_245-2" data-name="Path 245" class="cls-35" d="M180.793,161.671s11.826,5.672,11.826,15.964v50.2l-46.683-.421V173.435s2.075-13.864,13.694-13.234c0,0,3.32,11.974,13.071.63A30.519,30.519,0,0,1,180.793,161.671Z" transform="translate(-112.117 -104.176)"/>
        <path id="Path_246-2" data-name="Path 246" class="cls-24" d="M219.422,189.035s-5.394-6.64-19.71,10.789c0,0-3.112,13.071-23.03,17.636l-7.884,1.452s-13.071-10.374-13.071-2.9,9.751,8.507,9.751,8.507l.207,2.075s20.748,2.7,30.707-4.979S225.231,198.58,219.422,189.035Z" transform="translate(-145.974 -114.96)"/>
        <path id="Path_247-2" data-name="Path 247" class="cls-36" d="M168.087,117.468s-1.66,16.183-4.149,16.391c0,0,48.342-19.3,22.408-50.21s-46.061-5.6-46.061-5.6-7.054,11.619-3.527,13.486,13.694,4.564,24.068-.415c0,0,9.752,6.64,9.752,9.129,0,0,8.506.622,3.942,7.884C174.52,108.131,174.1,117.675,168.087,117.468Z" transform="translate(-107.296 -68.29)"/>
        <path id="Path_248-2" data-name="Path 248" class="cls-1" d="M214.795,139.216s-10.167-.83-14.731-15.768l.207,21.163s4.357,4.357,7.677,2.9a23.3,23.3,0,0,1,7.054-1.66Z" transform="translate(-167.49 -89.831)"/>
        <path id="Path_249-2" data-name="Path 249" class="cls-37" d="M225.823,269.831H162.542s-19.71,2.282-16.183,22.408l25.728,44.608s-18.258,0-16.806,11.412l39.836.207.622-11.411-27.18-44.608h41.7S225.823,287.259,225.823,269.831Z" transform="translate(-145.321 -146.998)"/>
        <path id="Path_250-2" data-name="Path 250" class="cls-32" d="M191.763,148.98l-.311,1.582s-12.656-.026-13.175-1.375C178.277,149.187,190.752,150.044,191.763,148.98Z" transform="translate(-130.972 -99.802)"/>
        <path id="Path_251-2" data-name="Path 251" d="M257.681,148.384" transform="translate(-245.284 -99.569)"/>
      </g>
    </g>
    <path id="Path_345" data-name="Path 345" d="M7.835,10.76V32H1.925V10.76Zm10.95,4.2a8.39,8.39,0,0,1,5.49,1.815,8.048,8.048,0,0,1,2.79,5.025h-6.24a2.419,2.419,0,0,0-.765-1.335A2.144,2.144,0,0,0,18.635,20a2.086,2.086,0,0,0-1.755.915,4.428,4.428,0,0,0-.675,2.655,4.416,4.416,0,0,0,.675,2.67,2.1,2.1,0,0,0,1.755.9,2.144,2.144,0,0,0,1.425-.465,2.419,2.419,0,0,0,.765-1.335h6.24a8.111,8.111,0,0,1-2.79,5.04,8.345,8.345,0,0,1-5.49,1.83,9.3,9.3,0,0,1-4.455-1.035,7.323,7.323,0,0,1-3.015-3,9.412,9.412,0,0,1-1.08-4.6,9.326,9.326,0,0,1,1.08-4.59,7.323,7.323,0,0,1,3.03-2.985A9.324,9.324,0,0,1,18.785,14.96Zm26.82,8.31a7.076,7.076,0,0,1-.15,1.38H34.325q.15,2.85,2.49,2.85a2.363,2.363,0,0,0,1.44-.42,2.1,2.1,0,0,0,.78-1.11h6.24a7.137,7.137,0,0,1-1.47,3.2,7.889,7.889,0,0,1-2.88,2.235,8.916,8.916,0,0,1-3.81.81,9.3,9.3,0,0,1-4.455-1.035,7.323,7.323,0,0,1-3.015-3,9.412,9.412,0,0,1-1.08-4.6,9.326,9.326,0,0,1,1.08-4.59,7.323,7.323,0,0,1,3.03-2.985,10.107,10.107,0,0,1,8.88-.015,7.276,7.276,0,0,1,2.985,2.91A8.77,8.77,0,0,1,45.605,23.27Zm-6-1.08a2.432,2.432,0,0,0-.69-1.95,2.563,2.563,0,0,0-1.8-.66,2.743,2.743,0,0,0-1.9.66,2.864,2.864,0,0,0-.855,1.95Zm27.42-1.11a5.146,5.146,0,0,1,4.08,5.13,5.24,5.24,0,0,1-1.83,4.275A8.033,8.033,0,0,1,64.025,32h-10.5V10.76h10.26a8.006,8.006,0,0,1,5.025,1.41,4.856,4.856,0,0,1,1.815,4.08,5,5,0,0,1-.99,3.165A4.552,4.552,0,0,1,67.025,21.08Zm-7.59-1.83h2.97q2.22,0,2.22-1.86,0-1.92-2.25-1.92h-2.94Zm3.33,8.01q2.31,0,2.31-1.92,0-1.98-2.31-1.98h-3.33v3.9Zm16.74-8.94A7.707,7.707,0,0,1,82,15.92a6.082,6.082,0,0,1,3.18-.9v6.3h-1.71a4.814,4.814,0,0,0-2.97.765,3.162,3.162,0,0,0-.99,2.655V32H73.6V15.17h5.91Zm23.79,4.95a7.077,7.077,0,0,1-.15,1.38H92.015q.15,2.85,2.49,2.85a2.363,2.363,0,0,0,1.44-.42,2.1,2.1,0,0,0,.78-1.11h6.24a7.137,7.137,0,0,1-1.47,3.2,7.889,7.889,0,0,1-2.88,2.235,8.916,8.916,0,0,1-3.81.81,9.3,9.3,0,0,1-4.455-1.035,7.323,7.323,0,0,1-3.015-3,9.412,9.412,0,0,1-1.08-4.6,9.326,9.326,0,0,1,1.08-4.59,7.323,7.323,0,0,1,3.03-2.985,10.107,10.107,0,0,1,8.88-.015,7.276,7.276,0,0,1,2.985,2.91A8.77,8.77,0,0,1,103.3,23.27Zm-6-1.08a2.433,2.433,0,0,0-.69-1.95,2.563,2.563,0,0,0-1.8-.66,2.743,2.743,0,0,0-1.9.66,2.864,2.864,0,0,0-.855,1.95Zm14.61-7.23a5.971,5.971,0,0,1,3.075.765,4.713,4.713,0,0,1,1.935,2.115V15.17h5.88V32h-5.88V29.33a4.713,4.713,0,0,1-1.935,2.115,5.971,5.971,0,0,1-3.075.765,6.6,6.6,0,0,1-3.63-1.035,7.005,7.005,0,0,1-2.55-3,10.662,10.662,0,0,1-.93-4.6,10.562,10.562,0,0,1,.93-4.59,7.02,7.02,0,0,1,2.55-2.985A6.6,6.6,0,0,1,111.905,14.96Zm1.95,5.16a2.917,2.917,0,0,0-2.235.915,3.568,3.568,0,0,0-.855,2.535,3.613,3.613,0,0,0,.855,2.565,2.917,2.917,0,0,0,2.235.915,2.872,2.872,0,0,0,2.19-.93,3.585,3.585,0,0,0,.87-2.55,3.541,3.541,0,0,0-.87-2.52A2.872,2.872,0,0,0,113.855,20.12ZM136.535,32l-4.59-6.96V32h-5.91V9.8h5.91V21.71l4.62-6.54h6.87L136.9,23.6l6.72,8.4Zm24.9-8.73a7.076,7.076,0,0,1-.15,1.38h-11.13q.15,2.85,2.49,2.85a2.363,2.363,0,0,0,1.44-.42,2.1,2.1,0,0,0,.78-1.11h6.24a7.137,7.137,0,0,1-1.47,3.2,7.889,7.889,0,0,1-2.88,2.235,8.916,8.916,0,0,1-3.81.81,9.3,9.3,0,0,1-4.455-1.035,7.323,7.323,0,0,1-3.015-3,9.412,9.412,0,0,1-1.08-4.6,9.326,9.326,0,0,1,1.08-4.59,7.323,7.323,0,0,1,3.03-2.985,10.107,10.107,0,0,1,8.88-.015,7.276,7.276,0,0,1,2.985,2.91A8.77,8.77,0,0,1,161.435,23.27Zm-6-1.08a2.432,2.432,0,0,0-.69-1.95,2.563,2.563,0,0,0-1.8-.66,2.743,2.743,0,0,0-1.9.66,2.864,2.864,0,0,0-.855,1.95Zm14.28-3.87a7.707,7.707,0,0,1,2.49-2.4,6.082,6.082,0,0,1,3.18-.9v6.3h-1.71a4.814,4.814,0,0,0-2.97.765,3.162,3.162,0,0,0-.99,2.655V32h-5.91V15.17h5.91Zm34.56,7.56a5.934,5.934,0,0,1-.9,3.21,6.183,6.183,0,0,1-2.64,2.28,9.514,9.514,0,0,1-4.17.84,9.923,9.923,0,0,1-6.075-1.77,6.454,6.454,0,0,1-2.6-5.04h6.27a2.385,2.385,0,0,0,.69,1.65,2.118,2.118,0,0,0,1.47.54,1.757,1.757,0,0,0,1.215-.39,1.414,1.414,0,0,0,.435-1.11,1.647,1.647,0,0,0-.87-1.485,14.709,14.709,0,0,0-2.76-1.155,26.7,26.7,0,0,1-3.315-1.35,6.212,6.212,0,0,1-2.25-1.98,5.686,5.686,0,0,1-.945-3.39,5.7,5.7,0,0,1,1.02-3.4,6.318,6.318,0,0,1,2.79-2.16,10.4,10.4,0,0,1,4.02-.735,9.13,9.13,0,0,1,5.835,1.725A6.419,6.419,0,0,1,203.885,17h-6.33a2.384,2.384,0,0,0-.615-1.47,1.8,1.8,0,0,0-1.305-.48,1.532,1.532,0,0,0-1.08.36,1.4,1.4,0,0,0-.39,1.08,1.572,1.572,0,0,0,.855,1.41,15.346,15.346,0,0,0,2.685,1.14,26.9,26.9,0,0,1,3.33,1.41,6.585,6.585,0,0,1,2.28,2.01A5.675,5.675,0,0,1,204.275,25.88Zm18.75-2.61a7.076,7.076,0,0,1-.15,1.38h-11.13q.15,2.85,2.49,2.85a2.363,2.363,0,0,0,1.44-.42,2.1,2.1,0,0,0,.78-1.11h6.24a7.137,7.137,0,0,1-1.47,3.2,7.889,7.889,0,0,1-2.88,2.235,8.916,8.916,0,0,1-3.81.81,9.3,9.3,0,0,1-4.455-1.035,7.323,7.323,0,0,1-3.015-3,9.412,9.412,0,0,1-1.08-4.6,9.326,9.326,0,0,1,1.08-4.59,7.323,7.323,0,0,1,3.03-2.985,10.107,10.107,0,0,1,8.88-.015,7.276,7.276,0,0,1,2.985,2.91A8.77,8.77,0,0,1,223.025,23.27Zm-6-1.08a2.432,2.432,0,0,0-.69-1.95,2.563,2.563,0,0,0-1.8-.66,2.743,2.743,0,0,0-1.9.66,2.864,2.864,0,0,0-.855,1.95Zm14.76-7.23a8.132,8.132,0,0,1,5.31,1.62,7.063,7.063,0,0,1,2.49,4.29h-5.52a2.171,2.171,0,0,0-.855-1.35,2.684,2.684,0,0,0-1.575-.45,1.544,1.544,0,0,0-1.005.285.974.974,0,0,0-.345.8,1.018,1.018,0,0,0,.735.945,15.879,15.879,0,0,0,2.415.7,23.25,23.25,0,0,1,3.225.9,5.492,5.492,0,0,1,2.22,1.56,4.263,4.263,0,0,1,.945,2.91,4.393,4.393,0,0,1-.81,2.61,5.3,5.3,0,0,1-2.355,1.785,10.948,10.948,0,0,1-9.285-.885,6.4,6.4,0,0,1-2.55-4.38h5.67a1.847,1.847,0,0,0,.795,1.38,2.992,2.992,0,0,0,1.7.45,1.6,1.6,0,0,0,1.05-.3.967.967,0,0,0,.36-.78A1.1,1.1,0,0,0,233.63,26a13.071,13.071,0,0,0-2.445-.66,20.87,20.87,0,0,1-3.15-.855,5.369,5.369,0,0,1-2.145-1.5,4.177,4.177,0,0,1-.915-2.865,4.576,4.576,0,0,1,1.77-3.72A7.8,7.8,0,0,1,231.785,14.96Zm17.01,0a8.132,8.132,0,0,1,5.31,1.62,7.063,7.063,0,0,1,2.49,4.29h-5.52a2.171,2.171,0,0,0-.855-1.35,2.684,2.684,0,0,0-1.575-.45,1.544,1.544,0,0,0-1.005.285.974.974,0,0,0-.345.8,1.018,1.018,0,0,0,.735.945,15.879,15.879,0,0,0,2.415.7,23.25,23.25,0,0,1,3.225.9,5.492,5.492,0,0,1,2.22,1.56,4.263,4.263,0,0,1,.945,2.91,4.393,4.393,0,0,1-.81,2.61,5.3,5.3,0,0,1-2.355,1.785,10.948,10.948,0,0,1-9.285-.885,6.4,6.4,0,0,1-2.55-4.38h5.67a1.847,1.847,0,0,0,.795,1.38,2.992,2.992,0,0,0,1.7.45,1.6,1.6,0,0,0,1.05-.3.967.967,0,0,0,.36-.78A1.1,1.1,0,0,0,250.64,26a13.071,13.071,0,0,0-2.445-.66,20.87,20.87,0,0,1-3.15-.855,5.369,5.369,0,0,1-2.145-1.5,4.177,4.177,0,0,1-.915-2.865,4.576,4.576,0,0,1,1.77-3.72A7.8,7.8,0,0,1,248.795,14.96Zm10.14-4.44a2.784,2.784,0,0,1,.96-2.175,3.647,3.647,0,0,1,2.52-.855,3.535,3.535,0,0,1,2.49.855,2.825,2.825,0,0,1,.93,2.175,2.693,2.693,0,0,1-.945,2.1,3.587,3.587,0,0,1-2.475.84,3.688,3.688,0,0,1-2.52-.84A2.675,2.675,0,0,1,258.935,10.52Zm6.39,4.65V32h-5.91V15.17Zm11.22-.21a9.659,9.659,0,0,1,4.515,1.035,7.611,7.611,0,0,1,3.135,3,8.953,8.953,0,0,1,1.14,4.575,8.932,8.932,0,0,1-1.14,4.59,7.739,7.739,0,0,1-3.135,3,10.264,10.264,0,0,1-9.045,0,7.715,7.715,0,0,1-3.15-3,8.932,8.932,0,0,1-1.14-4.59,8.932,8.932,0,0,1,1.14-4.59,7.616,7.616,0,0,1,3.15-2.985A9.75,9.75,0,0,1,276.545,14.96Zm0,5.1a2.628,2.628,0,0,0-2.04.9,3.778,3.778,0,0,0-.81,2.61,3.826,3.826,0,0,0,.81,2.64,2.628,2.628,0,0,0,2.04.9,2.577,2.577,0,0,0,2.01-.915,3.837,3.837,0,0,0,.81-2.625,3.778,3.778,0,0,0-.81-2.61A2.6,2.6,0,0,0,276.545,20.06Zm22.41-5.04a5.673,5.673,0,0,1,4.56,1.935,7.85,7.85,0,0,1,1.65,5.265V32h-5.85V22.97a3.246,3.246,0,0,0-.765-2.3,2.667,2.667,0,0,0-2.055-.825,2.7,2.7,0,0,0-2.1.855,3.364,3.364,0,0,0-.78,2.355V32H287.7V15.17h5.91v2.82a5.446,5.446,0,0,1,2.1-2.16A6.284,6.284,0,0,1,298.955,15.02Z" transform="translate(844.413 432.958)"/>
    <path id="Path_346" data-name="Path 346" class="cls-14" d="M-80.878.183a5.346,5.346,0,0,1-2.673-.629,4.082,4.082,0,0,1-1.691-1.831,6.625,6.625,0,0,1-.58-2.9v-.012a9.978,9.978,0,0,1,.232-2.069A11.982,11.982,0,0,1-84.918-9.4q.073-.183.159-.36t.171-.348l3.857-7.642h1.953L-83.307-8.9l.012-.439a2.33,2.33,0,0,1,1.044-.891,3.743,3.743,0,0,1,1.581-.317,5.019,5.019,0,0,1,2.57.623,3.987,3.987,0,0,1,1.624,1.813,6.727,6.727,0,0,1,.555,2.863v.012a6.779,6.779,0,0,1-.58,2.93A4.09,4.09,0,0,1-78.2-.452,5.339,5.339,0,0,1-80.878.183Zm0-1.66A3.016,3.016,0,0,0-78.516-2.4a3.785,3.785,0,0,0,.836-2.625v-.012a4.219,4.219,0,0,0-.867-2.838A3.062,3.062,0,0,0-81-8.887,2.725,2.725,0,0,0-83.264-7.88a4.484,4.484,0,0,0-.8,2.85v.012A3.766,3.766,0,0,0-83.228-2.4,3,3,0,0,0-80.878-1.477ZM-72.626-2h2V0h-2Zm0-10.913h2v2h-2Zm10,13.1a5.022,5.022,0,0,1-3.778-1.331,5.114,5.114,0,0,1-1.288-3.711v-8.069A5.1,5.1,0,0,1-66.4-16.644a5.04,5.04,0,0,1,3.772-1.324A5.05,5.05,0,0,1-58.85-16.65a5.105,5.105,0,0,1,1.288,3.723v8.069a5.1,5.1,0,0,1-1.294,3.717A5.04,5.04,0,0,1-62.628.183Zm0-1.636a3.225,3.225,0,0,0,2.5-.885,3.614,3.614,0,0,0,.806-2.521v-8.069a3.61,3.61,0,0,0-.806-2.527,3.238,3.238,0,0,0-2.5-.879,3.238,3.238,0,0,0-2.5.879,3.61,3.61,0,0,0-.806,2.527v8.069a3.615,3.615,0,0,0,.806,2.521A3.225,3.225,0,0,0-62.628-1.453ZM-49.323.183A5.022,5.022,0,0,1-53.1-1.147a5.114,5.114,0,0,1-1.288-3.711v-8.069a5.1,5.1,0,0,1,1.294-3.717,5.04,5.04,0,0,1,3.772-1.324,5.05,5.05,0,0,1,3.778,1.318,5.105,5.105,0,0,1,1.288,3.723v8.069a5.1,5.1,0,0,1-1.294,3.717A5.04,5.04,0,0,1-49.323.183Zm0-1.636a3.225,3.225,0,0,0,2.5-.885,3.614,3.614,0,0,0,.806-2.521v-8.069a3.61,3.61,0,0,0-.806-2.527,3.238,3.238,0,0,0-2.5-.879,3.238,3.238,0,0,0-2.5.879,3.61,3.61,0,0,0-.806,2.527v8.069a3.615,3.615,0,0,0,.806,2.521A3.225,3.225,0,0,0-49.323-1.453Zm15.564-11.218H-32V5.151h-1.758ZM-28.082.183a5.846,5.846,0,0,1-2.576-.507A3.07,3.07,0,0,1-32.172-1.99L-32-4.639a3.451,3.451,0,0,0,.391,1.593,3.191,3.191,0,0,0,1.123,1.239,3.065,3.065,0,0,0,1.709.476,3.16,3.16,0,0,0,2.454-.946,3.787,3.787,0,0,0,.867-2.655V-7.678a3.89,3.89,0,0,0-.867-2.7,3.139,3.139,0,0,0-2.454-.958,3.1,3.1,0,0,0-1.709.47A3.182,3.182,0,0,0-31.61-9.656,3.319,3.319,0,0,0-32-8.093l-.256-2.441a4.018,4.018,0,0,1,1.752-1.776,5.649,5.649,0,0,1,2.545-.543,4.226,4.226,0,0,1,2.3.6A3.792,3.792,0,0,1-24.2-10.486a7.035,7.035,0,0,1,.5,2.8v2.759a6.732,6.732,0,0,1-.513,2.759,3.81,3.81,0,0,1-1.5,1.752A4.455,4.455,0,0,1-28.082.183ZM-4.291-7.678A3.86,3.86,0,0,0-5.1-10.291a2.846,2.846,0,0,0-2.271-.928,2.918,2.918,0,0,0-2.289.9,3.667,3.667,0,0,0-.812,2.539l-.745-1.831a5.422,5.422,0,0,1,1.7-2.411A4.156,4.156,0,0,1-6.9-12.854a4.423,4.423,0,0,1,2.362.6,3.813,3.813,0,0,1,1.5,1.764,6.888,6.888,0,0,1,.513,2.8V0H-4.291ZM-20.16-12.671H-18.4V0H-20.16Zm7.935,4.993a3.879,3.879,0,0,0-.8-2.612,2.842,2.842,0,0,0-2.277-.928,3.043,3.043,0,0,0-2.289.836A3.251,3.251,0,0,0-18.4-8.02l-.256-2.441A4.078,4.078,0,0,1-17-12.292a4.9,4.9,0,0,1,2.393-.562,4.034,4.034,0,0,1,2.24.6,3.739,3.739,0,0,1,1.416,1.764,7.272,7.272,0,0,1,.482,2.8V0h-1.758ZM13.043-17.749h2.124L21.71,0H19.757L14.105-15.906,8.453,0H6.5ZM9.515-5.945h9.338v1.636H9.515Zm14.636-6.726h1.758V0H24.152ZM31.61-10.4a2.49,2.49,0,0,0-.983-.61,4.148,4.148,0,0,0-1.373-.208,3.4,3.4,0,0,0-2.466.848,3.113,3.113,0,0,0-.879,2.35l-.256-2.441a4.923,4.923,0,0,1,1.825-1.764,5,5,0,0,1,2.472-.629,4.647,4.647,0,0,1,1.569.25,3.509,3.509,0,0,1,1.227.739ZM39.435.183a5.753,5.753,0,0,1-2.82-.647A4.269,4.269,0,0,1,34.827-2.35a6.641,6.641,0,0,1-.616-2.985V-7.4a6.5,6.5,0,0,1,.616-2.948,4.246,4.246,0,0,1,1.788-1.868,5.8,5.8,0,0,1,2.82-.641,5.8,5.8,0,0,1,2.82.641,4.246,4.246,0,0,1,1.788,1.868A6.5,6.5,0,0,1,44.659-7.4v2.1a6.533,6.533,0,0,1-.616,2.96A4.282,4.282,0,0,1,42.255-.464,5.753,5.753,0,0,1,39.435.183Zm-.012-1.636a3.285,3.285,0,0,0,2.57-1.007A4.087,4.087,0,0,0,42.9-5.3V-7.4a4.045,4.045,0,0,0-.909-2.82,3.3,3.3,0,0,0-2.57-1,3.26,3.26,0,0,0-2.551,1,4.062,4.062,0,0,0-.9,2.82v2.1a4.1,4.1,0,0,0,.9,2.838A3.25,3.25,0,0,0,39.423-1.453ZM56.268-12.671h1.746V0H56.268Zm-6.616,7.7a3.64,3.64,0,0,0,.867,2.594,3.2,3.2,0,0,0,2.454.922,3.336,3.336,0,0,0,2.435-.842,3.179,3.179,0,0,0,.861-2.38l.171,2.649A3.809,3.809,0,0,1,54.907-.452a5.069,5.069,0,0,1-2.631.635,4.011,4.011,0,0,1-3.241-1.349,5.718,5.718,0,0,1-1.141-3.8v-7.7h1.758Zm12.146-7.7h1.758V0H61.8Zm8.423,4.993a3.634,3.634,0,0,0-.885-2.612,3.286,3.286,0,0,0-2.5-.928,3.363,3.363,0,0,0-2.423.824,3.084,3.084,0,0,0-.861,2.338L63.3-10.5a4.119,4.119,0,0,1,1.782-1.8,5.688,5.688,0,0,1,2.576-.555,3.932,3.932,0,0,1,3.192,1.349A5.781,5.781,0,0,1,71.979-7.69V0H70.221ZM83.7-17.749h1.758V0H83.7ZM79.779.183a4.455,4.455,0,0,1-2.368-.6,3.81,3.81,0,0,1-1.5-1.752A6.732,6.732,0,0,1,75.4-4.932V-7.69a7.035,7.035,0,0,1,.5-2.8,3.792,3.792,0,0,1,1.459-1.764,4.226,4.226,0,0,1,2.3-.6,5.649,5.649,0,0,1,2.545.543,4.018,4.018,0,0,1,1.752,1.776L83.7-8.093a3.385,3.385,0,0,0-.385-1.575A3.091,3.091,0,0,0,82.2-10.876a3.148,3.148,0,0,0-1.721-.464,3.139,3.139,0,0,0-2.454.958,3.89,3.89,0,0,0-.867,2.7v2.747a3.787,3.787,0,0,0,.867,2.655,3.16,3.16,0,0,0,2.454.946,3.065,3.065,0,0,0,1.709-.476,3.191,3.191,0,0,0,1.123-1.239A3.451,3.451,0,0,0,83.7-4.639l.171,2.649A3.07,3.07,0,0,1,82.355-.323,5.846,5.846,0,0,1,79.779.183Z" transform="translate(997.413 509.958)"/>
    <g id="Group_57" data-name="Group 57" transform="translate(1242.549 382.958)">
      <path id="Path_260" data-name="Path 260" class="cls-4" d="M362.564,161.749H334.534v7.963h28.029Zm-52.054-15.927h52.054V137.86h12.013v93.967l-20.021-18.316c-.8-.8,1.2,0,0,0H321c-1.2-3.185-39.96-1.791-42.363-3.781.773-.615-.5-1.393,0-2.224.859-1.061,0-.785,0-5.283,0-9.954,42.875-13.3,34.2-19.677H259.659V145.823l-38.9,46.529,6.711-79.1,26.984,4.449L302.5,145.823Z" transform="translate(-143.81 -54.061)"/>
      <g id="Group_56" data-name="Group 56" transform="translate(126.502 60.219)">
        <rect id="Rectangle_194" data-name="Rectangle 194" class="cls-18" width="27.996" height="7.777" transform="translate(64.334 48.215)"/>
        <rect id="Rectangle_195" data-name="Rectangle 195" class="cls-18" width="52.881" height="9.332" transform="translate(39.448 23.33)"/>
        <rect id="Rectangle_197" data-name="Rectangle 197" class="cls-18" width="63.769" height="7.777"/>
        <rect id="Rectangle_198" data-name="Rectangle 198" class="cls-18" width="31.884" height="9.332" transform="translate(0 23.33)"/>
        <rect id="Rectangle_196" data-name="Rectangle 196" class="cls-18" width="15.553" height="7.777" transform="translate(76.776)"/>
      </g>
      <path id="Path_262" data-name="Path 262" class="cls-38" d="M291.68,67.945H275.753v7.963H291.68Zm-27.872,0H200.1v7.963h63.707Zm-23.89,23.89V99.8h-7.963V91.835H200.1V99.8H196.12v-8.76a19.952,19.952,0,0,0-12.741-18.714,18.917,18.917,0,0,0-18.316,2.389c-5.574,3.584-8.361,9.954-8.361,16.325v31.455l-6.371,24.528-2.123,2.622h-3.451V61.574c-.4-2.787,1.991-5.574,5.574-5.574H298.05a6,6,0,0,1,5.574,5.574V91.835H239.918Z" transform="translate(-73.724 -8.037)"/>
      <path id="Path_263" data-name="Path 263" class="cls-1" d="M47.573,227.138v-95.56H7.929v95.56Zm120.914-107.5a17.8,17.8,0,0,1,17.84,17.917,18.188,18.188,0,0,1-6.739,13.936,19.235,19.235,0,0,1,5.55,7.963h24.976a3.592,3.592,0,0,1,2.775,1.195l17.047,17.121V53.538a6.052,6.052,0,0,0-5.947-5.574H77.306a5.775,5.775,0,0,0-5.947,5.574v78.837l11.893-17.917V83a20.208,20.208,0,0,1,8.325-16.325,21.255,21.255,0,0,1,18.236-2.389A19.951,19.951,0,0,1,122.5,83v36.631Zm17.84,101.532a17.8,17.8,0,0,1-17.84,17.917h-89.2a3.592,3.592,0,0,1-2.775-1.194l-10.7-10.751H55.5v3.982a3.982,3.982,0,0,1-3.964,3.982H3.964A4.273,4.273,0,0,1,0,231.12V127.6a4.273,4.273,0,0,1,3.964-3.982H51.537A3.982,3.982,0,0,1,55.5,127.6v7.963H63.43V53.538A13.738,13.738,0,0,1,77.306,40H224.385a13.652,13.652,0,0,1,13.479,13.538V187.322a3.482,3.482,0,0,1-2.379,3.583,2.375,2.375,0,0,1-1.586.4,3.592,3.592,0,0,1-2.775-1.194l-22.6-22.7h-22.2a17.463,17.463,0,0,1-6.739,11.945,17.778,17.778,0,0,1,0,27.872A18.188,18.188,0,0,1,186.327,221.166ZM168.487,147.5a9.954,9.954,0,0,0,0-19.908H118.932a4.273,4.273,0,0,1-3.964-3.982V83a11.973,11.973,0,0,0-7.929-11.149c-3.568-1.593-7.532-.8-11.1,1.593A12.467,12.467,0,0,0,90.785,83.4v32.251a3.048,3.048,0,0,1-.793,1.991l-15.858,23.89a2.982,2.982,0,0,1-2.775,1.991H55.5v75.652H67.395a3.592,3.592,0,0,1,2.775,1.194l10.7,10.751h87.613a9.954,9.954,0,0,0,0-19.908h-33.7v-7.963h33.7a9.954,9.954,0,0,0,0-19.908h-33.7v-7.963h33.7a9.954,9.954,0,0,0,0-19.908h-33.7V147.5h33.7Z" transform="translate(0 0)"/>
      <g id="Group_93" data-name="Group 93" transform="translate(10.85 69.356)">
        <rect id="Rectangle_199" data-name="Rectangle 199" class="cls-39" width="47.574" height="111.616" transform="translate(0 55.541)"/>
        <path id="Path_327" data-name="Path 327" class="cls-40" d="M118.564,245.211V159.519l23.39-38.487V90.412s24.879-11.269,30.194,29.982c0,0,.426,14.885-1.7,20.2l47.206-.213s22.964,8.08,6.379,28.281c0,0,19.563,17.436-4.678,27.855,0,0,15.31,15.1-8.718,24.666,0,0,9.356,15.948-10.419,24.028Z" transform="translate(-63.868 -89.005)"/>
      </g>
    </g>
    <path id="Path_347" data-name="Path 347" d="M-52.08,0l-4.29-7.83h-.6V0h-5.91V-21.24h9.33a9.683,9.683,0,0,1,4.335.885A6.154,6.154,0,0,1-46.53-17.91a6.9,6.9,0,0,1,.9,3.51,6.232,6.232,0,0,1-1.23,3.855,6.5,6.5,0,0,1-3.54,2.3L-45.57,0Zm-4.89-11.79h2.91q2.46,0,2.46-2.22a2.2,2.2,0,0,0-.615-1.65,2.545,2.545,0,0,0-1.845-.6h-2.91Zm29.85,3.06a7.076,7.076,0,0,1-.15,1.38H-38.4q.15,2.85,2.49,2.85a2.363,2.363,0,0,0,1.44-.42,2.1,2.1,0,0,0,.78-1.11h6.24a7.137,7.137,0,0,1-1.47,3.2A7.889,7.889,0,0,1-31.8-.6a8.916,8.916,0,0,1-3.81.81A9.3,9.3,0,0,1-40.065-.825a7.323,7.323,0,0,1-3.015-3A9.412,9.412,0,0,1-44.16-8.43a9.326,9.326,0,0,1,1.08-4.59,7.323,7.323,0,0,1,3.03-2.985,9.324,9.324,0,0,1,4.44-1.035,9.323,9.323,0,0,1,4.44,1.02,7.276,7.276,0,0,1,2.985,2.91A8.77,8.77,0,0,1-27.12-8.73Zm-6-1.08a2.432,2.432,0,0,0-.69-1.95,2.563,2.563,0,0,0-1.8-.66,2.743,2.743,0,0,0-1.9.66,2.864,2.864,0,0,0-.855,1.95Zm16.53,4.14,3.18-11.16h6.27L-12.93,0h-7.32l-5.82-16.83h6.3ZM-5.67-21.48a2.784,2.784,0,0,1,.96-2.175,3.647,3.647,0,0,1,2.52-.855,3.535,3.535,0,0,1,2.49.855,2.825,2.825,0,0,1,.93,2.175,2.693,2.693,0,0,1-.945,2.1,3.586,3.586,0,0,1-2.475.84,3.688,3.688,0,0,1-2.52-.84A2.675,2.675,0,0,1-5.67-21.48ZM.72-16.83V0H-5.19V-16.83Zm19.44,8.1a7.076,7.076,0,0,1-.15,1.38H8.88Q9.03-4.5,11.37-4.5a2.363,2.363,0,0,0,1.44-.42,2.1,2.1,0,0,0,.78-1.11h6.24a7.137,7.137,0,0,1-1.47,3.2A7.889,7.889,0,0,1,15.48-.6a8.916,8.916,0,0,1-3.81.81A9.3,9.3,0,0,1,7.215-.825a7.323,7.323,0,0,1-3.015-3A9.412,9.412,0,0,1,3.12-8.43,9.326,9.326,0,0,1,4.2-13.02a7.323,7.323,0,0,1,3.03-2.985,9.324,9.324,0,0,1,4.44-1.035,9.323,9.323,0,0,1,4.44,1.02,7.276,7.276,0,0,1,2.985,2.91A8.77,8.77,0,0,1,20.16-8.73Zm-6-1.08a2.432,2.432,0,0,0-.69-1.95,2.563,2.563,0,0,0-1.8-.66,2.743,2.743,0,0,0-1.9.66A2.864,2.864,0,0,0,8.91-9.81Zm33.48-7.02L43.47,0h-6.6L34.32-10.47,31.71,0H25.08L20.97-16.83h5.85L28.65-5.58l2.64-11.25h6.27L40.32-5.49l1.86-11.34Zm5.88,1.14v-5.55h9.36V0H56.7V-15.69Z" transform="translate(1372.413 183.958)"/>
    <path id="Path_348" data-name="Path 348" class="cls-14" d="M-101.385.183a5.022,5.022,0,0,1-3.778-1.331,5.114,5.114,0,0,1-1.288-3.711v-8.069a5.1,5.1,0,0,1,1.294-3.717,5.04,5.04,0,0,1,3.772-1.324,5.05,5.05,0,0,1,3.778,1.318,5.105,5.105,0,0,1,1.288,3.723v8.069a5.1,5.1,0,0,1-1.294,3.717A5.04,5.04,0,0,1-101.385.183Zm0-1.636a3.225,3.225,0,0,0,2.5-.885,3.614,3.614,0,0,0,.806-2.521v-8.069a3.61,3.61,0,0,0-.806-2.527,3.238,3.238,0,0,0-2.5-.879,3.238,3.238,0,0,0-2.5.879,3.61,3.61,0,0,0-.806,2.527v8.069a3.615,3.615,0,0,0,.806,2.521A3.225,3.225,0,0,0-101.385-1.453Zm15.747-7.361-.012.439a1.693,1.693,0,0,1-1.007.818,5.09,5.09,0,0,1-1.74.269,4.535,4.535,0,0,1-2.429-.647A4.3,4.3,0,0,1-92.45-9.76a6.159,6.159,0,0,1-.574-2.728V-12.5a6.81,6.81,0,0,1,.58-2.942,4.09,4.09,0,0,1,1.7-1.855,5.339,5.339,0,0,1,2.679-.635,5.224,5.224,0,0,1,2.673.647,4.16,4.16,0,0,1,1.691,1.88,6.924,6.924,0,0,1,.58,2.966v.012a9.241,9.241,0,0,1-.244,2.032,12.519,12.519,0,0,1-.7,2.142q-.073.159-.146.323t-.159.323L-88.153,0h-1.953Zm-2.429-.134A2.958,2.958,0,0,0-85.712-9.9a3.958,3.958,0,0,0,.83-2.686V-12.6a4.007,4.007,0,0,0-.836-2.71,2.944,2.944,0,0,0-2.35-.964,2.958,2.958,0,0,0-2.362.964,4.027,4.027,0,0,0-.836,2.722v.012a3.915,3.915,0,0,0,.836,2.679A2.987,2.987,0,0,0-88.068-8.948ZM-79.828-2h2V0h-2Zm0-10.913h2v2h-2Zm10,13.1a5.022,5.022,0,0,1-3.778-1.331A5.114,5.114,0,0,1-74.9-4.858v-8.069A5.1,5.1,0,0,1-73.6-16.644a5.04,5.04,0,0,1,3.772-1.324,5.05,5.05,0,0,1,3.778,1.318,5.105,5.105,0,0,1,1.288,3.723v8.069a5.1,5.1,0,0,1-1.294,3.717A5.04,5.04,0,0,1-69.83.183Zm0-1.636a3.225,3.225,0,0,0,2.5-.885,3.614,3.614,0,0,0,.806-2.521v-8.069a3.61,3.61,0,0,0-.806-2.527,3.238,3.238,0,0,0-2.5-.879,3.238,3.238,0,0,0-2.5.879,3.61,3.61,0,0,0-.806,2.527v8.069a3.615,3.615,0,0,0,.806,2.521A3.225,3.225,0,0,0-69.83-1.453ZM-56.525.183A5.022,5.022,0,0,1-60.3-1.147a5.114,5.114,0,0,1-1.288-3.711v-8.069A5.1,5.1,0,0,1-60.3-16.644a5.04,5.04,0,0,1,3.772-1.324,5.05,5.05,0,0,1,3.778,1.318,5.105,5.105,0,0,1,1.288,3.723v8.069a5.1,5.1,0,0,1-1.294,3.717A5.04,5.04,0,0,1-56.525.183Zm0-1.636a3.225,3.225,0,0,0,2.5-.885,3.614,3.614,0,0,0,.806-2.521v-8.069a3.61,3.61,0,0,0-.806-2.527,3.238,3.238,0,0,0-2.5-.879,3.238,3.238,0,0,0-2.5.879,3.61,3.61,0,0,0-.806,2.527v8.069a3.615,3.615,0,0,0,.806,2.521A3.225,3.225,0,0,0-56.525-1.453Zm15.564-11.218H-39.2V5.151h-1.758ZM-35.284.183A5.846,5.846,0,0,1-37.86-.323,3.07,3.07,0,0,1-39.374-1.99l.171-2.649a3.451,3.451,0,0,0,.391,1.593,3.191,3.191,0,0,0,1.123,1.239,3.065,3.065,0,0,0,1.709.476,3.16,3.16,0,0,0,2.454-.946,3.787,3.787,0,0,0,.867-2.655V-7.678a3.89,3.89,0,0,0-.867-2.7,3.139,3.139,0,0,0-2.454-.958,3.1,3.1,0,0,0-1.709.47,3.182,3.182,0,0,0-1.123,1.215A3.319,3.319,0,0,0-39.2-8.093l-.256-2.441a4.018,4.018,0,0,1,1.752-1.776,5.649,5.649,0,0,1,2.545-.543,4.226,4.226,0,0,1,2.3.6A3.792,3.792,0,0,1-31.4-10.486a7.035,7.035,0,0,1,.5,2.8v2.759a6.732,6.732,0,0,1-.513,2.759,3.81,3.81,0,0,1-1.5,1.752A4.455,4.455,0,0,1-35.284.183Zm23.792-7.861a3.86,3.86,0,0,0-.806-2.612,2.846,2.846,0,0,0-2.271-.928,2.918,2.918,0,0,0-2.289.9,3.667,3.667,0,0,0-.812,2.539l-.745-1.831a5.422,5.422,0,0,1,1.7-2.411,4.156,4.156,0,0,1,2.612-.836,4.423,4.423,0,0,1,2.362.6,3.813,3.813,0,0,1,1.5,1.764,6.888,6.888,0,0,1,.513,2.8V0h-1.758Zm-15.869-4.993H-25.6V0h-1.758Zm7.935,4.993a3.879,3.879,0,0,0-.8-2.612,2.842,2.842,0,0,0-2.277-.928,3.043,3.043,0,0,0-2.289.836A3.251,3.251,0,0,0-25.6-8.02l-.256-2.441a4.078,4.078,0,0,1,1.66-1.831,4.9,4.9,0,0,1,2.393-.562,4.034,4.034,0,0,1,2.24.6,3.739,3.739,0,0,1,1.416,1.764,7.272,7.272,0,0,1,.482,2.8V0h-1.758ZM.641-2h2V0h-2Zm0-10.913h2v2h-2ZM17.3,0H15.546V-16.26l-3.259,2.039v-1.843l2.527-1.685H17.3Zm8.313,0H23.859V-16.26L20.6-14.221v-1.843l2.527-1.685h2.49Zm4.028-2h2V0h-2Zm0-10.913h2v2h-2Zm10,13.1a5.022,5.022,0,0,1-3.778-1.331,5.114,5.114,0,0,1-1.288-3.711v-8.069a5.1,5.1,0,0,1,1.294-3.717,5.04,5.04,0,0,1,3.772-1.324A5.05,5.05,0,0,1,43.42-16.65a5.105,5.105,0,0,1,1.288,3.723v8.069a5.1,5.1,0,0,1-1.294,3.717A5.04,5.04,0,0,1,39.642.183Zm0-1.636a3.225,3.225,0,0,0,2.5-.885,3.614,3.614,0,0,0,.806-2.521v-8.069a3.61,3.61,0,0,0-.806-2.527,3.238,3.238,0,0,0-2.5-.879,3.238,3.238,0,0,0-2.5.879,3.61,3.61,0,0,0-.806,2.527v8.069a3.615,3.615,0,0,0,.806,2.521A3.225,3.225,0,0,0,39.642-1.453ZM52.948.183A5.022,5.022,0,0,1,49.17-1.147a5.114,5.114,0,0,1-1.288-3.711v-8.069a5.1,5.1,0,0,1,1.294-3.717,5.04,5.04,0,0,1,3.772-1.324,5.05,5.05,0,0,1,3.778,1.318,5.105,5.105,0,0,1,1.288,3.723v8.069A5.1,5.1,0,0,1,56.72-1.141,5.04,5.04,0,0,1,52.948.183Zm0-1.636a3.225,3.225,0,0,0,2.5-.885,3.614,3.614,0,0,0,.806-2.521v-8.069a3.61,3.61,0,0,0-.806-2.527,3.238,3.238,0,0,0-2.5-.879,3.238,3.238,0,0,0-2.5.879,3.61,3.61,0,0,0-.806,2.527v8.069a3.615,3.615,0,0,0,.806,2.521A3.225,3.225,0,0,0,52.948-1.453ZM68.512-12.671H70.27V5.151H68.512ZM74.188.183a5.846,5.846,0,0,1-2.576-.507A3.07,3.07,0,0,1,70.1-1.99l.171-2.649a3.451,3.451,0,0,0,.391,1.593,3.191,3.191,0,0,0,1.123,1.239,3.065,3.065,0,0,0,1.709.476,3.16,3.16,0,0,0,2.454-.946,3.787,3.787,0,0,0,.867-2.655V-7.678a3.89,3.89,0,0,0-.867-2.7,3.139,3.139,0,0,0-2.454-.958,3.1,3.1,0,0,0-1.709.47A3.182,3.182,0,0,0,70.66-9.656a3.319,3.319,0,0,0-.391,1.563l-.256-2.441a4.018,4.018,0,0,1,1.752-1.776,5.649,5.649,0,0,1,2.545-.543,4.226,4.226,0,0,1,2.3.6,3.792,3.792,0,0,1,1.459,1.764,7.035,7.035,0,0,1,.5,2.8v2.759a6.732,6.732,0,0,1-.513,2.759,3.81,3.81,0,0,1-1.5,1.752A4.455,4.455,0,0,1,74.188.183ZM97.98-7.678a3.86,3.86,0,0,0-.806-2.612,2.846,2.846,0,0,0-2.271-.928,2.918,2.918,0,0,0-2.289.9A3.667,3.667,0,0,0,91.8-7.776l-.745-1.831a5.422,5.422,0,0,1,1.7-2.411,4.156,4.156,0,0,1,2.612-.836,4.423,4.423,0,0,1,2.362.6,3.813,3.813,0,0,1,1.5,1.764,6.888,6.888,0,0,1,.513,2.8V0H97.98ZM82.111-12.671h1.758V0H82.111Zm7.935,4.993a3.879,3.879,0,0,0-.8-2.612,2.842,2.842,0,0,0-2.277-.928,3.043,3.043,0,0,0-2.289.836,3.251,3.251,0,0,0-.812,2.362l-.256-2.441a4.078,4.078,0,0,1,1.66-1.831,4.9,4.9,0,0,1,2.393-.562,4.034,4.034,0,0,1,2.24.6,3.739,3.739,0,0,1,1.416,1.764,7.272,7.272,0,0,1,.482,2.8V0H90.045Z" transform="translate(1372.413 227.958)"/>
    <g id="Group_59" data-name="Group 59" transform="translate(-369.587 -218.267)">
      <ellipse id="Ellipse_8" data-name="Ellipse 8" class="cls-41" cx="165.5" cy="25.633" rx="165.5" ry="25.633" transform="translate(1973 435.959)"/>
      <g id="Group_58" data-name="Group 58" transform="translate(1995.411 280.933)">
        <path id="Path_267" data-name="Path 267" class="cls-42" d="M471.855,306.119s-14.5,1.686-20.912,24.623-27.659,95.794-27.659,95.794c-.55,3.08-3.418,20.727,7.8,33.431,16.081,18.211,45.389,8.47,48.866,7.256,25.637-8.947,34.55-34.369,35.754-37.989,0,0,45.873-23.948,96.469-.337,23.32,30.871,51.919,46.411,73.072,39.2,9.745-3.323,15.568-10.856,18.338-14.577C725.17,424.513,676.6,318.937,676.6,318.937s-9.107-11.806-17.54-10.794L656.023,296s-.337-4.835-6.634-5.959L620.606,281.5c.008-.73-5.836-1.419-7.42,2.024-1.226,2.663-8.545,7.87-8.545,7.87l-76.456.225L514.018,280.6,476.69,291.616Z" transform="translate(-422.552 -279.979)"/>
        <path id="Path_268" data-name="Path 268" class="cls-43" d="M497.192,306.12l56.33-14.5L539.354,280.6l-37.328,11.019Z" transform="translate(-447.888 -279.979)"/>
        <path id="Path_269" data-name="Path 269" class="cls-43" d="M698.213,291.073l12.255-11.412,39.127,12.48,3.036,15.685Z" transform="translate(-516.125 -279.661)"/>
        <circle id="Ellipse_3" data-name="Ellipse 3" class="cls-43" cx="43.512" cy="43.512" r="43.512" transform="translate(33.619 32.212)"/>
        <circle id="Ellipse_4" data-name="Ellipse 4" class="cls-14" cx="33.393" cy="33.393" r="33.393" transform="translate(43.738 42.332)"/>
        <circle id="Ellipse_5" data-name="Ellipse 5" class="cls-9" cx="10.203" cy="10.203" r="10.203" transform="translate(66.927 65.521)"/>
        <circle id="Ellipse_6" data-name="Ellipse 6" class="cls-43" cx="43.512" cy="43.512" r="43.512" transform="translate(166.222 32.775)"/>
        <rect id="Rectangle_200" data-name="Rectangle 200" class="cls-14" width="25.185" height="74.207" transform="translate(196.592 39.183)"/>
        <rect id="Rectangle_201" data-name="Rectangle 201" class="cls-14" width="74.207" height="24.398" transform="translate(172.082 63.807)"/>
        <path id="Path_270" data-name="Path 270" class="cls-9" d="M734.376,345.278l-6.556,11.355h13.112Z" transform="translate(-524.817 -295.9)"/>
        <path id="Path_271" data-name="Path 271" class="cls-9" d="M779.264,389.461l-11.355-6.556v13.112Z" transform="translate(-543.442 -313.382)"/>
        <path id="Path_272" data-name="Path 272" class="cls-9" d="M734.376,435.946l6.556-11.355H727.821Z" transform="translate(-524.817 -332.75)"/>
        <path id="Path_273" data-name="Path 273" class="cls-9" d="M688.754,389.461l11.355,6.556V382.905Z" transform="translate(-506.666 -313.382)"/>
        <rect id="Rectangle_202" data-name="Rectangle 202" class="cls-44" width="14.444" height="14.444" rx="4" transform="translate(136.058 106.168)"/>
        <path id="Path_275" data-name="Path 275" class="cls-44" d="M638.638,294.725" transform="translate(-495.902 -284.774)"/>
        <path id="Path_276" data-name="Path 276" class="cls-45" d="M423.5,369.928s-7.692,61.1,56.858,41.059S423.5,369.928,423.5,369.928Z" transform="translate(-423.218 -224.094)"/>
        <path id="Path_277" data-name="Path 277" class="cls-45" d="M496.713,369.928s7.461,61.1-55.152,41.059S496.713,369.928,496.713,369.928Z" transform="translate(-210.428 -225.711)"/>
      </g>
      <g id="Ellipse_7" data-name="Ellipse 7" class="cls-46" transform="translate(2051.013 334.542)">
        <circle class="cls-47" cx="21.732" cy="21.732" r="21.732"/>
        <circle class="cls-1" cx="21.732" cy="21.732" r="21.232"/>
      </g>
    </g>
    <path id="Path_349" data-name="Path 349" d="M-80.805-21.42a10.763,10.763,0,0,1,6.69,1.98,8.047,8.047,0,0,1,3.15,5.34h-6.21a3.473,3.473,0,0,0-1.41-1.38,4.486,4.486,0,0,0-2.19-.51,4.336,4.336,0,0,0-3.435,1.455,5.684,5.684,0,0,0-1.275,3.885A5.826,5.826,0,0,0-84.12-6.465a5.292,5.292,0,0,0,4,1.425,4.838,4.838,0,0,0,2.64-.72,4.883,4.883,0,0,0,1.8-2.13h-5.88v-4.2h10.77v5.85A11.1,11.1,0,0,1-74.43-1.725,10.247,10.247,0,0,1-80.745.15a11.385,11.385,0,0,1-5.67-1.365A9.3,9.3,0,0,1-90.15-5.04a11.787,11.787,0,0,1-1.305-5.61,11.7,11.7,0,0,1,1.305-5.6,9.374,9.374,0,0,1,3.705-3.81A11.217,11.217,0,0,1-80.805-21.42Zm18.9,4.38a5.971,5.971,0,0,1,3.075.765,4.713,4.713,0,0,1,1.935,2.115v-2.67h5.88V0h-5.88V-2.67A4.713,4.713,0,0,1-58.83-.555,5.971,5.971,0,0,1-61.9.21a6.6,6.6,0,0,1-3.63-1.035,7.005,7.005,0,0,1-2.55-3,10.662,10.662,0,0,1-.93-4.605,10.562,10.562,0,0,1,.93-4.59,7.02,7.02,0,0,1,2.55-2.985A6.6,6.6,0,0,1-61.9-17.04Zm1.95,5.16a2.917,2.917,0,0,0-2.235.915,3.568,3.568,0,0,0-.855,2.535,3.613,3.613,0,0,0,.855,2.565,2.917,2.917,0,0,0,2.235.915,2.872,2.872,0,0,0,2.19-.93,3.585,3.585,0,0,0,.87-2.55,3.541,3.541,0,0,0-.87-2.52A2.872,2.872,0,0,0-59.955-11.88Zm34.32-5.1a6.445,6.445,0,0,1,4.965,1.92,7.452,7.452,0,0,1,1.785,5.28V0h-5.88V-9.03a2.839,2.839,0,0,0-.75-2.1,2.716,2.716,0,0,0-2.01-.75,2.817,2.817,0,0,0-2.085.765,2.942,2.942,0,0,0-.765,2.175V0h-5.88V-9.03a2.839,2.839,0,0,0-.75-2.1,2.716,2.716,0,0,0-2.01-.75,2.817,2.817,0,0,0-2.085.765,2.942,2.942,0,0,0-.765,2.175V0h-5.91V-16.83h5.91v2.58a5.276,5.276,0,0,1,2.01-1.995,6.017,6.017,0,0,1,3.03-.735,6.487,6.487,0,0,1,3.33.84,5.8,5.8,0,0,1,2.25,2.4A6.681,6.681,0,0,1-28.9-16.1,6.218,6.218,0,0,1-25.635-16.98ZM.4-8.73a7.076,7.076,0,0,1-.15,1.38h-11.13q.15,2.85,2.49,2.85a2.363,2.363,0,0,0,1.44-.42,2.1,2.1,0,0,0,.78-1.11H.075a7.137,7.137,0,0,1-1.47,3.2A7.889,7.889,0,0,1-4.275-.6a8.916,8.916,0,0,1-3.81.81A9.3,9.3,0,0,1-12.54-.825a7.323,7.323,0,0,1-3.015-3,9.412,9.412,0,0,1-1.08-4.605,9.326,9.326,0,0,1,1.08-4.59,7.323,7.323,0,0,1,3.03-2.985,9.324,9.324,0,0,1,4.44-1.035,9.323,9.323,0,0,1,4.44,1.02A7.276,7.276,0,0,1-.66-13.11,8.77,8.77,0,0,1,.4-8.73Zm-6-1.08a2.432,2.432,0,0,0-.69-1.95,2.563,2.563,0,0,0-1.8-.66,2.743,2.743,0,0,0-1.9.66,2.864,2.864,0,0,0-.855,1.95ZM27.945,0h-5.91l-7.8-11.85V0H8.325V-21.21h5.91l7.8,12v-12h5.91Zm2.79-21.48a2.784,2.784,0,0,1,.96-2.175,3.647,3.647,0,0,1,2.52-.855,3.535,3.535,0,0,1,2.49.855,2.825,2.825,0,0,1,.93,2.175,2.693,2.693,0,0,1-.945,2.1,3.586,3.586,0,0,1-2.475.84,3.688,3.688,0,0,1-2.52-.84A2.675,2.675,0,0,1,30.735-21.48Zm6.39,4.65V0h-5.91V-16.83Zm9.51-.21a5.971,5.971,0,0,1,3.075.765,4.713,4.713,0,0,1,1.935,2.115v-2.67h5.88V-.18a9.814,9.814,0,0,1-.9,4.245,7,7,0,0,1-2.79,3.045,9.106,9.106,0,0,1-4.77,1.14A9.842,9.842,0,0,1,42.81,6.42,7.215,7.215,0,0,1,40.1,1.41h5.79a2.082,2.082,0,0,0,.9,1.29,3.368,3.368,0,0,0,1.86.45q3,0,3-3.33V-2.67A4.713,4.713,0,0,1,49.71-.555,5.971,5.971,0,0,1,46.635.21a6.6,6.6,0,0,1-3.63-1.035,7.005,7.005,0,0,1-2.55-3,10.662,10.662,0,0,1-.93-4.605,10.562,10.562,0,0,1,.93-4.59,7.02,7.02,0,0,1,2.55-2.985A6.6,6.6,0,0,1,46.635-17.04Zm1.95,5.16a2.917,2.917,0,0,0-2.235.915A3.568,3.568,0,0,0,45.5-8.43a3.613,3.613,0,0,0,.855,2.565,2.917,2.917,0,0,0,2.235.915,2.872,2.872,0,0,0,2.19-.93,3.585,3.585,0,0,0,.87-2.55,3.541,3.541,0,0,0-.87-2.52A2.872,2.872,0,0,0,48.585-11.88Zm23.43-5.1a5.673,5.673,0,0,1,4.56,1.935,7.85,7.85,0,0,1,1.65,5.265V0h-5.85V-9.03a3.246,3.246,0,0,0-.765-2.3,2.667,2.667,0,0,0-2.055-.825,2.7,2.7,0,0,0-2.1.855,3.364,3.364,0,0,0-.78,2.355V0h-5.91V-22.2h5.91v8.19a5.446,5.446,0,0,1,2.1-2.16A6.284,6.284,0,0,1,72.015-16.98ZM91.395-5.04V0h-2.43a7.068,7.068,0,0,1-4.83-1.53Q82.4-3.06,82.395-6.6v-5.31h-2.16v-4.92h2.16v-4.08h5.91v4.08h3.03v4.92h-3.03v5.43a1.49,1.49,0,0,0,.345,1.11,1.643,1.643,0,0,0,1.155.33Z" transform="translate(1751.413 464.958)"/>
    <path id="Path_350" data-name="Path 350" class="cls-14" d="M-83.069,0h-1.758V-16.26l-3.259,2.039v-1.843l2.527-1.685h2.49Zm8.313,0h-1.758V-16.26l-3.259,2.039v-1.843l2.527-1.685h2.49Zm4.028-2h2V0h-2Zm0-10.913h2v2h-2Zm10,13.1a5.022,5.022,0,0,1-3.778-1.331A5.114,5.114,0,0,1-65.8-4.858v-8.069A5.1,5.1,0,0,1-64.5-16.644a5.04,5.04,0,0,1,3.772-1.324,5.05,5.05,0,0,1,3.778,1.318,5.105,5.105,0,0,1,1.288,3.723v8.069a5.1,5.1,0,0,1-1.294,3.717A5.04,5.04,0,0,1-60.73.183Zm0-1.636a3.225,3.225,0,0,0,2.5-.885,3.614,3.614,0,0,0,.806-2.521v-8.069a3.61,3.61,0,0,0-.806-2.527,3.238,3.238,0,0,0-2.5-.879,3.238,3.238,0,0,0-2.5.879,3.61,3.61,0,0,0-.806,2.527v8.069a3.615,3.615,0,0,0,.806,2.521A3.225,3.225,0,0,0-60.73-1.453ZM-47.424.183A5.022,5.022,0,0,1-51.2-1.147,5.114,5.114,0,0,1-52.49-4.858v-8.069A5.1,5.1,0,0,1-51.2-16.644a5.04,5.04,0,0,1,3.772-1.324,5.05,5.05,0,0,1,3.778,1.318,5.105,5.105,0,0,1,1.288,3.723v8.069a5.1,5.1,0,0,1-1.294,3.717A5.04,5.04,0,0,1-47.424.183Zm0-1.636a3.225,3.225,0,0,0,2.5-.885,3.614,3.614,0,0,0,.806-2.521v-8.069a3.61,3.61,0,0,0-.806-2.527,3.238,3.238,0,0,0-2.5-.879,3.238,3.238,0,0,0-2.5.879,3.61,3.61,0,0,0-.806,2.527v8.069a3.615,3.615,0,0,0,.806,2.521A3.225,3.225,0,0,0-47.424-1.453ZM-31.86-12.671H-30.1V5.151H-31.86ZM-26.184.183A5.846,5.846,0,0,1-28.76-.323,3.07,3.07,0,0,1-30.273-1.99l.171-2.649a3.451,3.451,0,0,0,.391,1.593,3.191,3.191,0,0,0,1.123,1.239,3.065,3.065,0,0,0,1.709.476,3.16,3.16,0,0,0,2.454-.946,3.787,3.787,0,0,0,.867-2.655V-7.678a3.89,3.89,0,0,0-.867-2.7,3.139,3.139,0,0,0-2.454-.958,3.1,3.1,0,0,0-1.709.47,3.182,3.182,0,0,0-1.123,1.215A3.319,3.319,0,0,0-30.1-8.093l-.256-2.441a4.018,4.018,0,0,1,1.752-1.776,5.649,5.649,0,0,1,2.545-.543,4.226,4.226,0,0,1,2.3.6A3.792,3.792,0,0,1-22.3-10.486a7.035,7.035,0,0,1,.5,2.8v2.759a6.732,6.732,0,0,1-.513,2.759,3.81,3.81,0,0,1-1.5,1.752A4.455,4.455,0,0,1-26.184.183ZM-2.393-7.678A3.86,3.86,0,0,0-3.2-10.291a2.846,2.846,0,0,0-2.271-.928,2.918,2.918,0,0,0-2.289.9,3.667,3.667,0,0,0-.812,2.539l-.745-1.831a5.422,5.422,0,0,1,1.7-2.411A4.156,4.156,0,0,1-5-12.854a4.423,4.423,0,0,1,2.362.6,3.813,3.813,0,0,1,1.5,1.764,6.888,6.888,0,0,1,.513,2.8V0H-2.393Zm-15.869-4.993H-16.5V0h-1.758Zm7.935,4.993a3.879,3.879,0,0,0-.8-2.612,2.842,2.842,0,0,0-2.277-.928,3.043,3.043,0,0,0-2.289.836A3.251,3.251,0,0,0-16.5-8.02l-.256-2.441a4.078,4.078,0,0,1,1.66-1.831,4.9,4.9,0,0,1,2.393-.562,4.034,4.034,0,0,1,2.24.6,3.739,3.739,0,0,1,1.416,1.764,7.272,7.272,0,0,1,.482,2.8V0h-1.758ZM14.941-17.749h2.124L23.608,0H21.655L16-15.906,10.352,0H8.4Zm-3.528,11.8h9.338v1.636H11.414ZM26.05-12.671h1.758V0H26.05ZM33.508-10.4a2.49,2.49,0,0,0-.983-.61,4.148,4.148,0,0,0-1.373-.208,3.4,3.4,0,0,0-2.466.848,3.113,3.113,0,0,0-.879,2.35l-.256-2.441a4.923,4.923,0,0,1,1.825-1.764,5,5,0,0,1,2.472-.629,4.647,4.647,0,0,1,1.569.25,3.509,3.509,0,0,1,1.227.739ZM41.333.183a5.753,5.753,0,0,1-2.82-.647A4.269,4.269,0,0,1,36.725-2.35a6.641,6.641,0,0,1-.616-2.985V-7.4a6.5,6.5,0,0,1,.616-2.948,4.246,4.246,0,0,1,1.788-1.868,5.8,5.8,0,0,1,2.82-.641,5.8,5.8,0,0,1,2.82.641,4.246,4.246,0,0,1,1.788,1.868A6.5,6.5,0,0,1,46.558-7.4v2.1a6.533,6.533,0,0,1-.616,2.96A4.282,4.282,0,0,1,44.153-.464,5.753,5.753,0,0,1,41.333.183Zm-.012-1.636A3.285,3.285,0,0,0,43.89-2.46,4.087,4.087,0,0,0,44.8-5.3V-7.4a4.045,4.045,0,0,0-.909-2.82,3.3,3.3,0,0,0-2.57-1,3.26,3.26,0,0,0-2.551,1,4.062,4.062,0,0,0-.9,2.82v2.1a4.1,4.1,0,0,0,.9,2.838A3.25,3.25,0,0,0,41.321-1.453ZM58.167-12.671h1.746V0H58.167Zm-6.616,7.7a3.64,3.64,0,0,0,.867,2.594,3.2,3.2,0,0,0,2.454.922,3.336,3.336,0,0,0,2.435-.842,3.179,3.179,0,0,0,.861-2.38l.171,2.649A3.809,3.809,0,0,1,56.805-.452a5.069,5.069,0,0,1-2.631.635,4.011,4.011,0,0,1-3.241-1.349,5.718,5.718,0,0,1-1.141-3.8v-7.7H51.55Zm12.146-7.7h1.758V0H63.7Zm8.423,4.993a3.634,3.634,0,0,0-.885-2.612,3.286,3.286,0,0,0-2.5-.928,3.363,3.363,0,0,0-2.423.824,3.084,3.084,0,0,0-.861,2.338L65.2-10.5a4.119,4.119,0,0,1,1.782-1.8,5.688,5.688,0,0,1,2.576-.555,3.932,3.932,0,0,1,3.192,1.349A5.781,5.781,0,0,1,73.877-7.69V0H72.119ZM85.6-17.749h1.758V0H85.6ZM81.677.183a4.455,4.455,0,0,1-2.368-.6,3.81,3.81,0,0,1-1.5-1.752,6.732,6.732,0,0,1-.513-2.759V-7.69a7.035,7.035,0,0,1,.5-2.8,3.792,3.792,0,0,1,1.459-1.764,4.226,4.226,0,0,1,2.3-.6,5.649,5.649,0,0,1,2.545.543,4.018,4.018,0,0,1,1.752,1.776L85.6-8.093a3.385,3.385,0,0,0-.385-1.575,3.091,3.091,0,0,0-1.117-1.208,3.148,3.148,0,0,0-1.721-.464,3.139,3.139,0,0,0-2.454.958,3.89,3.89,0,0,0-.867,2.7v2.747a3.787,3.787,0,0,0,.867,2.655,3.16,3.16,0,0,0,2.454.946,3.065,3.065,0,0,0,1.709-.476,3.191,3.191,0,0,0,1.123-1.239A3.451,3.451,0,0,0,85.6-4.639l.171,2.649A3.07,3.07,0,0,1,84.253-.323,5.846,5.846,0,0,1,81.677.183Z" transform="translate(1751.413 509.958)"/>
    <path id="Path_365" data-name="Path 365" class="cls-4" d="M25,0,50,43H0Z" transform="translate(270.413 403.958) rotate(180)"/>
    <path id="Path_366" data-name="Path 366" class="cls-5" d="M25,0,50,43H0Z" transform="translate(1022.413 403.958) rotate(180)"/>
    <path id="Path_358" data-name="Path 358" class="cls-3" d="M25,0,50,43H0Z" transform="translate(1776.413 403.958) rotate(180)"/>
    <path id="Path_367" data-name="Path 367" class="cls-3" d="M25,0,50,43H0Z" transform="translate(595.413 281.958)"/>
    <path id="Path_359" data-name="Path 359" class="cls-4" d="M25,0,50,43H0Z" transform="translate(1347.413 281.958)"/>
    <path id="Path_360" data-name="Path 360" class="cls-3" d="M30,0,60,52.174H0Z" transform="translate(1974.587 313.958) rotate(90)"/>
    <g id="Group_104" data-name="Group 104" transform="translate(21.625 6)">
      <path id="Path_342" data-name="Path 342" class="cls-14" d="M11.6,2.251h0Zm24.829-.22Zm13.306,0ZM73.5,12.822v1.636H65.3V12.822Zm72.229,12.329h0Z" transform="translate(110.413 481.474)"/>
      <path id="Path_352" data-name="Path 352" class="cls-14" d="M17,20H15.238V3.74L11.979,5.779V3.936l2.527-1.685H17Zm9.094.183a5.022,5.022,0,0,1-3.778-1.331,5.114,5.114,0,0,1-1.288-3.711V7.073a5.1,5.1,0,0,1,1.294-3.717A5.04,5.04,0,0,1,26.09,2.031,5.05,5.05,0,0,1,29.868,3.35a5.105,5.105,0,0,1,1.288,3.723v8.069a5.1,5.1,0,0,1-1.294,3.717A5.04,5.04,0,0,1,26.09,20.183Zm0-1.636a3.225,3.225,0,0,0,2.5-.885,3.615,3.615,0,0,0,.806-2.521V7.073a3.61,3.61,0,0,0-.806-2.527,3.238,3.238,0,0,0-2.5-.879,3.238,3.238,0,0,0-2.5.879,3.61,3.61,0,0,0-.806,2.527v8.069a3.615,3.615,0,0,0,.806,2.521A3.225,3.225,0,0,0,26.09,18.547Zm8-.549h2v2h-2Zm0-10.913h2v2h-2Zm10,13.1a5.022,5.022,0,0,1-3.778-1.331,5.114,5.114,0,0,1-1.288-3.711V7.073a5.1,5.1,0,0,1,1.294-3.717,5.04,5.04,0,0,1,3.772-1.324A5.05,5.05,0,0,1,47.862,3.35a5.105,5.105,0,0,1,1.288,3.723v8.069a5.1,5.1,0,0,1-1.294,3.717A5.04,5.04,0,0,1,44.083,20.183Zm0-1.636a3.225,3.225,0,0,0,2.5-.885,3.615,3.615,0,0,0,.806-2.521V7.073a3.61,3.61,0,0,0-.806-2.527,3.238,3.238,0,0,0-2.5-.879,3.238,3.238,0,0,0-2.5.879,3.61,3.61,0,0,0-.806,2.527v8.069a3.615,3.615,0,0,0,.806,2.521A3.225,3.225,0,0,0,44.083,18.547Zm13.306,1.636a5.022,5.022,0,0,1-3.778-1.331,5.114,5.114,0,0,1-1.288-3.711V7.073a5.1,5.1,0,0,1,1.294-3.717,5.04,5.04,0,0,1,3.772-1.324A5.05,5.05,0,0,1,61.167,3.35a5.105,5.105,0,0,1,1.288,3.723v8.069a5.1,5.1,0,0,1-1.294,3.717A5.04,5.04,0,0,1,57.389,20.183Zm0-1.636a3.225,3.225,0,0,0,2.5-.885,3.615,3.615,0,0,0,.806-2.521V7.073a3.61,3.61,0,0,0-.806-2.527,4,4,0,0,0-5,0,3.61,3.61,0,0,0-.806,2.527v8.069a3.615,3.615,0,0,0,.806,2.521A3.225,3.225,0,0,0,57.389,18.547Z" transform="translate(105.636 483.958)"/>
    </g>
    <path id="Path_368" data-name="Path 368" d="M10.015,21H8.187V4.09L4.8,6.21V4.293L7.425,2.541h2.59Zm8.646,0H16.832V4.09l-3.39,2.12V4.293L16.07,2.541h2.59Zm4.189-2.082h2.082V21H22.85Zm0-11.35h2.082V9.65H22.85Zm10.4,13.622a5.223,5.223,0,0,1-3.929-1.384,5.318,5.318,0,0,1-1.339-3.859V7.556A5.3,5.3,0,0,1,29.324,3.69a5.241,5.241,0,0,1,3.923-1.377,5.252,5.252,0,0,1,3.929,1.371,5.31,5.31,0,0,1,1.339,3.872v8.392a5.3,5.3,0,0,1-1.346,3.866A5.241,5.241,0,0,1,33.247,21.19Zm0-1.7a3.354,3.354,0,0,0,2.6-.92,3.759,3.759,0,0,0,.838-2.622V7.556a3.755,3.755,0,0,0-.838-2.628,3.367,3.367,0,0,0-2.6-.914,3.367,3.367,0,0,0-2.6.914,3.755,3.755,0,0,0-.838,2.628v8.392a3.759,3.759,0,0,0,.838,2.622A3.354,3.354,0,0,0,33.247,19.489Zm13.838,1.7a5.223,5.223,0,0,1-3.929-1.384,5.318,5.318,0,0,1-1.339-3.859V7.556A5.3,5.3,0,0,1,43.162,3.69a5.241,5.241,0,0,1,3.923-1.377,5.252,5.252,0,0,1,3.929,1.371,5.31,5.31,0,0,1,1.339,3.872v8.392a5.3,5.3,0,0,1-1.346,3.866A5.241,5.241,0,0,1,47.085,21.19Zm0-1.7a3.354,3.354,0,0,0,2.6-.92,3.759,3.759,0,0,0,.838-2.622V7.556a3.755,3.755,0,0,0-.838-2.628,3.367,3.367,0,0,0-2.6-.914,3.367,3.367,0,0,0-2.6.914,3.755,3.755,0,0,0-.838,2.628v8.392a3.759,3.759,0,0,0,.838,2.622A3.354,3.354,0,0,0,47.085,19.489Zm24.261-6.843a3.415,3.415,0,0,0-.857-2.482,3.233,3.233,0,0,0-2.431-.882,5.712,5.712,0,0,0-1.841.3,5.2,5.2,0,0,0-1.6.863l-1.333-.914a4.944,4.944,0,0,1,1.974-1.4,7.126,7.126,0,0,1,2.723-.5,6.272,6.272,0,0,1,2.806.578,4.011,4.011,0,0,1,1.777,1.676,5.379,5.379,0,0,1,.609,2.647V21H71.346ZM67.486,21.19a5.411,5.411,0,0,1-3.58-1.066,3.712,3.712,0,0,1-1.27-3.009A3.643,3.643,0,0,1,63.8,14.227a4.808,4.808,0,0,1,3.282-1.022h4.38l.178,1.7H67.093a2.979,2.979,0,0,0-1.961.578,2.007,2.007,0,0,0-.692,1.631,2,2,0,0,0,.87,1.733,4.206,4.206,0,0,0,2.457.616,8.007,8.007,0,0,0,2.641-.343q.939-.343.939-.965l.267,1.727a3.531,3.531,0,0,1-1.009.7,5.679,5.679,0,0,1-1.409.451A9.056,9.056,0,0,1,67.486,21.19Zm26.127-8.176a4.014,4.014,0,0,0-.838-2.717,2.96,2.96,0,0,0-2.361-.965,3.035,3.035,0,0,0-2.38.939,3.814,3.814,0,0,0-.844,2.641l-.774-1.9A5.639,5.639,0,0,1,88.18,8.5a4.322,4.322,0,0,1,2.717-.87,4.6,4.6,0,0,1,2.457.628,3.966,3.966,0,0,1,1.555,1.834A7.163,7.163,0,0,1,95.441,13v8H93.613Zm-16.5-5.192h1.828V21H77.109Zm8.252,5.192A4.034,4.034,0,0,0,84.53,10.3a2.956,2.956,0,0,0-2.368-.965,3.164,3.164,0,0,0-2.38.87,3.381,3.381,0,0,0-.844,2.457l-.267-2.539a4.241,4.241,0,0,1,1.727-1.9,5.1,5.1,0,0,1,2.488-.584,4.2,4.2,0,0,1,2.33.628,3.888,3.888,0,0,1,1.473,1.834,7.563,7.563,0,0,1,.5,2.907v8H85.361Z" transform="translate(209 490)"/>
    <path id="Path_369" data-name="Path 369" d="M6.572,20H4.814V3.74L1.555,5.779V3.936L4.082,2.251h2.49Zm8.313,0H13.127V3.74L9.868,5.779V3.936l2.527-1.685h2.49Zm4.028-2h2v2h-2Zm0-10.913h2v2h-2Zm10,13.1a5.022,5.022,0,0,1-3.778-1.331,5.114,5.114,0,0,1-1.288-3.711V7.073a5.1,5.1,0,0,1,1.294-3.717,5.04,5.04,0,0,1,3.772-1.324A5.05,5.05,0,0,1,32.689,3.35a5.105,5.105,0,0,1,1.288,3.723v8.069a5.1,5.1,0,0,1-1.294,3.717A5.04,5.04,0,0,1,28.911,20.183Zm0-1.636a3.225,3.225,0,0,0,2.5-.885,3.615,3.615,0,0,0,.806-2.521V7.073a3.61,3.61,0,0,0-.806-2.527,3.238,3.238,0,0,0-2.5-.879,3.238,3.238,0,0,0-2.5.879A3.61,3.61,0,0,0,25.6,7.073v8.069a3.615,3.615,0,0,0,.806,2.521A3.225,3.225,0,0,0,28.911,18.547Zm13.306,1.636a5.022,5.022,0,0,1-3.778-1.331,5.114,5.114,0,0,1-1.288-3.711V7.073a5.1,5.1,0,0,1,1.294-3.717,5.04,5.04,0,0,1,3.772-1.324A5.05,5.05,0,0,1,45.994,3.35a5.105,5.105,0,0,1,1.288,3.723v8.069a5.1,5.1,0,0,1-1.294,3.717A5.04,5.04,0,0,1,42.216,20.183Zm0-1.636a3.225,3.225,0,0,0,2.5-.885,3.615,3.615,0,0,0,.806-2.521V7.073a3.61,3.61,0,0,0-.806-2.527,3.238,3.238,0,0,0-2.5-.879,3.238,3.238,0,0,0-2.5.879,3.61,3.61,0,0,0-.806,2.527v8.069a3.615,3.615,0,0,0,.806,2.521A3.225,3.225,0,0,0,42.216,18.547Zm23.328-6.58a3.283,3.283,0,0,0-.824-2.386,3.109,3.109,0,0,0-2.338-.848,5.492,5.492,0,0,0-1.77.293,5,5,0,0,0-1.538.83l-1.282-.879a4.754,4.754,0,0,1,1.9-1.349,6.852,6.852,0,0,1,2.618-.482,6.031,6.031,0,0,1,2.7.555,3.857,3.857,0,0,1,1.709,1.611,5.172,5.172,0,0,1,.586,2.545V20H65.544Zm-3.711,8.215a5.2,5.2,0,0,1-3.442-1.025,3.569,3.569,0,0,1-1.221-2.893,3.5,3.5,0,0,1,1.117-2.777,4.623,4.623,0,0,1,3.156-.983h4.211l.171,1.636h-4.37a2.864,2.864,0,0,0-1.886.555,1.93,1.93,0,0,0-.665,1.569,1.924,1.924,0,0,0,.836,1.666,4.044,4.044,0,0,0,2.362.592,7.7,7.7,0,0,0,2.539-.33q.9-.33.9-.928l.256,1.66a3.4,3.4,0,0,1-.97.677,5.461,5.461,0,0,1-1.355.433A8.708,8.708,0,0,1,61.833,20.183Zm25.122-7.861a3.86,3.86,0,0,0-.806-2.612,2.846,2.846,0,0,0-2.271-.928,2.918,2.918,0,0,0-2.289.9,3.667,3.667,0,0,0-.812,2.539l-.745-1.831a5.422,5.422,0,0,1,1.7-2.411,4.156,4.156,0,0,1,2.612-.836,4.423,4.423,0,0,1,2.362.6,3.813,3.813,0,0,1,1.5,1.764,6.888,6.888,0,0,1,.513,2.8V20H86.955ZM71.086,7.329h1.758V20H71.086Zm7.935,4.993a3.879,3.879,0,0,0-.8-2.612,2.842,2.842,0,0,0-2.277-.928,3.043,3.043,0,0,0-2.289.836,3.251,3.251,0,0,0-.812,2.362l-.256-2.441a4.078,4.078,0,0,1,1.66-1.831,4.9,4.9,0,0,1,2.393-.562,4.034,4.034,0,0,1,2.24.6A3.739,3.739,0,0,1,80.3,9.514a7.272,7.272,0,0,1,.482,2.8V20H79.021Z" transform="translate(526 212)"/>
  </g>
</svg>
