<svg xmlns="http://www.w3.org/2000/svg" xmlns:xlink="http://www.w3.org/1999/xlink" width="1832" height="653" viewBox="0 0 1832 653">
  <defs>
    <style>
      .cls-1 {
        clip-path: url(#clip-Artboard_2);
      }

      .cls-18, .cls-2, .cls-28 {
        fill: none;
      }

      .cls-2 {
        stroke: #707070;
        opacity: 0.52;
      }

      .cls-3 {
        fill: #fc257e;
      }

      .cls-25, .cls-4 {
        fill: #a41be4;
      }

      .cls-5 {
        fill: #f78d1d;
      }

      .cls-6 {
        fill: #292929;
      }

      .cls-7 {
        fill: #d885ff;
      }

      .cls-8 {
        fill: #ffdc80;
      }

      .cls-9 {
        fill: #f2c652;
      }

      .cls-10 {
        fill: #ffdbbb;
      }

      .cls-11 {
        fill: #fdb797;
      }

      .cls-12 {
        fill: #d8d8d8;
      }

      .cls-13 {
        fill: #ffce7a;
      }

      .cls-14 {
        fill: #ff9113;
      }

      .cls-15 {
        fill: #ffce9e;
      }

      .cls-16 {
        fill: #ffe1c4;
      }

      .cls-17 {
        fill: #ff8000;
      }

      .cls-19 {
        fill: #070707;
      }

      .cls-20 {
        opacity: 0.11;
      }

      .cls-21 {
        fill: #ecc7fe;
      }

      .cls-22 {
        fill: #d782ff;
      }

      .cls-23 {
        fill: #0e0d15;
      }

      .cls-24 {
        fill: #fff;
      }

      .cls-25 {
        stroke: #a41be4;
      }

      .cls-26 {
        fill: #d5abff;
      }

      .cls-27 {
        fill: #ffd8b1;
      }

      .cls-28 {
        stroke: #000;
        stroke-width: 3px;
        stroke-dasharray: 6;
      }

      .cls-29 {
        fill: #eac1fe;
      }

      .cls-30 {
        fill: #ffc1db;
      }

      .cls-31 {
        stroke: none;
      }
    </style>
    <clipPath id="clip-Artboard_2">
      <rect width="1832" height="653"/>
    </clipPath>
  </defs>
  <g id="Artboard_2" data-name="Artboard – 2" class="cls-1">
    <line id="Line_15" data-name="Line 15" class="cls-2" x2="2" y2="3" transform="translate(1095.588 91.818)"/>
    <rect id="Rectangle_213" data-name="Rectangle 213" class="cls-3" width="381" height="60" transform="translate(508.913 313.853)"/>
    <path id="Polygon_1" data-name="Polygon 1" class="cls-4" d="M30,0,60,52.174H0Z" transform="translate(561.087 313.853) rotate(90)"/>
    <rect id="Rectangle_214" data-name="Rectangle 214" class="cls-5" width="377" height="60" transform="translate(885.913 313.853)"/>
    <path id="Polygon_2" data-name="Polygon 2" class="cls-3" d="M30,0,60,52.174H0Z" transform="translate(938.087 313.853) rotate(90)"/>
    <rect id="Rectangle_215" data-name="Rectangle 215" class="cls-4" width="377" height="60" transform="translate(1262.913 313.853)"/>
    <path id="Polygon_3" data-name="Polygon 3" class="cls-5" d="M30,0,60,52.174H0Z" transform="translate(1315.087 313.853) rotate(90)"/>
    <rect id="Rectangle_212" data-name="Rectangle 212" class="cls-4" width="369" height="60" transform="translate(139.913 313.853)"/>
    <path id="Path_335" data-name="Path 335" d="M22.055,10.55a11.36,11.36,0,0,1,4.875,1.005,8.96,8.96,0,0,1,3.5,2.85,10.621,10.621,0,0,1,1.83,4.275h-6.21a4.131,4.131,0,0,0-1.59-1.965,4.452,4.452,0,0,0-2.49-.705,3.885,3.885,0,0,0-3.15,1.455,5.916,5.916,0,0,0-1.2,3.885,5.977,5.977,0,0,0,1.2,3.9,3.869,3.869,0,0,0,3.15,1.47,4.384,4.384,0,0,0,2.49-.72,4.217,4.217,0,0,0,1.59-1.98h6.21a9.8,9.8,0,0,1-3.405,5.925,10.353,10.353,0,0,1-6.8,2.205,10.782,10.782,0,0,1-5.505-1.365,9.237,9.237,0,0,1-3.63-3.825,12.014,12.014,0,0,1-1.275-5.61,12.014,12.014,0,0,1,1.275-5.61,9.237,9.237,0,0,1,3.63-3.825A10.782,10.782,0,0,1,22.055,10.55Zm20.79,4.41a9.659,9.659,0,0,1,4.515,1.035,7.611,7.611,0,0,1,3.135,3,8.953,8.953,0,0,1,1.14,4.575,8.932,8.932,0,0,1-1.14,4.59,7.739,7.739,0,0,1-3.135,3,10.265,10.265,0,0,1-9.045,0,7.715,7.715,0,0,1-3.15-3,8.932,8.932,0,0,1-1.14-4.59,8.932,8.932,0,0,1,1.14-4.59,7.616,7.616,0,0,1,3.15-2.985A9.75,9.75,0,0,1,42.845,14.96Zm0,5.1a2.628,2.628,0,0,0-2.04.9A3.778,3.778,0,0,0,40,23.57a3.826,3.826,0,0,0,.81,2.64,2.628,2.628,0,0,0,2.04.9,2.577,2.577,0,0,0,2.01-.915,3.837,3.837,0,0,0,.81-2.625,3.778,3.778,0,0,0-.81-2.61A2.6,2.6,0,0,0,42.845,20.06Zm33.3-5.04a6.445,6.445,0,0,1,4.965,1.92A7.452,7.452,0,0,1,82.9,22.22V32h-5.88V22.97a2.839,2.839,0,0,0-.75-2.1,2.716,2.716,0,0,0-2.01-.75,2.817,2.817,0,0,0-2.085.765,2.942,2.942,0,0,0-.765,2.175V32h-5.88V22.97a2.839,2.839,0,0,0-.75-2.1,2.716,2.716,0,0,0-2.01-.75,2.817,2.817,0,0,0-2.085.765,2.942,2.942,0,0,0-.765,2.175V32h-5.91V15.17h5.91v2.58a5.276,5.276,0,0,1,2.01-2,6.017,6.017,0,0,1,3.03-.735,6.487,6.487,0,0,1,3.33.84,5.8,5.8,0,0,1,2.25,2.4,6.681,6.681,0,0,1,2.34-2.355A6.218,6.218,0,0,1,76.145,15.02Zm32.01,0a6.445,6.445,0,0,1,4.965,1.92,7.452,7.452,0,0,1,1.785,5.28V32h-5.88V22.97a2.839,2.839,0,0,0-.75-2.1,2.716,2.716,0,0,0-2.01-.75,2.817,2.817,0,0,0-2.085.765,2.942,2.942,0,0,0-.765,2.175V32h-5.88V22.97a2.839,2.839,0,0,0-.75-2.1,2.716,2.716,0,0,0-2.01-.75,2.817,2.817,0,0,0-2.085.765,2.942,2.942,0,0,0-.765,2.175V32h-5.91V15.17h5.91v2.58a5.277,5.277,0,0,1,2.01-2,6.017,6.017,0,0,1,3.03-.735,6.487,6.487,0,0,1,3.33.84,5.8,5.8,0,0,1,2.25,2.4,6.681,6.681,0,0,1,2.34-2.355A6.218,6.218,0,0,1,108.155,15.02Zm27.15.15V32h-5.88V29.18a5.446,5.446,0,0,1-2.1,2.16,6.284,6.284,0,0,1-3.24.81,5.718,5.718,0,0,1-4.575-1.935,7.851,7.851,0,0,1-1.665-5.3V15.17h5.88V24.2a3.2,3.2,0,0,0,.765,2.265,2.667,2.667,0,0,0,2.055.825,2.727,2.727,0,0,0,2.1-.84,3.353,3.353,0,0,0,.78-2.37V15.17Zm14.52-.15a5.673,5.673,0,0,1,4.56,1.935,7.85,7.85,0,0,1,1.65,5.265V32h-5.85V22.97a3.247,3.247,0,0,0-.765-2.3,2.667,2.667,0,0,0-2.055-.825,2.7,2.7,0,0,0-2.1.855,3.364,3.364,0,0,0-.78,2.355V32h-5.91V15.17h5.91v2.82a5.446,5.446,0,0,1,2.1-2.16A6.284,6.284,0,0,1,149.825,15.02Zm8.88-4.5a2.784,2.784,0,0,1,.96-2.175,3.647,3.647,0,0,1,2.52-.855,3.535,3.535,0,0,1,2.49.855,2.825,2.825,0,0,1,.93,2.175,2.693,2.693,0,0,1-.945,2.1,3.586,3.586,0,0,1-2.475.84,3.688,3.688,0,0,1-2.52-.84A2.675,2.675,0,0,1,158.705,10.52Zm6.39,4.65V32h-5.91V15.17Zm13.29,11.79V32h-2.43a7.068,7.068,0,0,1-4.83-1.53q-1.74-1.53-1.74-5.07V20.09h-2.16V15.17h2.16V11.09h5.91v4.08h3.03v4.92H175.3v5.43a1.49,1.49,0,0,0,.345,1.11,1.643,1.643,0,0,0,1.155.33Zm7.47-11.79,3.6,9.42,3.33-9.42h6.54l-10.65,24.87H182.2l4.11-8.76-7.02-16.11Zm26.67-.21a5.971,5.971,0,0,1,3.075.765,4.713,4.713,0,0,1,1.935,2.115V15.17h5.88V32h-5.88V29.33a4.713,4.713,0,0,1-1.935,2.115,5.971,5.971,0,0,1-3.075.765,6.6,6.6,0,0,1-3.63-1.035,7.005,7.005,0,0,1-2.55-3,10.662,10.662,0,0,1-.93-4.6,10.562,10.562,0,0,1,.93-4.59,7.02,7.02,0,0,1,2.55-2.985A6.6,6.6,0,0,1,212.525,14.96Zm1.95,5.16a2.917,2.917,0,0,0-2.235.915,3.568,3.568,0,0,0-.855,2.535,3.613,3.613,0,0,0,.855,2.565,2.917,2.917,0,0,0,2.235.915,2.872,2.872,0,0,0,2.19-.93,3.585,3.585,0,0,0,.87-2.55,3.541,3.541,0,0,0-.87-2.52A2.872,2.872,0,0,0,214.475,20.12Zm19.86-5.16a8.39,8.39,0,0,1,5.49,1.815,8.048,8.048,0,0,1,2.79,5.025h-6.24a2.419,2.419,0,0,0-.765-1.335A2.144,2.144,0,0,0,234.185,20a2.086,2.086,0,0,0-1.755.915,4.428,4.428,0,0,0-.675,2.655,4.416,4.416,0,0,0,.675,2.67,2.1,2.1,0,0,0,1.755.9,2.144,2.144,0,0,0,1.425-.465,2.419,2.419,0,0,0,.765-1.335h6.24a8.112,8.112,0,0,1-2.79,5.04,8.345,8.345,0,0,1-5.49,1.83,9.3,9.3,0,0,1-4.455-1.035,7.323,7.323,0,0,1-3.015-3,9.412,9.412,0,0,1-1.08-4.6,9.326,9.326,0,0,1,1.08-4.59,7.323,7.323,0,0,1,3.03-2.985A9.324,9.324,0,0,1,234.335,14.96Zm20.67,12V32h-2.43a7.068,7.068,0,0,1-4.83-1.53q-1.74-1.53-1.74-5.07V20.09h-2.16V15.17h2.16V11.09h5.91v4.08h3.03v4.92h-3.03v5.43a1.49,1.49,0,0,0,.345,1.11,1.643,1.643,0,0,0,1.155.33Zm2.22-16.44a2.784,2.784,0,0,1,.96-2.175,3.647,3.647,0,0,1,2.52-.855,3.535,3.535,0,0,1,2.49.855,2.825,2.825,0,0,1,.93,2.175,2.693,2.693,0,0,1-.945,2.1,3.587,3.587,0,0,1-2.475.84,3.688,3.688,0,0,1-2.52-.84A2.675,2.675,0,0,1,257.225,10.52Zm6.39,4.65V32h-5.91V15.17Zm11.43,11.16,3.18-11.16h6.27L278.705,32h-7.32l-5.82-16.83h6.3Zm10.92-15.81a2.784,2.784,0,0,1,.96-2.175,3.647,3.647,0,0,1,2.52-.855,3.535,3.535,0,0,1,2.49.855,2.825,2.825,0,0,1,.93,2.175,2.693,2.693,0,0,1-.945,2.1,3.587,3.587,0,0,1-2.475.84,3.688,3.688,0,0,1-2.52-.84A2.675,2.675,0,0,1,285.965,10.52Zm6.39,4.65V32h-5.91V15.17Zm13.29,11.79V32h-2.43a7.068,7.068,0,0,1-4.83-1.53q-1.74-1.53-1.74-5.07V20.09h-2.16V15.17h2.16V11.09h5.91v4.08h3.03v4.92h-3.03v5.43a1.49,1.49,0,0,0,.345,1.11,1.643,1.643,0,0,0,1.155.33Zm7.47-11.79,3.6,9.42,3.33-9.42h6.54l-10.65,24.87h-6.48l4.11-8.76-7.02-16.11Z" transform="translate(171.413 431.119)"/>
    <path id="Path_334" data-name="Path 334" class="cls-6" d="M17,20H15.238V3.74L11.979,5.779V3.936l2.527-1.685H17Zm9.094.183a5.022,5.022,0,0,1-3.778-1.331,5.114,5.114,0,0,1-1.288-3.711V7.073a5.1,5.1,0,0,1,1.294-3.717A5.04,5.04,0,0,1,26.09,2.031,5.05,5.05,0,0,1,29.868,3.35a5.105,5.105,0,0,1,1.288,3.723v8.069a5.1,5.1,0,0,1-1.294,3.717A5.04,5.04,0,0,1,26.09,20.183Zm0-1.636a3.225,3.225,0,0,0,2.5-.885,3.615,3.615,0,0,0,.806-2.521V7.073a3.61,3.61,0,0,0-.806-2.527,3.238,3.238,0,0,0-2.5-.879,3.238,3.238,0,0,0-2.5.879,3.61,3.61,0,0,0-.806,2.527v8.069a3.615,3.615,0,0,0,.806,2.521A3.225,3.225,0,0,0,26.09,18.547Zm8-.549h2v2h-2Zm0-10.913h2v2h-2Zm10,13.1a5.022,5.022,0,0,1-3.778-1.331,5.114,5.114,0,0,1-1.288-3.711V7.073a5.1,5.1,0,0,1,1.294-3.717,5.04,5.04,0,0,1,3.772-1.324A5.05,5.05,0,0,1,47.862,3.35a5.105,5.105,0,0,1,1.288,3.723v8.069a5.1,5.1,0,0,1-1.294,3.717A5.04,5.04,0,0,1,44.083,20.183Zm0-1.636a3.225,3.225,0,0,0,2.5-.885,3.615,3.615,0,0,0,.806-2.521V7.073a3.61,3.61,0,0,0-.806-2.527,3.238,3.238,0,0,0-2.5-.879,3.238,3.238,0,0,0-2.5.879,3.61,3.61,0,0,0-.806,2.527v8.069a3.615,3.615,0,0,0,.806,2.521A3.225,3.225,0,0,0,44.083,18.547Zm13.306,1.636a5.022,5.022,0,0,1-3.778-1.331,5.114,5.114,0,0,1-1.288-3.711V7.073a5.1,5.1,0,0,1,1.294-3.717,5.04,5.04,0,0,1,3.772-1.324A5.05,5.05,0,0,1,61.167,3.35a5.105,5.105,0,0,1,1.288,3.723v8.069a5.1,5.1,0,0,1-1.294,3.717A5.04,5.04,0,0,1,57.389,20.183Zm0-1.636a3.225,3.225,0,0,0,2.5-.885,3.615,3.615,0,0,0,.806-2.521V7.073a3.61,3.61,0,0,0-.806-2.527,4,4,0,0,0-5,0,3.61,3.61,0,0,0-.806,2.527v8.069a3.615,3.615,0,0,0,.806,2.521A3.225,3.225,0,0,0,57.389,18.547Zm23.328-6.58a3.283,3.283,0,0,0-.824-2.386,3.109,3.109,0,0,0-2.338-.848,5.492,5.492,0,0,0-1.77.293,5,5,0,0,0-1.538.83l-1.282-.879a4.754,4.754,0,0,1,1.9-1.349,6.852,6.852,0,0,1,2.618-.482,6.031,6.031,0,0,1,2.7.555,3.857,3.857,0,0,1,1.709,1.611,5.172,5.172,0,0,1,.586,2.545V20H80.717Zm-3.711,8.215a5.2,5.2,0,0,1-3.442-1.025,3.569,3.569,0,0,1-1.221-2.893,3.5,3.5,0,0,1,1.117-2.777,4.623,4.623,0,0,1,3.156-.983h4.211L81,14.141h-4.37a2.864,2.864,0,0,0-1.886.555,1.93,1.93,0,0,0-.665,1.569,1.924,1.924,0,0,0,.836,1.666,4.045,4.045,0,0,0,2.362.592,7.7,7.7,0,0,0,2.539-.33q.9-.33.9-.928l.256,1.66A3.4,3.4,0,0,1,80,19.6a5.461,5.461,0,0,1-1.355.433A8.708,8.708,0,0,1,77.006,20.183Zm25.122-7.861a3.86,3.86,0,0,0-.806-2.612,2.846,2.846,0,0,0-2.271-.928,2.918,2.918,0,0,0-2.289.9,3.667,3.667,0,0,0-.812,2.539l-.745-1.831a5.422,5.422,0,0,1,1.7-2.411,4.156,4.156,0,0,1,2.612-.836,4.423,4.423,0,0,1,2.362.6,3.813,3.813,0,0,1,1.5,1.764,6.888,6.888,0,0,1,.513,2.8V20h-1.758ZM86.259,7.329h1.758V20H86.259Zm7.935,4.993a3.879,3.879,0,0,0-.8-2.612,2.842,2.842,0,0,0-2.277-.928,3.043,3.043,0,0,0-2.289.836,3.251,3.251,0,0,0-.812,2.362L87.76,9.539a4.078,4.078,0,0,1,1.66-1.831,4.9,4.9,0,0,1,2.393-.562,4.034,4.034,0,0,1,2.24.6,3.739,3.739,0,0,1,1.416,1.764,7.272,7.272,0,0,1,.482,2.8V20H94.193Zm28.394.5v1.636h-8.2V12.822ZM130.167,20H128.41V3.74L125.15,5.779V3.936l2.527-1.685h2.49Zm4.028-2h2v2h-2Zm0-10.913h2v2h-2Zm10,13.1a5.022,5.022,0,0,1-3.778-1.331,5.114,5.114,0,0,1-1.288-3.711V7.073a5.1,5.1,0,0,1,1.294-3.717,6.053,6.053,0,0,1,7.55-.006,5.105,5.105,0,0,1,1.288,3.723v8.069a5.1,5.1,0,0,1-1.294,3.717A5.04,5.04,0,0,1,144.193,20.183Zm0-1.636a3.225,3.225,0,0,0,2.5-.885,3.615,3.615,0,0,0,.806-2.521V7.073a3.61,3.61,0,0,0-.806-2.527,4,4,0,0,0-5,0,3.61,3.61,0,0,0-.806,2.527v8.069a3.615,3.615,0,0,0,.806,2.521A3.225,3.225,0,0,0,144.193,18.547ZM157.5,20.183a5.022,5.022,0,0,1-3.778-1.331,5.114,5.114,0,0,1-1.288-3.711V7.073a5.1,5.1,0,0,1,1.294-3.717,6.053,6.053,0,0,1,7.55-.006,5.105,5.105,0,0,1,1.288,3.723v8.069a5.1,5.1,0,0,1-1.294,3.717A5.04,5.04,0,0,1,157.5,20.183Zm0-1.636a3.225,3.225,0,0,0,2.5-.885,3.615,3.615,0,0,0,.806-2.521V7.073A3.61,3.61,0,0,0,160,4.546a4,4,0,0,0-5,0,3.61,3.61,0,0,0-.806,2.527v8.069A3.615,3.615,0,0,0,155,17.662,3.225,3.225,0,0,0,157.5,18.547ZM173.063,7.329h1.758V25.151h-1.758Zm5.676,12.854a5.846,5.846,0,0,1-2.576-.507,3.07,3.07,0,0,1-1.514-1.666l.171-2.649a3.451,3.451,0,0,0,.391,1.593,3.191,3.191,0,0,0,1.123,1.239,3.065,3.065,0,0,0,1.709.476,3.16,3.16,0,0,0,2.454-.946,3.787,3.787,0,0,0,.867-2.655V12.322a3.89,3.89,0,0,0-.867-2.7,3.139,3.139,0,0,0-2.454-.958,3.1,3.1,0,0,0-1.709.47,3.182,3.182,0,0,0-1.123,1.215,3.319,3.319,0,0,0-.391,1.563l-.256-2.441a4.018,4.018,0,0,1,1.752-1.776,5.649,5.649,0,0,1,2.545-.543,4.226,4.226,0,0,1,2.3.6,3.792,3.792,0,0,1,1.459,1.764,7.035,7.035,0,0,1,.5,2.8v2.759a6.732,6.732,0,0,1-.513,2.759,3.81,3.81,0,0,1-1.5,1.752A4.455,4.455,0,0,1,178.739,20.183Zm23.792-7.861a3.86,3.86,0,0,0-.806-2.612,2.846,2.846,0,0,0-2.271-.928,2.918,2.918,0,0,0-2.289.9,3.667,3.667,0,0,0-.812,2.539l-.745-1.831a5.422,5.422,0,0,1,1.7-2.411,4.156,4.156,0,0,1,2.612-.836,4.423,4.423,0,0,1,2.362.6,3.813,3.813,0,0,1,1.5,1.764,6.888,6.888,0,0,1,.513,2.8V20h-1.758ZM186.662,7.329h1.758V20h-1.758Zm7.935,4.993a3.879,3.879,0,0,0-.8-2.612,2.842,2.842,0,0,0-2.277-.928,3.043,3.043,0,0,0-2.289.836,3.251,3.251,0,0,0-.812,2.362l-.256-2.441a4.078,4.078,0,0,1,1.66-1.831,4.9,4.9,0,0,1,2.393-.562,4.034,4.034,0,0,1,2.24.6,3.739,3.739,0,0,1,1.416,1.764,7.272,7.272,0,0,1,.482,2.8V20H194.6Z" transform="translate(227.636 482.853)"/>
    <path id="Path_333" data-name="Path 333" d="M-54.915,0-59.2-7.83h-.6V0h-5.91V-21.24h9.33a9.683,9.683,0,0,1,4.335.885,6.154,6.154,0,0,1,2.685,2.445,6.9,6.9,0,0,1,.9,3.51,6.232,6.232,0,0,1-1.23,3.855,6.5,6.5,0,0,1-3.54,2.3L-48.4,0Zm-4.89-11.79h2.91q2.46,0,2.46-2.22a2.2,2.2,0,0,0-.615-1.65,2.545,2.545,0,0,0-1.845-.6h-2.91Zm29.85,3.06a7.076,7.076,0,0,1-.15,1.38h-11.13q.15,2.85,2.49,2.85a2.363,2.363,0,0,0,1.44-.42,2.1,2.1,0,0,0,.78-1.11h6.24a7.137,7.137,0,0,1-1.47,3.2A7.889,7.889,0,0,1-34.635-.6a8.916,8.916,0,0,1-3.81.81A9.3,9.3,0,0,1-42.9-.825a7.323,7.323,0,0,1-3.015-3,9.412,9.412,0,0,1-1.08-4.605,9.326,9.326,0,0,1,1.08-4.59,7.323,7.323,0,0,1,3.03-2.985,9.324,9.324,0,0,1,4.44-1.035A9.323,9.323,0,0,1-34-16.02a7.276,7.276,0,0,1,2.985,2.91A8.77,8.77,0,0,1-29.955-8.73Zm-6-1.08a2.432,2.432,0,0,0-.69-1.95,2.563,2.563,0,0,0-1.8-.66,2.743,2.743,0,0,0-1.9.66A2.864,2.864,0,0,0-41.2-9.81Zm16.53,4.14,3.18-11.16h6.27L-15.765,0h-7.32l-5.82-16.83h6.3Zm10.92-15.81a2.784,2.784,0,0,1,.96-2.175,3.647,3.647,0,0,1,2.52-.855,3.535,3.535,0,0,1,2.49.855,2.825,2.825,0,0,1,.93,2.175,2.693,2.693,0,0,1-.945,2.1,3.586,3.586,0,0,1-2.475.84,3.688,3.688,0,0,1-2.52-.84A2.675,2.675,0,0,1-8.505-21.48Zm6.39,4.65V0h-5.91V-16.83Zm19.44,8.1a7.076,7.076,0,0,1-.15,1.38H6.045q.15,2.85,2.49,2.85a2.363,2.363,0,0,0,1.44-.42,2.1,2.1,0,0,0,.78-1.11h6.24a7.137,7.137,0,0,1-1.47,3.2A7.889,7.889,0,0,1,12.645-.6a8.916,8.916,0,0,1-3.81.81A9.3,9.3,0,0,1,4.38-.825a7.323,7.323,0,0,1-3.015-3A9.412,9.412,0,0,1,.285-8.43a9.326,9.326,0,0,1,1.08-4.59,7.323,7.323,0,0,1,3.03-2.985,9.324,9.324,0,0,1,4.44-1.035,9.323,9.323,0,0,1,4.44,1.02,7.276,7.276,0,0,1,2.985,2.91A8.77,8.77,0,0,1,17.325-8.73Zm-6-1.08a2.432,2.432,0,0,0-.69-1.95,2.563,2.563,0,0,0-1.8-.66,2.743,2.743,0,0,0-1.9.66,2.864,2.864,0,0,0-.855,1.95Zm33.48-7.02L40.635,0h-6.6l-2.55-10.47L28.875,0h-6.63l-4.11-16.83h5.85l1.83,11.25,2.64-11.25h6.27l2.76,11.34,1.86-11.34Zm6.48,12.15a53.454,53.454,0,0,0,6.57-5.565q2.46-2.535,2.46-4.575,0-1.98-1.59-1.98a1.4,1.4,0,0,0-1.305.69,4.933,4.933,0,0,0-.435,2.28h-5.73q.18-3.99,2.4-5.955a8.067,8.067,0,0,1,5.55-1.965q3.63,0,5.37,1.8a6.294,6.294,0,0,1,1.74,4.56A9.187,9.187,0,0,1,64.2-9.69,19.583,19.583,0,0,1,59-5.04h7.62V-.27H51.285Z" transform="translate(714.913 188.853)"/>
    <path id="Path_338" data-name="Path 338" class="cls-6" d="M-43.988.183a5.022,5.022,0,0,1-3.778-1.331,5.114,5.114,0,0,1-1.288-3.711v-8.069a5.1,5.1,0,0,1,1.294-3.717,5.04,5.04,0,0,1,3.772-1.324A5.05,5.05,0,0,1-40.21-16.65a5.105,5.105,0,0,1,1.288,3.723v8.069a5.1,5.1,0,0,1-1.294,3.717A5.04,5.04,0,0,1-43.988.183Zm0-1.636a3.225,3.225,0,0,0,2.5-.885,3.614,3.614,0,0,0,.806-2.521v-8.069a3.61,3.61,0,0,0-.806-2.527,3.238,3.238,0,0,0-2.5-.879,3.238,3.238,0,0,0-2.5.879,3.61,3.61,0,0,0-.806,2.527v8.069a3.615,3.615,0,0,0,.806,2.521A3.225,3.225,0,0,0-43.988-1.453Zm8.484-2.7,5.957-13.586h1.831L-33.527-4.3h9.436v1.575H-35.5Zm8.02-6.287h1.7V.012h-1.7ZM-21.039-2h2V0h-2Zm0-10.913h2v2h-2Zm10,13.1a5.022,5.022,0,0,1-3.778-1.331,5.114,5.114,0,0,1-1.288-3.711v-8.069a5.1,5.1,0,0,1,1.294-3.717,5.04,5.04,0,0,1,3.772-1.324A5.05,5.05,0,0,1-7.263-16.65a5.105,5.105,0,0,1,1.288,3.723v8.069A5.1,5.1,0,0,1-7.269-1.141,5.04,5.04,0,0,1-11.041.183Zm0-1.636a3.225,3.225,0,0,0,2.5-.885,3.614,3.614,0,0,0,.806-2.521v-8.069a3.61,3.61,0,0,0-.806-2.527,3.238,3.238,0,0,0-2.5-.879,3.238,3.238,0,0,0-2.5.879,3.61,3.61,0,0,0-.806,2.527v8.069a3.615,3.615,0,0,0,.806,2.521A3.225,3.225,0,0,0-11.041-1.453ZM2.264.183A5.022,5.022,0,0,1-1.514-1.147,5.114,5.114,0,0,1-2.8-4.858v-8.069a5.1,5.1,0,0,1,1.294-3.717,5.04,5.04,0,0,1,3.772-1.324A5.05,5.05,0,0,1,6.042-16.65,5.105,5.105,0,0,1,7.33-12.927v8.069A5.1,5.1,0,0,1,6.036-1.141,5.04,5.04,0,0,1,2.264.183Zm0-1.636a3.225,3.225,0,0,0,2.5-.885,3.614,3.614,0,0,0,.806-2.521v-8.069a3.61,3.61,0,0,0-.806-2.527,3.238,3.238,0,0,0-2.5-.879,3.238,3.238,0,0,0-2.5.879,3.61,3.61,0,0,0-.806,2.527v8.069A3.615,3.615,0,0,0-.238-2.338,3.225,3.225,0,0,0,2.264-1.453ZM17.828-12.671h1.758V5.151H17.828ZM23.5.183a5.846,5.846,0,0,1-2.576-.507A3.07,3.07,0,0,1,19.415-1.99l.171-2.649a3.451,3.451,0,0,0,.391,1.593A3.191,3.191,0,0,0,21.1-1.807a3.065,3.065,0,0,0,1.709.476,3.16,3.16,0,0,0,2.454-.946,3.787,3.787,0,0,0,.867-2.655V-7.678a3.89,3.89,0,0,0-.867-2.7,3.139,3.139,0,0,0-2.454-.958,3.1,3.1,0,0,0-1.709.47,3.182,3.182,0,0,0-1.123,1.215,3.319,3.319,0,0,0-.391,1.563l-.256-2.441a4.018,4.018,0,0,1,1.752-1.776,5.649,5.649,0,0,1,2.545-.543,4.226,4.226,0,0,1,2.3.6,3.792,3.792,0,0,1,1.459,1.764,7.035,7.035,0,0,1,.5,2.8v2.759a6.732,6.732,0,0,1-.513,2.759,3.81,3.81,0,0,1-1.5,1.752A4.455,4.455,0,0,1,23.5.183ZM47.3-7.678a3.86,3.86,0,0,0-.806-2.612,2.846,2.846,0,0,0-2.271-.928,2.918,2.918,0,0,0-2.289.9,3.667,3.667,0,0,0-.812,2.539l-.745-1.831a5.422,5.422,0,0,1,1.7-2.411,4.156,4.156,0,0,1,2.612-.836,4.423,4.423,0,0,1,2.362.6,3.813,3.813,0,0,1,1.5,1.764,6.888,6.888,0,0,1,.513,2.8V0H47.3ZM31.427-12.671h1.758V0H31.427Zm7.935,4.993a3.879,3.879,0,0,0-.8-2.612,2.842,2.842,0,0,0-2.277-.928A3.043,3.043,0,0,0,34-10.382a3.251,3.251,0,0,0-.812,2.362l-.256-2.441a4.078,4.078,0,0,1,1.66-1.831,4.9,4.9,0,0,1,2.393-.562,4.034,4.034,0,0,1,2.24.6,3.739,3.739,0,0,1,1.416,1.764,7.272,7.272,0,0,1,.482,2.8V0H39.362Z" transform="translate(714.413 232.853)"/>
    <path id="Path_336" data-name="Path 336" d="M38.615,10.76v4.71H30.1v3.78h6.36v4.44H30.1V32h-5.91V10.76Zm1.95-.24a2.784,2.784,0,0,1,.96-2.175,3.647,3.647,0,0,1,2.52-.855,3.535,3.535,0,0,1,2.49.855,2.825,2.825,0,0,1,.93,2.175,2.693,2.693,0,0,1-.945,2.1,3.586,3.586,0,0,1-2.475.84,3.688,3.688,0,0,1-2.52-.84A2.675,2.675,0,0,1,40.565,10.52Zm6.39,4.65V32h-5.91V15.17Zm14.52-.15a5.673,5.673,0,0,1,4.56,1.935,7.85,7.85,0,0,1,1.65,5.265V32h-5.85V22.97a3.246,3.246,0,0,0-.765-2.3,2.667,2.667,0,0,0-2.055-.825,2.7,2.7,0,0,0-2.1.855,3.364,3.364,0,0,0-.78,2.355V32h-5.91V15.17h5.91v2.82a5.446,5.446,0,0,1,2.1-2.16A6.284,6.284,0,0,1,61.475,15.02Zm15.6-.06a5.971,5.971,0,0,1,3.075.765,4.713,4.713,0,0,1,1.935,2.115V15.17h5.88V32h-5.88V29.33a4.713,4.713,0,0,1-1.935,2.115,5.971,5.971,0,0,1-3.075.765,6.6,6.6,0,0,1-3.63-1.035,7.005,7.005,0,0,1-2.55-3,10.662,10.662,0,0,1-.93-4.6,10.562,10.562,0,0,1,.93-4.59,7.02,7.02,0,0,1,2.55-2.985A6.6,6.6,0,0,1,77.075,14.96Zm1.95,5.16a2.917,2.917,0,0,0-2.235.915,3.568,3.568,0,0,0-.855,2.535,3.613,3.613,0,0,0,.855,2.565,2.917,2.917,0,0,0,2.235.915,2.872,2.872,0,0,0,2.19-.93,3.585,3.585,0,0,0,.87-2.55,3.541,3.541,0,0,0-.87-2.52A2.872,2.872,0,0,0,79.025,20.12ZM97.115,9.8V32H91.2V9.8Zm19.71,5.16a6.6,6.6,0,0,1,3.63,1.035A7.02,7.02,0,0,1,123,18.98a10.562,10.562,0,0,1,.93,4.59,10.662,10.662,0,0,1-.93,4.6,7.005,7.005,0,0,1-2.55,3,6.6,6.6,0,0,1-3.63,1.035,5.89,5.89,0,0,1-3.06-.765,4.737,4.737,0,0,1-1.92-2.115V40.04h-5.91V15.17h5.91v2.67a4.737,4.737,0,0,1,1.92-2.115A5.89,5.89,0,0,1,116.825,14.96Zm-1.95,5.16a2.872,2.872,0,0,0-2.19.93,3.541,3.541,0,0,0-.87,2.52,3.585,3.585,0,0,0,.87,2.55,2.872,2.872,0,0,0,2.19.93,2.917,2.917,0,0,0,2.235-.915,3.613,3.613,0,0,0,.855-2.565,3.568,3.568,0,0,0-.855-2.535A2.917,2.917,0,0,0,114.875,20.12Zm10.95-9.6a2.784,2.784,0,0,1,.96-2.175,3.647,3.647,0,0,1,2.52-.855,3.535,3.535,0,0,1,2.49.855,2.825,2.825,0,0,1,.93,2.175,2.693,2.693,0,0,1-.945,2.1,3.586,3.586,0,0,1-2.475.84,3.688,3.688,0,0,1-2.52-.84A2.675,2.675,0,0,1,125.825,10.52Zm6.39,4.65V32h-5.91V15.17ZM145.5,26.96V32h-2.43a7.068,7.068,0,0,1-4.83-1.53q-1.74-1.53-1.74-5.07V20.09h-2.16V15.17h2.16V11.09h5.91v4.08h3.03v4.92h-3.03v5.43a1.49,1.49,0,0,0,.345,1.11,1.643,1.643,0,0,0,1.155.33Zm10.38-12a8.39,8.39,0,0,1,5.49,1.815,8.048,8.048,0,0,1,2.79,5.025h-6.24a2.419,2.419,0,0,0-.765-1.335A2.144,2.144,0,0,0,155.735,20a2.086,2.086,0,0,0-1.755.915,4.428,4.428,0,0,0-.675,2.655,4.416,4.416,0,0,0,.675,2.67,2.1,2.1,0,0,0,1.755.9,2.144,2.144,0,0,0,1.425-.465,2.419,2.419,0,0,0,.765-1.335h6.24a8.112,8.112,0,0,1-2.79,5.04,8.345,8.345,0,0,1-5.49,1.83,9.3,9.3,0,0,1-4.455-1.035,7.323,7.323,0,0,1-3.015-3,9.412,9.412,0,0,1-1.08-4.6,9.326,9.326,0,0,1,1.08-4.59,7.323,7.323,0,0,1,3.03-2.985A9.324,9.324,0,0,1,155.885,14.96Zm21.9.06a5.673,5.673,0,0,1,4.56,1.935,7.85,7.85,0,0,1,1.65,5.265V32h-5.85V22.97a3.247,3.247,0,0,0-.765-2.3,2.667,2.667,0,0,0-2.055-.825,2.7,2.7,0,0,0-2.1.855,3.364,3.364,0,0,0-.78,2.355V32h-5.91V9.8h5.91v8.19a5.446,5.446,0,0,1,2.1-2.16A6.284,6.284,0,0,1,177.785,15.02Zm21.3-.06a8.132,8.132,0,0,1,5.31,1.62,7.063,7.063,0,0,1,2.49,4.29h-5.52a2.171,2.171,0,0,0-.855-1.35,2.684,2.684,0,0,0-1.575-.45,1.544,1.544,0,0,0-1.005.285.974.974,0,0,0-.345.8,1.018,1.018,0,0,0,.735.945,15.879,15.879,0,0,0,2.415.7,23.25,23.25,0,0,1,3.225.9,5.492,5.492,0,0,1,2.22,1.56,4.263,4.263,0,0,1,.945,2.91,4.393,4.393,0,0,1-.81,2.61,5.3,5.3,0,0,1-2.355,1.785,10.948,10.948,0,0,1-9.285-.885,6.4,6.4,0,0,1-2.55-4.38h5.67a1.847,1.847,0,0,0,.795,1.38,2.992,2.992,0,0,0,1.7.45,1.6,1.6,0,0,0,1.05-.3.967.967,0,0,0,.36-.78A1.1,1.1,0,0,0,200.93,26a13.071,13.071,0,0,0-2.445-.66,20.87,20.87,0,0,1-3.15-.855,5.369,5.369,0,0,1-2.145-1.5,4.177,4.177,0,0,1-.915-2.865,4.576,4.576,0,0,1,1.77-3.72A7.8,7.8,0,0,1,199.085,14.96Zm20.64,12V32h-2.43a7.068,7.068,0,0,1-4.83-1.53q-1.74-1.53-1.74-5.07V20.09h-2.16V15.17h2.16V11.09h5.91v4.08h3.03v4.92h-3.03v5.43a1.49,1.49,0,0,0,.345,1.11,1.643,1.643,0,0,0,1.155.33Zm8.94-12a5.971,5.971,0,0,1,3.075.765,4.713,4.713,0,0,1,1.935,2.115V15.17h5.88V32h-5.88V29.33a4.713,4.713,0,0,1-1.935,2.115,5.971,5.971,0,0,1-3.075.765,6.6,6.6,0,0,1-3.63-1.035,7.005,7.005,0,0,1-2.55-3,10.662,10.662,0,0,1-.93-4.6,10.562,10.562,0,0,1,.93-4.59,7.02,7.02,0,0,1,2.55-2.985A6.6,6.6,0,0,1,228.665,14.96Zm1.95,5.16a2.917,2.917,0,0,0-2.235.915,3.568,3.568,0,0,0-.855,2.535,3.613,3.613,0,0,0,.855,2.565,2.917,2.917,0,0,0,2.235.915,2.872,2.872,0,0,0,2.19-.93,3.585,3.585,0,0,0,.87-2.55,3.541,3.541,0,0,0-.87-2.52A2.872,2.872,0,0,0,230.615,20.12Zm18.09-1.8a7.707,7.707,0,0,1,2.49-2.4,6.082,6.082,0,0,1,3.18-.9v6.3h-1.71a4.814,4.814,0,0,0-2.97.765,3.162,3.162,0,0,0-.99,2.655V32h-5.91V15.17h5.91Zm17.64,8.64V32h-2.43a7.068,7.068,0,0,1-4.83-1.53q-1.74-1.53-1.74-5.07V20.09h-2.16V15.17h2.16V11.09h5.91v4.08h3.03v4.92h-3.03v5.43a1.49,1.49,0,0,0,.345,1.11,1.643,1.643,0,0,0,1.155.33Zm9.09-12a8.132,8.132,0,0,1,5.31,1.62,7.063,7.063,0,0,1,2.49,4.29h-5.52a2.171,2.171,0,0,0-.855-1.35,2.684,2.684,0,0,0-1.575-.45,1.544,1.544,0,0,0-1,.285.974.974,0,0,0-.345.8,1.018,1.018,0,0,0,.735.945,15.881,15.881,0,0,0,2.415.7,23.252,23.252,0,0,1,3.225.9,5.492,5.492,0,0,1,2.22,1.56,4.264,4.264,0,0,1,.945,2.91,4.393,4.393,0,0,1-.81,2.61,5.3,5.3,0,0,1-2.355,1.785,10.948,10.948,0,0,1-9.285-.885,6.4,6.4,0,0,1-2.55-4.38h5.67a1.847,1.847,0,0,0,.8,1.38,2.992,2.992,0,0,0,1.695.45,1.6,1.6,0,0,0,1.05-.3.967.967,0,0,0,.36-.78A1.1,1.1,0,0,0,277.28,26a13.071,13.071,0,0,0-2.445-.66,20.869,20.869,0,0,1-3.15-.855,5.369,5.369,0,0,1-2.145-1.5,4.177,4.177,0,0,1-.915-2.865,4.576,4.576,0,0,1,1.77-3.72A7.8,7.8,0,0,1,275.435,14.96Z" transform="translate(938.913 432.853)"/>
    <path id="Path_337" data-name="Path 337" class="cls-6" d="M-36.78.183a5.346,5.346,0,0,1-2.673-.629,4.082,4.082,0,0,1-1.691-1.831,6.625,6.625,0,0,1-.58-2.9v-.012a9.978,9.978,0,0,1,.232-2.069A11.981,11.981,0,0,1-40.82-9.4q.073-.183.159-.36t.171-.348l3.857-7.642h1.953L-39.209-8.9l.012-.439a2.33,2.33,0,0,1,1.044-.891,3.743,3.743,0,0,1,1.581-.317A5.019,5.019,0,0,1-34-9.924a3.987,3.987,0,0,1,1.624,1.813,6.727,6.727,0,0,1,.555,2.863v.012a6.779,6.779,0,0,1-.58,2.93A4.09,4.09,0,0,1-34.1-.452,5.339,5.339,0,0,1-36.78.183Zm0-1.66A3.016,3.016,0,0,0-34.418-2.4a3.785,3.785,0,0,0,.836-2.625v-.012a4.219,4.219,0,0,0-.867-2.838A3.062,3.062,0,0,0-36.9-8.887,2.725,2.725,0,0,0-39.166-7.88a4.484,4.484,0,0,0-.8,2.85v.012A3.766,3.766,0,0,0-39.13-2.4,3,3,0,0,0-36.78-1.477ZM-28.528-2h2V0h-2Zm0-10.913h2v2h-2Zm10,13.1a5.022,5.022,0,0,1-3.778-1.331A5.114,5.114,0,0,1-23.6-4.858v-8.069A5.1,5.1,0,0,1-22.3-16.644a5.04,5.04,0,0,1,3.772-1.324,5.05,5.05,0,0,1,3.778,1.318,5.105,5.105,0,0,1,1.288,3.723v8.069a5.1,5.1,0,0,1-1.294,3.717A5.04,5.04,0,0,1-18.53.183Zm0-1.636a3.225,3.225,0,0,0,2.5-.885,3.614,3.614,0,0,0,.806-2.521v-8.069a3.61,3.61,0,0,0-.806-2.527,3.238,3.238,0,0,0-2.5-.879,3.238,3.238,0,0,0-2.5.879,3.61,3.61,0,0,0-.806,2.527v8.069a3.615,3.615,0,0,0,.806,2.521A3.225,3.225,0,0,0-18.53-1.453ZM-5.225.183A5.022,5.022,0,0,1-9-1.147a5.114,5.114,0,0,1-1.288-3.711v-8.069A5.1,5.1,0,0,1-9-16.644a5.04,5.04,0,0,1,3.772-1.324A5.05,5.05,0,0,1-1.447-16.65,5.105,5.105,0,0,1-.159-12.927v8.069A5.1,5.1,0,0,1-1.453-1.141,5.04,5.04,0,0,1-5.225.183Zm0-1.636a3.225,3.225,0,0,0,2.5-.885,3.614,3.614,0,0,0,.806-2.521v-8.069a3.61,3.61,0,0,0-.806-2.527,3.238,3.238,0,0,0-2.5-.879,3.238,3.238,0,0,0-2.5.879,3.61,3.61,0,0,0-.806,2.527v8.069a3.615,3.615,0,0,0,.806,2.521A3.225,3.225,0,0,0-5.225-1.453Zm17.09-7.068h5.676A3.489,3.489,0,0,0,19.373-9,3.207,3.207,0,0,0,20.6-10.327a4.315,4.315,0,0,0,.433-1.978h0a4.381,4.381,0,0,0-.433-2,3.2,3.2,0,0,0-1.227-1.337,3.489,3.489,0,0,0-1.831-.476H11.865v-1.636h5.591a5.62,5.62,0,0,1,2.8.677,4.707,4.707,0,0,1,1.874,1.91,5.923,5.923,0,0,1,.665,2.856h0a5.861,5.861,0,0,1-.665,2.838,4.716,4.716,0,0,1-1.874,1.9,5.62,5.62,0,0,1-2.8.677H11.865Zm-1.282-9.229h1.758V0H10.583Zm28.564,0h1.843V0H39.233V-15.247l.183.781-5.347,12H32.825L27.478-14.221l.183-1.025V0H25.9V-17.749h1.843l5.7,12.817Z" transform="translate(1091.913 509.853)"/>
    <path id="Path_339" data-name="Path 339" d="M55.743,11.636,50.3,35H42.246L39.013,20.579,35.778,35H27.726L22.281,11.636h7l2.574,15.906,3.6-15.906h7.1l3.63,15.906,2.574-15.906Zm2.277-.264a3.063,3.063,0,0,1,1.056-2.392,4.012,4.012,0,0,1,2.772-.941,3.889,3.889,0,0,1,2.739.941,3.107,3.107,0,0,1,1.023,2.392,2.963,2.963,0,0,1-1.039,2.31,3.945,3.945,0,0,1-2.722.924,4.057,4.057,0,0,1-2.772-.924A2.943,2.943,0,0,1,58.021,11.372Zm7.029,5.115V35h-6.5V16.487Zm15.972-.165a6.24,6.24,0,0,1,5.016,2.129,8.635,8.635,0,0,1,1.815,5.792V35H81.418V25.067a3.571,3.571,0,0,0-.841-2.524,2.934,2.934,0,0,0-2.26-.908,2.973,2.973,0,0,0-2.31.941,3.7,3.7,0,0,0-.858,2.59V35h-6.5V16.487h6.5v3.1a5.991,5.991,0,0,1,2.31-2.376A6.913,6.913,0,0,1,81.021,16.322Zm22.671,0a6.24,6.24,0,0,1,5.016,2.129,8.635,8.635,0,0,1,1.815,5.792V35h-6.435V25.067a3.571,3.571,0,0,0-.841-2.524,2.934,2.934,0,0,0-2.261-.908,2.973,2.973,0,0,0-2.31.941,3.7,3.7,0,0,0-.858,2.59V35h-6.5V16.487h6.5v3.1a5.991,5.991,0,0,1,2.31-2.376A6.913,6.913,0,0,1,103.692,16.322ZM131.775,25.4a7.784,7.784,0,0,1-.165,1.518H119.368q.165,3.135,2.739,3.135a2.6,2.6,0,0,0,1.584-.462,2.312,2.312,0,0,0,.858-1.221h6.864a7.851,7.851,0,0,1-1.617,3.514,8.678,8.678,0,0,1-3.168,2.458,9.807,9.807,0,0,1-4.191.891,10.231,10.231,0,0,1-4.9-1.139,8.055,8.055,0,0,1-3.316-3.3,10.354,10.354,0,0,1-1.188-5.066,10.259,10.259,0,0,1,1.188-5.049,8.056,8.056,0,0,1,3.333-3.284,11.117,11.117,0,0,1,9.768-.017,8,8,0,0,1,3.284,3.2A9.647,9.647,0,0,1,131.775,25.4Zm-6.6-1.188a2.676,2.676,0,0,0-.759-2.145,2.819,2.819,0,0,0-1.98-.726,3.017,3.017,0,0,0-2.1.726,3.15,3.15,0,0,0-.94,2.145Zm15.708-4.257a8.477,8.477,0,0,1,2.739-2.64,6.69,6.69,0,0,1,3.5-.99v6.93H145.24a5.3,5.3,0,0,0-3.267.842,3.479,3.479,0,0,0-1.089,2.92V35h-6.5V16.487h6.5Zm21.351-3.7a6.479,6.479,0,0,1,3.366.842,5.21,5.21,0,0,1,2.112,2.326V10.58h6.5V35h-6.5V32.063a5.21,5.21,0,0,1-2.112,2.326,6.479,6.479,0,0,1-3.366.841,7.26,7.26,0,0,1-3.993-1.139,7.706,7.706,0,0,1-2.8-3.3,11.728,11.728,0,0,1-1.023-5.066,11.618,11.618,0,0,1,1.023-5.049,7.722,7.722,0,0,1,2.8-3.284A7.26,7.26,0,0,1,162.234,16.256Zm2.145,5.676a3.209,3.209,0,0,0-2.458,1.007,3.925,3.925,0,0,0-.941,2.788,3.974,3.974,0,0,0,.941,2.822,3.209,3.209,0,0,0,2.458,1.007,3.159,3.159,0,0,0,2.409-1.023,3.943,3.943,0,0,0,.957-2.805,3.9,3.9,0,0,0-.957-2.772A3.159,3.159,0,0,0,164.38,21.932ZM195.564,25.4a7.784,7.784,0,0,1-.165,1.518H183.156q.165,3.135,2.739,3.135a2.6,2.6,0,0,0,1.584-.462,2.312,2.312,0,0,0,.858-1.221H195.2a7.851,7.851,0,0,1-1.617,3.514,8.678,8.678,0,0,1-3.168,2.458,9.808,9.808,0,0,1-4.191.891,10.231,10.231,0,0,1-4.9-1.139,8.055,8.055,0,0,1-3.316-3.3,10.354,10.354,0,0,1-1.188-5.066,10.259,10.259,0,0,1,1.188-5.049,8.056,8.056,0,0,1,3.333-3.284,11.117,11.117,0,0,1,9.768-.017,8,8,0,0,1,3.284,3.2A9.647,9.647,0,0,1,195.564,25.4Zm-6.6-1.188a2.676,2.676,0,0,0-.759-2.145,2.819,2.819,0,0,0-1.98-.726,3.017,3.017,0,0,0-2.1.726,3.15,3.15,0,0,0-.941,2.145Zm17.655-7.953a9.229,9.229,0,0,1,6.039,2,8.852,8.852,0,0,1,3.069,5.528h-6.864a2.661,2.661,0,0,0-.841-1.469,2.358,2.358,0,0,0-1.568-.511,2.294,2.294,0,0,0-1.93,1.007,4.87,4.87,0,0,0-.743,2.92,4.858,4.858,0,0,0,.743,2.937,2.306,2.306,0,0,0,1.93.99,2.358,2.358,0,0,0,1.568-.511,2.661,2.661,0,0,0,.841-1.469h6.864a8.923,8.923,0,0,1-3.069,5.544,9.18,9.18,0,0,1-6.039,2.013,10.231,10.231,0,0,1-4.9-1.139,8.055,8.055,0,0,1-3.316-3.3,10.354,10.354,0,0,1-1.188-5.066,10.259,10.259,0,0,1,1.188-5.049,8.056,8.056,0,0,1,3.333-3.284A10.257,10.257,0,0,1,206.619,16.256Zm18.216-5.676V35h-6.5V10.58ZM235.3,16.256a6.568,6.568,0,0,1,3.383.842,5.184,5.184,0,0,1,2.128,2.326V16.487h6.468V35h-6.468V32.063a5.184,5.184,0,0,1-2.128,2.326,6.568,6.568,0,0,1-3.383.841,7.26,7.26,0,0,1-3.993-1.139,7.706,7.706,0,0,1-2.8-3.3,11.728,11.728,0,0,1-1.023-5.066,11.618,11.618,0,0,1,1.023-5.049,7.722,7.722,0,0,1,2.8-3.284A7.26,7.26,0,0,1,235.3,16.256Zm2.145,5.676a3.209,3.209,0,0,0-2.458,1.007,3.925,3.925,0,0,0-.941,2.788,3.974,3.974,0,0,0,.941,2.822,3.209,3.209,0,0,0,2.458,1.007,3.159,3.159,0,0,0,2.409-1.023,3.943,3.943,0,0,0,.957-2.805,3.9,3.9,0,0,0-.957-2.772A3.159,3.159,0,0,0,237.441,21.932Zm19.9-1.98a8.478,8.478,0,0,1,2.739-2.64,6.69,6.69,0,0,1,3.5-.99v6.93H261.7a5.3,5.3,0,0,0-3.267.842,3.479,3.479,0,0,0-1.089,2.92V35h-6.5V16.487h6.5ZM283.509,25.4a7.783,7.783,0,0,1-.165,1.518H271.1q.165,3.135,2.739,3.135a2.6,2.6,0,0,0,1.584-.462,2.312,2.312,0,0,0,.858-1.221h6.864a7.851,7.851,0,0,1-1.617,3.514,8.678,8.678,0,0,1-3.168,2.458,9.808,9.808,0,0,1-4.191.891,10.231,10.231,0,0,1-4.9-1.139,8.055,8.055,0,0,1-3.316-3.3,10.354,10.354,0,0,1-1.188-5.066,10.259,10.259,0,0,1,1.188-5.049,8.055,8.055,0,0,1,3.333-3.284,11.117,11.117,0,0,1,9.768-.017,8,8,0,0,1,3.283,3.2A9.647,9.647,0,0,1,283.509,25.4Zm-6.6-1.188a2.676,2.676,0,0,0-.759-2.145,2.819,2.819,0,0,0-1.98-.726,3.017,3.017,0,0,0-2.1.726,3.15,3.15,0,0,0-.94,2.145Zm16.071-7.953a6.479,6.479,0,0,1,3.366.842,5.21,5.21,0,0,1,2.112,2.326V10.58h6.5V35h-6.5V32.063a5.21,5.21,0,0,1-2.112,2.326,6.479,6.479,0,0,1-3.366.841,7.26,7.26,0,0,1-3.993-1.139,7.706,7.706,0,0,1-2.805-3.3,11.729,11.729,0,0,1-1.023-5.066,11.619,11.619,0,0,1,1.023-5.049,7.722,7.722,0,0,1,2.805-3.284A7.26,7.26,0,0,1,292.98,16.256Zm2.145,5.676a3.209,3.209,0,0,0-2.459,1.007,3.925,3.925,0,0,0-.94,2.788,3.974,3.974,0,0,0,.94,2.822,3.209,3.209,0,0,0,2.459,1.007,3.159,3.159,0,0,0,2.409-1.023,3.943,3.943,0,0,0,.957-2.805,3.9,3.9,0,0,0-.957-2.772A3.159,3.159,0,0,0,295.125,21.932Z" transform="translate(1302.5 155.253)"/>
    <path id="Path_340" data-name="Path 340" class="cls-6" d="M-56.47.061a2.783,2.783,0,0,1-2.252-.848A3.811,3.811,0,0,1-59.436-3.3V-16.357h1.758V-3.271a1.914,1.914,0,0,0,.366,1.257,1.333,1.333,0,0,0,1.086.439h1.2V.061Zm-4.272-12.732h5.713v1.514h-5.713Zm9.5-5.078h1.758v1.758h-1.758Zm0,5.078h1.758V0h-1.758Zm7.666,9.338a1.818,1.818,0,0,0,.4,1.251,1.4,1.4,0,0,0,1.1.446h1.172V0h-1.465a2.767,2.767,0,0,1-2.191-.879,3.624,3.624,0,0,1-.775-2.478V-17.749h1.758Zm7.239,0a1.818,1.818,0,0,0,.4,1.251,1.4,1.4,0,0,0,1.1.446h1.172V0h-1.465a2.767,2.767,0,0,1-2.191-.879A3.624,3.624,0,0,1-38.1-3.357V-17.749h1.758ZM-19.067.183a6.727,6.727,0,0,1-2.905-.574,4.106,4.106,0,0,1-1.843-1.666,5.151,5.151,0,0,1-.635-2.631v-.171A5.031,5.031,0,0,1-23.81-7.4a4.537,4.537,0,0,1,1.8-1.758,4.135,4.135,0,0,1-1.532-1.611,4.7,4.7,0,0,1-.543-2.258v-.183a5.164,5.164,0,0,1,.592-2.551,3.883,3.883,0,0,1,1.715-1.617,6.061,6.061,0,0,1,2.71-.555,6.061,6.061,0,0,1,2.71.555,3.883,3.883,0,0,1,1.715,1.617,5.164,5.164,0,0,1,.592,2.551v.183a4.7,4.7,0,0,1-.549,2.289,3.972,3.972,0,0,1-1.562,1.581,4.621,4.621,0,0,1,1.831,1.77,4.97,4.97,0,0,1,.647,2.527v.171a5.151,5.151,0,0,1-.635,2.631A4.106,4.106,0,0,1-16.162-.391,6.727,6.727,0,0,1-19.067.183Zm0-1.6a4.317,4.317,0,0,0,1.935-.4,2.76,2.76,0,0,0,1.221-1.16,3.749,3.749,0,0,0,.421-1.837v-.049A3.749,3.749,0,0,0-15.912-6.7a2.8,2.8,0,0,0-1.221-1.166,4.262,4.262,0,0,0-1.935-.4,4.262,4.262,0,0,0-1.935.4A2.8,2.8,0,0,0-22.223-6.7a3.776,3.776,0,0,0-.421,1.849v.061a3.687,3.687,0,0,0,.421,1.819A2.769,2.769,0,0,0-21-1.813,4.317,4.317,0,0,0-19.067-1.416Zm0-8.386a3.87,3.87,0,0,0,1.794-.385,2.609,2.609,0,0,0,1.135-1.123,3.782,3.782,0,0,0,.391-1.788v-.171a3.3,3.3,0,0,0-.391-1.66,2.548,2.548,0,0,0-1.135-1.044,4.09,4.09,0,0,0-1.794-.36,4.09,4.09,0,0,0-1.794.36A2.538,2.538,0,0,0-22-14.923a3.331,3.331,0,0,0-.391,1.666v.183A3.717,3.717,0,0,0-22-11.3a2.617,2.617,0,0,0,1.135,1.117A3.87,3.87,0,0,0-19.067-9.8ZM-10.205-2h2V0h-2Zm0-10.913h2v2h-2Zm10,13.1A5.022,5.022,0,0,1-3.986-1.147,5.114,5.114,0,0,1-5.273-4.858v-8.069a5.1,5.1,0,0,1,1.294-3.717A5.04,5.04,0,0,1-.208-17.969,5.05,5.05,0,0,1,3.571-16.65a5.105,5.105,0,0,1,1.288,3.723v8.069A5.1,5.1,0,0,1,3.564-1.141,5.04,5.04,0,0,1-.208.183Zm0-1.636a3.225,3.225,0,0,0,2.5-.885A3.614,3.614,0,0,0,3.1-4.858v-8.069a3.61,3.61,0,0,0-.806-2.527,3.238,3.238,0,0,0-2.5-.879,3.238,3.238,0,0,0-2.5.879,3.61,3.61,0,0,0-.806,2.527v8.069A3.615,3.615,0,0,0-2.71-2.338,3.225,3.225,0,0,0-.208-1.453ZM13.1.183A5.022,5.022,0,0,1,9.32-1.147,5.114,5.114,0,0,1,8.032-4.858v-8.069a5.1,5.1,0,0,1,1.294-3.717A5.04,5.04,0,0,1,13.1-17.969a5.05,5.05,0,0,1,3.778,1.318,5.105,5.105,0,0,1,1.288,3.723v8.069A5.1,5.1,0,0,1,16.87-1.141,5.04,5.04,0,0,1,13.1.183Zm0-1.636a3.225,3.225,0,0,0,2.5-.885,3.614,3.614,0,0,0,.806-2.521v-8.069a3.61,3.61,0,0,0-.806-2.527,3.238,3.238,0,0,0-2.5-.879,3.238,3.238,0,0,0-2.5.879,3.61,3.61,0,0,0-.806,2.527v8.069A3.615,3.615,0,0,0,10.6-2.338,3.225,3.225,0,0,0,13.1-1.453ZM28.662-12.671H30.42V5.151H28.662ZM34.338.183a5.846,5.846,0,0,1-2.576-.507A3.07,3.07,0,0,1,30.249-1.99l.171-2.649a3.451,3.451,0,0,0,.391,1.593,3.191,3.191,0,0,0,1.123,1.239,3.065,3.065,0,0,0,1.709.476A3.16,3.16,0,0,0,36.1-2.277a3.787,3.787,0,0,0,.867-2.655V-7.678a3.89,3.89,0,0,0-.867-2.7,3.139,3.139,0,0,0-2.454-.958,3.1,3.1,0,0,0-1.709.47,3.182,3.182,0,0,0-1.123,1.215,3.319,3.319,0,0,0-.391,1.563l-.256-2.441a4.018,4.018,0,0,1,1.752-1.776,5.649,5.649,0,0,1,2.545-.543,4.226,4.226,0,0,1,2.3.6,3.792,3.792,0,0,1,1.459,1.764,7.035,7.035,0,0,1,.5,2.8v2.759a6.732,6.732,0,0,1-.513,2.759,3.81,3.81,0,0,1-1.5,1.752A4.455,4.455,0,0,1,34.338.183ZM58.13-7.678a3.86,3.86,0,0,0-.806-2.612,2.846,2.846,0,0,0-2.271-.928,2.918,2.918,0,0,0-2.289.9,3.667,3.667,0,0,0-.812,2.539l-.745-1.831a5.422,5.422,0,0,1,1.7-2.411,4.156,4.156,0,0,1,2.612-.836,4.423,4.423,0,0,1,2.362.6,3.813,3.813,0,0,1,1.5,1.764,6.888,6.888,0,0,1,.513,2.8V0H58.13ZM42.261-12.671h1.758V0H42.261ZM50.2-7.678a3.879,3.879,0,0,0-.8-2.612,2.842,2.842,0,0,0-2.277-.928,3.043,3.043,0,0,0-2.289.836,3.251,3.251,0,0,0-.812,2.362l-.256-2.441a4.078,4.078,0,0,1,1.66-1.831,4.9,4.9,0,0,1,2.393-.562,4.034,4.034,0,0,1,2.24.6,3.739,3.739,0,0,1,1.416,1.764,7.272,7.272,0,0,1,.482,2.8V0H50.2Z" transform="translate(1466.913 227.853)"/>
    <path id="Polygon_6" data-name="Polygon 6" class="cls-4" d="M25,0,50,43H0Z" transform="translate(364.913 403.853) rotate(180)"/>
    <path id="Polygon_8" data-name="Polygon 8" class="cls-5" d="M25,0,50,43H0Z" transform="translate(1116.913 403.853) rotate(180)"/>
    <path id="Polygon_7" data-name="Polygon 7" class="cls-3" d="M25,0,50,43H0Z" transform="translate(689.913 281.853)"/>
    <path id="Polygon_9" data-name="Polygon 9" class="cls-4" d="M25,0,50,43H0Z" transform="translate(1441.913 281.853)"/>
    <line id="Line_29" data-name="Line 29" class="cls-2" x2="2" y2="3" transform="translate(1244.46 94.818)"/>
    <g id="gold-medal-svgrepo-com" transform="translate(1363.679 409.348)">
      <path id="Path_323" data-name="Path 323" class="cls-4" d="M200.4,0H147.224L70.415,112.258H123.59Z" transform="translate(-17.402)"/>
      <path id="Path_324" data-name="Path 324" class="cls-7" d="M23.472,0H76.647l76.808,112.258H100.28Z"/>
      <path id="Path_325" data-name="Path 325" class="cls-8" d="M116.63,93.887a64.992,64.992,0,1,1-64.992,64.992A64.8,64.8,0,0,1,116.63,93.887Z" transform="translate(-10.441 -34.804)"/>
      <path id="Path_326" data-name="Path 326" class="cls-9" d="M127.071,122.053a47.267,47.267,0,1,0,47.267,47.267A47.406,47.406,0,0,0,127.071,122.053Zm0,82.717a35.45,35.45,0,1,1,35.45-35.45A35.554,35.554,0,0,1,127.071,204.77Z" transform="translate(-20.882 -45.245)"/>
    </g>
    <g id="Group_94" data-name="Group 94" transform="translate(-130.5 -183.515)">
      <ellipse id="Ellipse_2" data-name="Ellipse 2" class="cls-10" cx="152" cy="93.5" rx="152" ry="93.5" transform="translate(1076 281.768)"/>
      <g id="Group_50" data-name="Group 50" transform="translate(1095.631 287.183)">
        <path id="Path_240" data-name="Path 240" class="cls-11" d="M221.513,214.767s6.517,29.588,5.7,30.288-6.3.14-6.3.14Z" transform="translate(-174.153 -134.32)"/>
        <path id="Path_241" data-name="Path 241" class="cls-12" d="M232.745,197.751l2.991,35.71,21.875-8.04-2.991-36.271Z" transform="translate(-179.486 -122.773)"/>
        <path id="Path_242" data-name="Path 242" class="cls-13" d="M140.04,313.38s2.712-9.276,16.313-8.015,40.805-.981,40.805-.981l2.1,10.517S177.619,324.177,140.04,313.38Z" transform="translate(-137.636 -174.719)"/>
        <path id="Path_243" data-name="Path 243" class="cls-14" d="M139.749,319.959l-.281,31.69s2.244,8.413,10.517,8.553,19.912,0,19.912,0l23.418-.7s9.255-6.31,8.133-9.4l.281-14.723-2.664-13.462S164.288,329.073,139.749,319.959Z" transform="translate(-137.437 -181.74)"/>
        <path id="Path_244" data-name="Path 244" class="cls-15" d="M195.11,104.633s3.179,16.266-13.274,22.436l2.431,9.349-8.975,6.917L166.5,134.36l-.935-6.918-6.357-12.34,18.509-15.144,16.92,4.72Z" transform="translate(-146.338 -82.566)"/>
        <path id="Path_245" data-name="Path 245" class="cls-5" d="M156.593,161.524s-10.657,5.111-10.657,14.386v45.239L188,220.77V172.124s-1.869-12.493-12.34-11.925c0,0-2.992,10.79-11.779.568A27.5,27.5,0,0,0,156.593,161.524Z" transform="translate(-140.353 -109.713)"/>
        <path id="Path_246" data-name="Path 246" class="cls-16" d="M156.706,188.913s4.861-5.983,17.761,9.722c0,0,2.8,11.779,20.753,15.892l7.1,1.309s11.779-9.348,11.779-2.617-8.787,7.666-8.787,7.666l-.187,1.87s-18.7,2.431-27.671-4.487S151.471,197.513,156.706,188.913Z" transform="translate(-144.766 -122.161)"/>
        <path id="Path_247" data-name="Path 247" class="cls-17" d="M159.115,112.605s1.5,14.583,3.739,14.77c0,0-43.563-17.388-20.192-45.245s41.506-5.048,41.506-5.048,6.357,10.47,3.178,12.153-12.34,4.113-21.688-.374c0,0-8.787,5.983-8.787,8.227,0,0-7.665.561-3.552,7.1C153.319,104.192,153.693,112.792,159.115,112.605Z" transform="translate(-135.77 -68.29)"/>
        <path id="Path_248" data-name="Path 248" class="cls-18" d="M200.251,137.657s9.161-.748,13.274-14.209l-.187,19.07s-3.926,3.926-6.918,2.617a21,21,0,0,0-6.356-1.5Z" transform="translate(-164.753 -93.155)"/>
        <path id="Path_249" data-name="Path 249" class="cls-19" d="M145.936,269.831H202.96s17.761,2.057,14.583,20.192l-23.184,40.2s16.453,0,15.144,10.283l-35.9.187-.561-10.283,24.492-40.2h-37.58S145.936,285.536,145.936,269.831Z" transform="translate(-140.353 -159.143)"/>
        <path id="Path_250" data-name="Path 250" class="cls-20" d="M178.277,148.98l.28,1.426s11.4-.024,11.872-1.239C190.429,149.167,179.188,149.938,178.277,148.98Z" transform="translate(-154.932 -104.664)"/>
        <path id="Path_251" data-name="Path 251" d="M257.681,148.384" transform="translate(-190.727 -104.395)"/>
      </g>
      <g id="Group_51" data-name="Group 51" transform="translate(1281.944 287.183)">
        <path id="Path_240-2" data-name="Path 240" class="cls-11" d="M226.688,214.767s-6.517,29.588-5.7,30.288,6.3.14,6.3.14Z" transform="translate(-195.922 -134.32)"/>
        <path id="Path_241-2" data-name="Path 241" class="cls-12" d="M257.611,197.751l-2.991,35.71-21.875-8.04,2.991-36.271Z" transform="translate(-232.745 -122.773)"/>
        <path id="Path_242-2" data-name="Path 242" class="cls-21" d="M199.294,312.938s-2.8-8.834-16.406-7.573-40.805-.981-40.805-.981l-2.1,10.517S161.714,323.735,199.294,312.938Z" transform="translate(-123.48 -174.719)"/>
        <path id="Path_243-2" data-name="Path 243" class="cls-4" d="M201.447,319.959l.281,31.69s-2.243,8.413-10.517,8.553-19.912,0-19.912,0l-23.418-.7s-9.255-6.31-8.133-9.4l-.281-14.723,2.664-13.462S176.908,329.073,201.447,319.959Z" transform="translate(-125.633 -181.74)"/>
        <path id="Path_244-2" data-name="Path 244" class="cls-11" d="M159.46,104.633s-3.179,16.266,13.274,22.436l-2.431,9.349,8.975,6.917,8.787-8.974.935-6.918,6.357-12.34L176.847,99.959l-16.92,4.72Z" transform="translate(-130.106 -82.566)"/>
        <path id="Path_245-2" data-name="Path 245" class="cls-22" d="M177.346,161.524S188,166.635,188,175.91v45.239l-42.067-.379V172.124s1.87-12.493,12.34-11.925c0,0,2.992,10.79,11.779.568A27.5,27.5,0,0,1,177.346,161.524Z" transform="translate(-115.461 -109.713)"/>
        <path id="Path_246-2" data-name="Path 246" class="cls-11" d="M213.124,188.913s-4.861-5.983-17.761,9.722c0,0-2.8,11.779-20.753,15.892l-7.1,1.309s-11.779-9.348-11.779-2.617,8.787,7.666,8.787,7.666l.187,1.87s18.7,2.431,27.671-4.487S218.359,197.513,213.124,188.913Z" transform="translate(-146.939 -122.161)"/>
        <path id="Path_247-2" data-name="Path 247" class="cls-4" d="M164.892,112.605s-1.5,14.583-3.739,14.77c0,0,43.563-17.388,20.192-45.245s-41.506-5.048-41.506-5.048-6.357,10.47-3.178,12.153,12.34,4.113,21.688-.374c0,0,8.787,5.983,8.787,8.227,0,0,7.665.561,3.552,7.1C170.688,104.192,170.314,112.792,164.892,112.605Z" transform="translate(-110.112 -68.29)"/>
        <path id="Path_248-2" data-name="Path 248" class="cls-18" d="M213.338,137.657s-9.161-.748-13.274-14.209l.187,19.07s3.926,3.926,6.918,2.617a21,21,0,0,1,6.357-1.5Z" transform="translate(-170.71 -93.155)"/>
        <path id="Path_249-2" data-name="Path 249" class="cls-23" d="M217.924,269.831H160.9s-17.761,2.057-14.583,20.192l23.184,40.2s-16.453,0-15.144,10.283l35.9.187.561-10.283-24.492-40.2H203.9S217.924,285.536,217.924,269.831Z" transform="translate(-145.382 -159.143)"/>
        <path id="Path_250-2" data-name="Path 250" class="cls-20" d="M190.429,148.98l-.28,1.426s-11.4-.024-11.872-1.239C178.277,149.167,189.518,149.938,190.429,148.98Z" transform="translate(-135.649 -104.664)"/>
        <path id="Path_251-2" data-name="Path 251" d="M257.681,148.384" transform="translate(-246.51 -104.395)"/>
      </g>
    </g>
    <g id="Group_95" data-name="Group 95" transform="translate(591.491 359.526)">
      <path id="Path_260" data-name="Path 260" class="cls-4" d="M349.436,157.26H324v7.226h25.434ZM302.2,142.807h47.236v-7.226h10.9V220.85L342.17,204.23c-.727-.723,1.09,0,0,0H311.722c-1.09-2.89-36.261-1.625-38.441-3.431.7-.558-.455-1.264,0-2.018.78-.962,0-.712,0-4.794,0-9.033,38.906-12.07,31.034-17.856H256.058V142.807l-35.3,42.222,6.09-71.782,24.486,4.037,43.6,25.523Z" transform="translate(-150.933 -55.837)"/>
      <g id="Group_56" data-name="Group 56" transform="translate(114.792 58.348)">
        <rect id="Rectangle_194" data-name="Rectangle 194" class="cls-24" width="25.404" height="7.057" transform="translate(58.378 43.752)"/>
        <rect id="Rectangle_195" data-name="Rectangle 195" class="cls-24" width="47.986" height="8.468" transform="translate(35.796 21.171)"/>
        <rect id="Rectangle_197" data-name="Rectangle 197" class="cls-24" width="57.866" height="7.057"/>
        <rect id="Rectangle_198" data-name="Rectangle 198" class="cls-24" width="28.933" height="8.468" transform="translate(0 21.171)"/>
        <rect id="Rectangle_196" data-name="Rectangle 196" class="cls-24" width="14.114" height="7.057" transform="translate(69.669)"/>
      </g>
      <path id="Path_262" data-name="Path 262" class="cls-25" d="M278.075,66.839H263.623v7.226h14.452Zm-25.292,0H194.974v7.226h57.809ZM231.1,88.518v7.226h-7.226V88.518h-28.9v7.226h-3.613V87.8A18.105,18.105,0,0,0,179.8,70.814a17.166,17.166,0,0,0-16.62,2.168c-5.058,3.252-7.587,9.033-7.587,14.814v28.543L149.811,138.6l-1.926,2.379h-3.132V61.058c-.361-2.529,1.807-5.058,5.058-5.058H283.856a5.44,5.44,0,0,1,5.058,5.058V88.518H231.1Z" transform="translate(-80.295 -8.774)"/>
      <path id="Path_263" data-name="Path 263" class="cls-18" d="M43.169,209.815V123.1H7.195v86.714ZM152.89,112.262a16.156,16.156,0,0,1,16.188,16.259,16.5,16.5,0,0,1-6.116,12.646A17.454,17.454,0,0,1,168,148.392h22.664a3.259,3.259,0,0,1,2.518,1.084l15.469,15.536V52.284a5.492,5.492,0,0,0-5.4-5.058H70.15a5.24,5.24,0,0,0-5.4,5.058v71.539l10.792-16.259V79.021A18.337,18.337,0,0,1,83.1,64.208,19.287,19.287,0,0,1,99.648,62.04,18.1,18.1,0,0,1,111.16,79.021v33.24ZM169.079,204.4a16.156,16.156,0,0,1-16.188,16.259H71.948a3.259,3.259,0,0,1-2.518-1.084l-9.713-9.755H50.364v3.613a3.613,3.613,0,0,1-3.6,3.613H3.6A3.877,3.877,0,0,1,0,213.428v-93.94a3.877,3.877,0,0,1,3.6-3.613H46.766a3.613,3.613,0,0,1,3.6,3.613v7.226h7.195V52.284A12.466,12.466,0,0,1,70.15,40H203.614a12.388,12.388,0,0,1,12.231,12.284v121.4a3.16,3.16,0,0,1-2.158,3.252,2.155,2.155,0,0,1-1.439.361,3.259,3.259,0,0,1-2.518-1.084l-20.505-20.595H169.079a15.846,15.846,0,0,1-6.116,10.839,16.132,16.132,0,0,1,0,25.292A16.5,16.5,0,0,1,169.079,204.4ZM152.89,137.553a9.033,9.033,0,0,0,0-18.065H107.923a3.877,3.877,0,0,1-3.6-3.613V79.021A10.865,10.865,0,0,0,97.13,68.9c-3.238-1.445-6.835-.723-10.073,1.445a11.313,11.313,0,0,0-4.677,9.033v29.266a2.766,2.766,0,0,1-.719,1.807l-14.39,21.678a2.706,2.706,0,0,1-2.518,1.807H50.364v68.649H61.156a3.259,3.259,0,0,1,2.518,1.084l9.713,9.755h79.5a9.033,9.033,0,0,0,0-18.065H122.312v-7.226H152.89a9.033,9.033,0,0,0,0-18.065H122.312v-7.226H152.89a9.033,9.033,0,0,0,0-18.065H122.312v-7.226H152.89Z" transform="translate(0 0)"/>
      <g id="Group_93" data-name="Group 93" transform="translate(9.846 66.638)">
        <rect id="Rectangle_199" data-name="Rectangle 199" class="cls-26" width="43.17" height="101.284" transform="translate(0 50.4)"/>
        <path id="Path_327" data-name="Path 327" class="cls-27" d="M118.564,230.751v-77.76l21.225-34.924V90.281s22.576-10.226,27.4,27.206c0,0,.387,13.507-1.543,18.331l42.836-.194s20.838,7.332,5.788,25.663c0,0,17.752,15.822-4.245,25.277,0,0,13.892,13.7-7.911,22.382,0,0,8.49,14.472-9.455,21.8Z" transform="translate(-68.931 -89.005)"/>
      </g>
    </g>
    <g id="Group_97" data-name="Group 97" transform="translate(-1848.585 -344.414)">
      <g id="Ellipse_20" data-name="Ellipse 20" class="cls-28" transform="translate(2128.823 455.324)">
        <circle class="cls-31" cx="59.676" cy="59.676" r="59.676"/>
        <circle class="cls-18" cx="59.676" cy="59.676" r="58.176"/>
      </g>
      <g id="Group_96" data-name="Group 96" transform="translate(2072 399)">
        <path id="Path_328" data-name="Path 328" class="cls-5" d="M270.855,264.643v31.121h35.613V264.643l36.255-16.363s6.1-11.55-6.738-12.834l-39.143,18.929a21.229,21.229,0,0,0-16.042,0l-37.218-18.929s-14.758-.962-8.342,12.512Z" transform="translate(-174.504 -219.404)"/>
        <circle id="Ellipse_15" data-name="Ellipse 15" class="cls-15" cx="15.382" cy="15.382" r="15.382" transform="translate(99.011)"/>
        <path id="Path_329" data-name="Path 329" class="cls-4" d="M364,297.39l-29.672,9.387,10.741,33.954,29.672-9.386,26.536,29.631s12.85,2.328,10.2-10.295l-29.854-31.61a21.232,21.232,0,0,0-4.838-15.3l6.823-41.193s-3.534-14.362-14.446-4.18Z" transform="translate(-180.298 -220.516)"/>
        <circle id="Ellipse_16" data-name="Ellipse 16" class="cls-29" cx="15.382" cy="15.382" r="15.382" transform="translate(202.233 69.69)"/>
        <path id="Path_330" data-name="Path 330" class="cls-3" d="M359.284,393.827l-19.253-24.451-27.98,22.032L331.3,415.859l-18.362,35.284s2.355,12.846,13.232,5.915l19.043-39.087a21.232,21.232,0,0,0,12.6-9.924l40.951-8.151s12.192-8.374-1.187-14.992Z" transform="translate(-179.017 -227.11)"/>
        <circle id="Ellipse_17" data-name="Ellipse 17" class="cls-30" cx="15.382" cy="15.382" r="15.382" transform="translate(169.18 185.955)"/>
        <path id="Path_331" data-name="Path 331" class="cls-5" d="M259.221,414.434l18.052-25.351-29.01-20.657-18.052,25.35-39.024-7.7s-11.665,5.872-1.956,14.362l42.864,7.285a21.231,21.231,0,0,0,13.068,9.3L264.5,454.036s11.464,9.345,14.053-5.354Z" transform="translate(-171.728 -227.056)"/>
        <circle id="Ellipse_18" data-name="Ellipse 18" class="cls-15" cx="15.382" cy="15.382" r="15.382" transform="translate(40.095 185.852)"/>
        <path id="Path_332" data-name="Path 332" class="cls-4" d="M210.038,331.486l29.876,8.716,9.974-34.188L220.012,297.3l-5.555-39.387s-9.38-9.087-14.207,2.874l7.21,42.878a21.23,21.23,0,0,0-4.493,15.4L174.373,349.49s-5.057,13.9,9.675,11.512Z" transform="translate(-171.047 -220.507)"/>
        <circle id="Ellipse_19" data-name="Ellipse 19" class="cls-29" cx="15.382" cy="15.382" r="15.382" transform="translate(0 69.915)"/>
      </g>
    </g>
    <path id="Polygon_4" data-name="Polygon 4" class="cls-4" d="M30,0,60,52.174H0Z" transform="translate(1692.087 313.853) rotate(90)"/>
  </g>
</svg>
