<svg xmlns="http://www.w3.org/2000/svg" xmlns:xlink="http://www.w3.org/1999/xlink" width="2561" height="913" viewBox="0 0 2561 913">
  <defs>
    <clipPath id="clip-Artboard_2">
      <rect width="2561" height="913"/>
    </clipPath>
  </defs>
  <g id="Artboard_2" data-name="Artboard – 2" clip-path="url(#clip-Artboard_2)">
    <rect width="2561" height="913" fill="#fff"/>
    <line id="Line_15" data-name="Line 15" x2="2" y2="3" transform="translate(1460.088 196.566)" fill="none" stroke="#707070" stroke-width="1" opacity="0.52"/>
    <rect id="Rectangle_213" data-name="Rectangle 213" width="381" height="60" transform="translate(873.413 418.6)" fill="#fc257e"/>
    <path id="Polygon_1" data-name="Polygon 1" d="M30,0,60,52.174H0Z" transform="translate(925.587 418.6) rotate(90)" fill="#a41be4"/>
    <rect id="Rectangle_214" data-name="Rectangle 214" width="377" height="60" transform="translate(1250.413 418.6)" fill="#f78d1d"/>
    <path id="Polygon_2" data-name="Polygon 2" d="M30,0,60,52.174H0Z" transform="translate(1302.587 418.6) rotate(90)" fill="#fc257e"/>
    <rect id="Rectangle_215" data-name="Rectangle 215" width="377" height="60" transform="translate(1627.413 418.6)" fill="#a41be4"/>
    <path id="Polygon_3" data-name="Polygon 3" d="M30,0,60,52.174H0Z" transform="translate(1679.587 418.6) rotate(90)" fill="#f78d1d"/>
    <path id="Polygon_4" data-name="Polygon 4" d="M30,0,60,52.174H0Z" transform="translate(2056.587 418.6) rotate(90)" fill="#a41be4"/>
    <rect id="Rectangle_212" data-name="Rectangle 212" width="369" height="60" transform="translate(504.413 418.6)" fill="#a41be4"/>
    <text id="Community_activity" data-name="Community activity" transform="translate(535.913 535.867)" font-size="30" font-family="Poppins-ExtraBold, Poppins" font-weight="800"><tspan x="-157.875" y="32">Community activity</tspan></text>
    <text id="_10:00_am_-1:00_pm" data-name="10:00 am -1:00 pm" transform="translate(592.136 587.6)" fill="#292929" font-size="25" font-family="Bahnschrift" font-weight="300"><tspan x="10.88" y="20">10:00 am -1:00 pm</tspan></text>
    <text id="Review_2" data-name="Review 2" transform="translate(1079.413 293.6)" font-size="30" font-family="Poppins-ExtraBold, Poppins" font-weight="800"><tspan x="-67.335" y="0">Review 2</tspan></text>
    <text id="_04:00_pm" data-name="04:00 pm" transform="translate(1078.913 337.6)" fill="#292929" font-size="25" font-family="Bahnschrift" font-weight="300"><tspan x="-50.885" y="0">04:00 pm</tspan></text>
    <text id="Final_pitch_starts" data-name="Final pitch starts" transform="translate(1303.413 537.6)" font-size="30" font-family="Poppins-ExtraBold, Poppins" font-weight="800"><tspan x="-130.935" y="32">Final pitch starts</tspan></text>
    <text id="_6:00_PM" data-name="6:00 PM" transform="translate(1456.413 614.6)" fill="#292929" font-size="25" font-family="Bahnschrift" font-weight="300"><tspan x="-43.188" y="0">6:00 PM</tspan></text>
    <text id="Winner_declared" data-name="Winner declared" transform="translate(1667 260)" font-size="33" font-family="Poppins-ExtraBold, Poppins" font-weight="800"><tspan x="-142.742" y="35">Winner declared</tspan></text>
    <text id="till_8:00_pm" data-name="till 8:00 pm" transform="translate(1831.413 332.6)" fill="#292929" font-size="25" font-family="Bahnschrift" font-weight="300"><tspan x="-61.719" y="0">till 8:00 pm</tspan></text>
    <path id="Polygon_6" data-name="Polygon 6" d="M25,0,50,43H0Z" transform="translate(729.413 508.6) rotate(180)" fill="#a41be4"/>
    <path id="Polygon_8" data-name="Polygon 8" d="M25,0,50,43H0Z" transform="translate(1481.413 508.6) rotate(180)" fill="#f78d1d"/>
    <path id="Polygon_7" data-name="Polygon 7" d="M25,0,50,43H0Z" transform="translate(1054.413 386.6)" fill="#fc257e"/>
    <path id="Polygon_9" data-name="Polygon 9" d="M25,0,50,43H0Z" transform="translate(1806.413 386.6)" fill="#a41be4"/>
    <line id="Line_29" data-name="Line 29" x2="2" y2="3" transform="translate(1608.96 199.566)" fill="none" stroke="#707070" stroke-width="1" opacity="0.52"/>
    <g id="gold-medal-svgrepo-com" transform="translate(1728.179 514.095)">
      <path id="Path_323" data-name="Path 323" d="M200.4,0H147.224L70.415,112.258H123.59Z" transform="translate(-17.402)" fill="#a41be4"/>
      <path id="Path_324" data-name="Path 324" d="M23.472,0H76.647l76.808,112.258H100.28Z" fill="#d885ff"/>
      <path id="Path_325" data-name="Path 325" d="M116.63,93.887a64.992,64.992,0,1,1-64.992,64.992A64.8,64.8,0,0,1,116.63,93.887Z" transform="translate(-10.441 -34.804)" fill="#ffdc80"/>
      <path id="Path_326" data-name="Path 326" d="M127.071,122.053a47.267,47.267,0,1,0,47.267,47.267A47.406,47.406,0,0,0,127.071,122.053Zm0,82.717a35.45,35.45,0,1,1,35.45-35.45A35.554,35.554,0,0,1,127.071,204.77Z" transform="translate(-20.882 -45.245)" fill="#f2c652"/>
    </g>
    <g id="Group_94" data-name="Group 94" transform="translate(234 -78.768)">
      <ellipse id="Ellipse_2" data-name="Ellipse 2" cx="152" cy="93.5" rx="152" ry="93.5" transform="translate(1076 281.768)" fill="#ffdbbb"/>
      <g id="Group_50" data-name="Group 50" transform="translate(1095.631 287.183)">
        <path id="Path_240" data-name="Path 240" d="M221.513,214.767s6.517,29.588,5.7,30.288-6.3.14-6.3.14Z" transform="translate(-174.153 -134.32)" fill="#fdb797"/>
        <path id="Path_241" data-name="Path 241" d="M232.745,197.751l2.991,35.71,21.875-8.04-2.991-36.271Z" transform="translate(-179.486 -122.773)" fill="#d8d8d8"/>
        <path id="Path_242" data-name="Path 242" d="M140.04,313.38s2.712-9.276,16.313-8.015,40.805-.981,40.805-.981l2.1,10.517S177.619,324.177,140.04,313.38Z" transform="translate(-137.636 -174.719)" fill="#ffce7a"/>
        <path id="Path_243" data-name="Path 243" d="M139.749,319.959l-.281,31.69s2.244,8.413,10.517,8.553,19.912,0,19.912,0l23.418-.7s9.255-6.31,8.133-9.4l.281-14.723-2.664-13.462S164.288,329.073,139.749,319.959Z" transform="translate(-137.437 -181.74)" fill="#ff9113"/>
        <path id="Path_244" data-name="Path 244" d="M195.11,104.633s3.179,16.266-13.274,22.436l2.431,9.349-8.975,6.917L166.5,134.36l-.935-6.918-6.357-12.34,18.509-15.144,16.92,4.72Z" transform="translate(-146.338 -82.566)" fill="#ffce9e"/>
        <path id="Path_245" data-name="Path 245" d="M156.593,161.524s-10.657,5.111-10.657,14.386v45.239L188,220.77V172.124s-1.869-12.493-12.34-11.925c0,0-2.992,10.79-11.779.568A27.5,27.5,0,0,0,156.593,161.524Z" transform="translate(-140.353 -109.713)" fill="#f78d1d"/>
        <path id="Path_246" data-name="Path 246" d="M156.706,188.913s4.861-5.983,17.761,9.722c0,0,2.8,11.779,20.753,15.892l7.1,1.309s11.779-9.348,11.779-2.617-8.787,7.666-8.787,7.666l-.187,1.87s-18.7,2.431-27.671-4.487S151.471,197.513,156.706,188.913Z" transform="translate(-144.766 -122.161)" fill="#ffe1c4"/>
        <path id="Path_247" data-name="Path 247" d="M159.115,112.605s1.5,14.583,3.739,14.77c0,0-43.563-17.388-20.192-45.245s41.506-5.048,41.506-5.048,6.357,10.47,3.178,12.153-12.34,4.113-21.688-.374c0,0-8.787,5.983-8.787,8.227,0,0-7.665.561-3.552,7.1C153.319,104.192,153.693,112.792,159.115,112.605Z" transform="translate(-135.77 -68.29)" fill="#ff8000"/>
        <path id="Path_248" data-name="Path 248" d="M200.251,137.657s9.161-.748,13.274-14.209l-.187,19.07s-3.926,3.926-6.918,2.617a21,21,0,0,0-6.356-1.5Z" transform="translate(-164.753 -93.155)" fill="none"/>
        <path id="Path_249" data-name="Path 249" d="M145.936,269.831H202.96s17.761,2.057,14.583,20.192l-23.184,40.2s16.453,0,15.144,10.283l-35.9.187-.561-10.283,24.492-40.2h-37.58S145.936,285.536,145.936,269.831Z" transform="translate(-140.353 -159.143)" fill="#070707"/>
        <path id="Path_250" data-name="Path 250" d="M178.277,148.98l.28,1.426s11.4-.024,11.872-1.239C190.429,149.167,179.188,149.938,178.277,148.98Z" transform="translate(-154.932 -104.664)" opacity="0.11"/>
        <path id="Path_251" data-name="Path 251" d="M257.681,148.384" transform="translate(-190.727 -104.395)"/>
      </g>
      <g id="Group_51" data-name="Group 51" transform="translate(1281.944 287.183)">
        <path id="Path_240-2" data-name="Path 240" d="M226.688,214.767s-6.517,29.588-5.7,30.288,6.3.14,6.3.14Z" transform="translate(-195.922 -134.32)" fill="#fdb797"/>
        <path id="Path_241-2" data-name="Path 241" d="M257.611,197.751l-2.991,35.71-21.875-8.04,2.991-36.271Z" transform="translate(-232.745 -122.773)" fill="#d8d8d8"/>
        <path id="Path_242-2" data-name="Path 242" d="M199.294,312.938s-2.8-8.834-16.406-7.573-40.805-.981-40.805-.981l-2.1,10.517S161.714,323.735,199.294,312.938Z" transform="translate(-123.48 -174.719)" fill="#ecc7fe"/>
        <path id="Path_243-2" data-name="Path 243" d="M201.447,319.959l.281,31.69s-2.243,8.413-10.517,8.553-19.912,0-19.912,0l-23.418-.7s-9.255-6.31-8.133-9.4l-.281-14.723,2.664-13.462S176.908,329.073,201.447,319.959Z" transform="translate(-125.633 -181.74)" fill="#a41be4"/>
        <path id="Path_244-2" data-name="Path 244" d="M159.46,104.633s-3.179,16.266,13.274,22.436l-2.431,9.349,8.975,6.917,8.787-8.974.935-6.918,6.357-12.34L176.847,99.959l-16.92,4.72Z" transform="translate(-130.106 -82.566)" fill="#fdb797"/>
        <path id="Path_245-2" data-name="Path 245" d="M177.346,161.524S188,166.635,188,175.91v45.239l-42.067-.379V172.124s1.87-12.493,12.34-11.925c0,0,2.992,10.79,11.779.568A27.5,27.5,0,0,1,177.346,161.524Z" transform="translate(-115.461 -109.713)" fill="#d782ff"/>
        <path id="Path_246-2" data-name="Path 246" d="M213.124,188.913s-4.861-5.983-17.761,9.722c0,0-2.8,11.779-20.753,15.892l-7.1,1.309s-11.779-9.348-11.779-2.617,8.787,7.666,8.787,7.666l.187,1.87s18.7,2.431,27.671-4.487S218.359,197.513,213.124,188.913Z" transform="translate(-146.939 -122.161)" fill="#fdb797"/>
        <path id="Path_247-2" data-name="Path 247" d="M164.892,112.605s-1.5,14.583-3.739,14.77c0,0,43.563-17.388,20.192-45.245s-41.506-5.048-41.506-5.048-6.357,10.47-3.178,12.153,12.34,4.113,21.688-.374c0,0,8.787,5.983,8.787,8.227,0,0,7.665.561,3.552,7.1C170.688,104.192,170.314,112.792,164.892,112.605Z" transform="translate(-110.112 -68.29)" fill="#a41be4"/>
        <path id="Path_248-2" data-name="Path 248" d="M213.338,137.657s-9.161-.748-13.274-14.209l.187,19.07s3.926,3.926,6.918,2.617a21,21,0,0,1,6.357-1.5Z" transform="translate(-170.71 -93.155)" fill="none"/>
        <path id="Path_249-2" data-name="Path 249" d="M217.924,269.831H160.9s-17.761,2.057-14.583,20.192l23.184,40.2s-16.453,0-15.144,10.283l35.9.187.561-10.283-24.492-40.2H203.9S217.924,285.536,217.924,269.831Z" transform="translate(-145.382 -159.143)" fill="#0e0d15"/>
        <path id="Path_250-2" data-name="Path 250" d="M190.429,148.98l-.28,1.426s-11.4-.024-11.872-1.239C178.277,149.167,189.518,149.938,190.429,148.98Z" transform="translate(-135.649 -104.664)" opacity="0.11"/>
        <path id="Path_251-2" data-name="Path 251" d="M257.681,148.384" transform="translate(-246.51 -104.395)"/>
      </g>
    </g>
    <g id="Group_95" data-name="Group 95" transform="translate(955.99 464.273)">
      <path id="Path_260" data-name="Path 260" d="M349.436,157.26H324v7.226h25.434ZM302.2,142.807h47.236v-7.226h10.9V220.85L342.17,204.23c-.727-.723,1.09,0,0,0H311.722c-1.09-2.89-36.261-1.625-38.441-3.431.7-.558-.455-1.264,0-2.018.78-.962,0-.712,0-4.794,0-9.033,38.906-12.07,31.034-17.856H256.058V142.807l-35.3,42.222,6.09-71.782,24.486,4.037,43.6,25.523Z" transform="translate(-150.933 -55.837)" fill="#a41be4"/>
      <g id="Group_56" data-name="Group 56" transform="translate(114.792 58.348)">
        <rect id="Rectangle_194" data-name="Rectangle 194" width="25.404" height="7.057" transform="translate(58.378 43.752)" fill="#fff"/>
        <rect id="Rectangle_195" data-name="Rectangle 195" width="47.986" height="8.468" transform="translate(35.796 21.171)" fill="#fff"/>
        <rect id="Rectangle_197" data-name="Rectangle 197" width="57.866" height="7.057" fill="#fff"/>
        <rect id="Rectangle_198" data-name="Rectangle 198" width="28.933" height="8.468" transform="translate(0 21.171)" fill="#fff"/>
        <rect id="Rectangle_196" data-name="Rectangle 196" width="14.114" height="7.057" transform="translate(69.669)" fill="#fff"/>
      </g>
      <path id="Path_262" data-name="Path 262" d="M278.075,66.839H263.623v7.226h14.452Zm-25.292,0H194.974v7.226h57.809ZM231.1,88.518v7.226h-7.226V88.518h-28.9v7.226h-3.613V87.8A18.105,18.105,0,0,0,179.8,70.814a17.166,17.166,0,0,0-16.62,2.168c-5.058,3.252-7.587,9.033-7.587,14.814v28.543L149.811,138.6l-1.926,2.379h-3.132V61.058c-.361-2.529,1.807-5.058,5.058-5.058H283.856a5.44,5.44,0,0,1,5.058,5.058V88.518H231.1Z" transform="translate(-80.295 -8.774)" fill="#a41be4" stroke="#a41be4" stroke-width="1"/>
      <path id="Path_263" data-name="Path 263" d="M43.169,209.815V123.1H7.195v86.714ZM152.89,112.262a16.156,16.156,0,0,1,16.188,16.259,16.5,16.5,0,0,1-6.116,12.646A17.454,17.454,0,0,1,168,148.392h22.664a3.259,3.259,0,0,1,2.518,1.084l15.469,15.536V52.284a5.492,5.492,0,0,0-5.4-5.058H70.15a5.24,5.24,0,0,0-5.4,5.058v71.539l10.792-16.259V79.021A18.337,18.337,0,0,1,83.1,64.208,19.287,19.287,0,0,1,99.648,62.04,18.1,18.1,0,0,1,111.16,79.021v33.24ZM169.079,204.4a16.156,16.156,0,0,1-16.188,16.259H71.948a3.259,3.259,0,0,1-2.518-1.084l-9.713-9.755H50.364v3.613a3.613,3.613,0,0,1-3.6,3.613H3.6A3.877,3.877,0,0,1,0,213.428v-93.94a3.877,3.877,0,0,1,3.6-3.613H46.766a3.613,3.613,0,0,1,3.6,3.613v7.226h7.195V52.284A12.466,12.466,0,0,1,70.15,40H203.614a12.388,12.388,0,0,1,12.231,12.284v121.4a3.16,3.16,0,0,1-2.158,3.252,2.155,2.155,0,0,1-1.439.361,3.259,3.259,0,0,1-2.518-1.084l-20.505-20.595H169.079a15.846,15.846,0,0,1-6.116,10.839,16.132,16.132,0,0,1,0,25.292A16.5,16.5,0,0,1,169.079,204.4ZM152.89,137.553a9.033,9.033,0,0,0,0-18.065H107.923a3.877,3.877,0,0,1-3.6-3.613V79.021A10.865,10.865,0,0,0,97.13,68.9c-3.238-1.445-6.835-.723-10.073,1.445a11.313,11.313,0,0,0-4.677,9.033v29.266a2.766,2.766,0,0,1-.719,1.807l-14.39,21.678a2.706,2.706,0,0,1-2.518,1.807H50.364v68.649H61.156a3.259,3.259,0,0,1,2.518,1.084l9.713,9.755h79.5a9.033,9.033,0,0,0,0-18.065H122.312v-7.226H152.89a9.033,9.033,0,0,0,0-18.065H122.312v-7.226H152.89a9.033,9.033,0,0,0,0-18.065H122.312v-7.226H152.89Z" transform="translate(0 0)" fill="none"/>
      <g id="Group_93" data-name="Group 93" transform="translate(9.846 66.638)">
        <rect id="Rectangle_199" data-name="Rectangle 199" width="43.17" height="101.284" transform="translate(0 50.4)" fill="#d5abff"/>
        <path id="Path_327" data-name="Path 327" d="M118.564,230.751v-77.76l21.225-34.924V90.281s22.576-10.226,27.4,27.206c0,0,.387,13.507-1.543,18.331l42.836-.194s20.838,7.332,5.788,25.663c0,0,17.752,15.822-4.245,25.277,0,0,13.892,13.7-7.911,22.382,0,0,8.49,14.472-9.455,21.8Z" transform="translate(-68.931 -89.005)" fill="#ffd8b1"/>
      </g>
    </g>
    <g id="Group_97" data-name="Group 97" transform="translate(-1484.085 -239.667)">
      <g id="Ellipse_20" data-name="Ellipse 20" transform="translate(2128.823 455.324)" fill="#fff" stroke="#000" stroke-width="3" stroke-dasharray="6">
        <circle cx="59.676" cy="59.676" r="59.676" stroke="none"/>
        <circle cx="59.676" cy="59.676" r="58.176" fill="none"/>
      </g>
      <g id="Group_96" data-name="Group 96" transform="translate(2072 399)">
        <path id="Path_328" data-name="Path 328" d="M270.855,264.643v31.121h35.613V264.643l36.255-16.363s6.1-11.55-6.738-12.834l-39.143,18.929a21.229,21.229,0,0,0-16.042,0l-37.218-18.929s-14.758-.962-8.342,12.512Z" transform="translate(-174.504 -219.404)" fill="#f78d1d"/>
        <circle id="Ellipse_15" data-name="Ellipse 15" cx="15.382" cy="15.382" r="15.382" transform="translate(99.011)" fill="#ffce9e"/>
        <path id="Path_329" data-name="Path 329" d="M364,297.39l-29.672,9.387,10.741,33.954,29.672-9.386,26.536,29.631s12.85,2.328,10.2-10.295l-29.854-31.61a21.232,21.232,0,0,0-4.838-15.3l6.823-41.193s-3.534-14.362-14.446-4.18Z" transform="translate(-180.298 -220.516)" fill="#a41be4"/>
        <circle id="Ellipse_16" data-name="Ellipse 16" cx="15.382" cy="15.382" r="15.382" transform="translate(202.233 69.69)" fill="#eac1fe"/>
        <path id="Path_330" data-name="Path 330" d="M359.284,393.827l-19.253-24.451-27.98,22.032L331.3,415.859l-18.362,35.284s2.355,12.846,13.232,5.915l19.043-39.087a21.232,21.232,0,0,0,12.6-9.924l40.951-8.151s12.192-8.374-1.187-14.992Z" transform="translate(-179.017 -227.11)" fill="#fc257e"/>
        <circle id="Ellipse_17" data-name="Ellipse 17" cx="15.382" cy="15.382" r="15.382" transform="translate(169.18 185.955)" fill="#ffc1db"/>
        <path id="Path_331" data-name="Path 331" d="M259.221,414.434l18.052-25.351-29.01-20.657-18.052,25.35-39.024-7.7s-11.665,5.872-1.956,14.362l42.864,7.285a21.231,21.231,0,0,0,13.068,9.3L264.5,454.036s11.464,9.345,14.053-5.354Z" transform="translate(-171.728 -227.056)" fill="#f78d1d"/>
        <circle id="Ellipse_18" data-name="Ellipse 18" cx="15.382" cy="15.382" r="15.382" transform="translate(40.095 185.852)" fill="#ffce9e"/>
        <path id="Path_332" data-name="Path 332" d="M210.038,331.486l29.876,8.716,9.974-34.188L220.012,297.3l-5.555-39.387s-9.38-9.087-14.207,2.874l7.21,42.878a21.23,21.23,0,0,0-4.493,15.4L174.373,349.49s-5.057,13.9,9.675,11.512Z" transform="translate(-171.047 -220.507)" fill="#a41be4"/>
        <circle id="Ellipse_19" data-name="Ellipse 19" cx="15.382" cy="15.382" r="15.382" transform="translate(0 69.915)" fill="#eac1fe"/>
      </g>
    </g>
  </g>
</svg>
