<svg xmlns="http://www.w3.org/2000/svg" xmlns:xlink="http://www.w3.org/1999/xlink" width="759" height="799.372" viewBox="0 0 759 799.372"><defs><style>.a{fill:#ff970e;stroke:#707070;stroke-width:3px;}.b{clip-path:url(#a);}.c{fill:#313131;}.d{fill:#040404;}.e{fill:#fc9f25;}.f{fill:#ffc77e;}.g{fill:#ffbd67;}.h{fill:#8f8f8f;}.i{fill:#171717;}.j,.p,.q,.s{fill:none;stroke:#161615;}.j,.p,.q{stroke-miterlimit:10;}.j,.q{stroke-width:0.25px;}.k{fill:#c1c1c1;}.l{fill:#a9daf7;}.m{fill:#ffd9b8;}.n{fill:#474747;}.o{fill:#797979;}.q{stroke-linecap:round;}.r{fill:#0f3b8a;}.s{stroke-width:4px;}</style><clipPath id="a"><path class="a" d="M0,0H759V799.371H0Z"/></clipPath></defs><g class="b"><path class="c" d="M168.27,81.618s41.482,62.992,26.118,118.3c0,0,20.743,118.307,76.053,259.659H212.825s-57.617-97.564-51.47-108.319c0,0-1.756-3.48-4.743-9.541C139,305.951,78.623,180.432,84.535,151.524c-2.812-25.225-4.089-48.8-3.074-69.906Z" transform="translate(284.982 286.748)"/><path class="d" d="M160.562,398.04H113.7S65,226.6,85.894,99.134l76.974,190.587-5.38,6.147Z" transform="translate(283.469 348.287)"/><path class="e" d="M187.7,44.272S226.116,153.386,174.642,250.9h-86.8s-19.209-40.24,0-147.81c0,0,78.355,12.38,74.514-20.12s-46.862-33.276-46.862-33.276l-.767-16.252s70.746,3.624,72.98,10.836" transform="translate(278.605 117.47)"/><path class="f" d="M218.881,81.615H145.134s-62.225-39.18-63-56.849L49.872,38.595s25.351,89.882,141.356,96.029c0,0,61.069,10.728,72.777-10.11,2.225-3.967,2.663-9.076.555-15.63,0,0-3.426-27.269-45.679-27.269" transform="translate(175.215 87.01)"/><path class="g" d="M165.488,77.444s-25.351,14.6-69.139-56.082h-31.5S81.938,77.9,105.277,93.038l60.979.537Z" transform="translate(227.84 75.051)"/><path class="f" d="M160.129,55.385h6.914l-12.29-23.812s-66.07-3.841-66.837,4.608l-.767,8.449s70.15,1.467,72.98,10.755" transform="translate(306.18 107.865)"/><path class="h" d="M209.695,165.362s22.282,29.779,5.375,40.863-116.768,0-116.768,0-9.221-14.469,19.2-17.968,39.947-22.9,39.947-22.9Z" transform="translate(340.349 580.965)"/><path class="h" d="M188.057,165.362s15.986,17.588,9.112,25.4-3.7,20.4-3.7,20.4H81.164s-23.045-3.538,0-12.759S150.687,175.427,148,165.362Z" transform="translate(249.168 580.965)"/><path class="i" d="M196.335,81.879s30.848-45.322-55.852-57.617c0,0-21.79-35.339-41.685-19.971,0,0-5.222,4.608,0,18.437,0,0-13.414-6.147-16.654-.767s-3.245,38.408,23.5,39.947c0,0-7.293,13.824,32.41,7.682l4.053,24.2h13.161s13.581,47.245,24.922,37.262,16.149-49.168,16.149-49.168" transform="translate(283.468 3.472)"/><path class="j" d="M196.335,81.879s30.848-45.322-55.852-57.617c0,0-21.79-35.339-41.685-19.971,0,0-5.222,4.608,0,18.437,0,0-13.414-6.147-16.654-.767s-3.245,38.408,23.5,39.947c0,0-7.293,13.824,32.41,7.682l4.053,24.2h13.161s13.581,47.245,24.922,37.262S196.335,81.879,196.335,81.879Z" transform="translate(283.468 1.472)"/><path class="k" d="M347.41,57.432,4.766,2.98v106.78L347.41,85.943Z" transform="translate(16.744 10.468)"/><path class="l" d="M88.117,33.177l-4.608-10.8-35.339,5.4V48.54l7.682-1.535Z" transform="translate(169.236 78.6)"/><path class="m" d="M99.064,32.5s-2.5-26.89-16.23-5.375l-3.746,19.2V22.509s-19.2-28.2-30.726-3.732S59.117,75.49,59.117,75.49l35.339-5.4-5.38-4.558S92.917,36.338,99.064,32.5" transform="translate(158.288 30.883)"/><path class="m" d="M106.322,25.987s10.543-13.621,0-15.156-40.507,0-40.507,0-8.2,4.446,0,7.235,40.507,7.921,40.507,7.921" transform="translate(218.423 35.651)"/><path class="m" d="M143.5,62.439s26.674-29.192,2.351-33.033c0,0-8.246,0-5.3,16.514H127.81s-7.063-18.82-3.922-24.2c0,0-33.737,6.143-31.381-7.682,0,0-14.907,56.078,0,61.457s18.829,7.682,18.829,7.682l.781,6.043h40.8l-1.571-14.492s-4.9,4.224-7.844-12.294" transform="translate(301.728 49.337)"/><path class="n" d="M0,0H21.51V133.67H0Z"/><rect class="o" width="11.992" height="42.994" transform="translate(357.904 60.198)"/><path class="p" d="M101.54,30.379s-11.207,3.845-14.221-6.4" transform="translate(306.777 84.245)"/><path class="q" d="M87.088,37.523S138.264,30.87,134.3,78.116" transform="translate(305.965 130.701)"/><line class="r" x1="603.052" transform="translate(155.949 797.114)"/><path class="s" d="M603.052,0H0" transform="translate(155.949 792.114)"/></g></svg>